<svg xmlns="http://www.w3.org/2000/svg" width="33" height="22" viewBox="0 0 33 22">
    <g fill="none" fill-rule="evenodd">
        <g fill="currentColor">
                    <path d="M37.812 230.493l9.9 9.9c.39.39.39 1.023 0 1.414l-9.9 9.9c-.39.39-1.024.39-1.414 0-.391-.391-.391-1.025 0-1.415l8.191-8.193H17c-.552 0-1-.447-1-1 0-.552.448-1 1-1h27.589l-8.191-8.192c-.391-.39-.391-1.024 0-1.414.39-.39 1.023-.39 1.414 0z" transform="translate(-168.000000, -2630.000000) translate(152.500000, 2400.000000)"/>
        </g>
    </g>
</svg>
