<svg xmlns="http://www.w3.org/2000/svg" width="17" height="17" viewBox="0 0 17 17">
    <g fill="none" fill-rule="evenodd">
        <g fill="currentColor">
            <path d="M25.666 14.286l6.834 6.833 6.834-6.833c.351-.352.905-.379 1.288-.081l.092.08c.381.382.381 1 0 1.381L33.881 22.5l6.833 6.834c.381.38.381.999 0 1.38-.381.381-1 .381-1.38 0L32.5 23.881l-6.834 6.833c-.351.352-.905.379-1.288.081l-.092-.08c-.381-.382-.381-1 0-1.381l6.833-6.834-6.833-6.834c-.381-.38-.381-.999 0-1.38.381-.381 1-.381 1.38 0z" transform="translate(-24.000000, -14.000000)"/>
        </g>
    </g>
</svg>
