<svg xmlns="http://www.w3.org/2000/svg" width="16" height="14" viewBox="0 0 16 14">
    <g fill="none" fill-rule="evenodd">
        <g fill="currentColor">
            <g>
                <path d="M1.748 3.251c1.09 0 1.77-.722 1.77-1.625C3.498.702 2.838 0 1.768 0 .7 0 0 .702 0 1.626 0 2.529.679 3.25 1.728 3.25h.02zM.185 13.945h3.127v-9.41H.185v9.41zM8.17 13.945V8.69c0-.28.02-.562.103-.763.226-.561.74-1.144 1.604-1.144 1.132 0 1.585.863 1.585 2.128v5.034h3.127V8.55c0-2.89-1.543-4.235-3.6-4.235-1.688 0-2.428.943-2.84 1.585h.02V4.536H5.044c.04.883 0 9.409 0 9.409H8.17z" transform="translate(-372.000000, -15.000000) translate(372.656854, 15.000000)"/>
            </g>
        </g>
    </g>
</svg>
