<svg id="Layer_1" data-name="Layer 1" xmlns="http://www.w3.org/2000/svg" viewBox="0 0 593.22 189.94"><path d="M145,122A61,61,0,1,0,84.13,61,61,61,0,0,0,145,122" transform="translate(0 0)" style="fill:#05caff"/><path d="M102.28,10.06A67.09,67.09,0,0,0,31.77,124.23c19.66,12.19,39.13,14.54,65.56,6.37,18.24-5.07,56.69-5.34,76.14,32.32,5,11,9.66,16.82,17.77,21.84A34.51,34.51,0,0,0,227.5,126c-8.11-5-15.42-6.61-27.43-6.18-42.28-1.44-61.26-34.14-63.37-52.72-2.21-27.54-14.95-45-34.42-57.08" transform="translate(0 0)" style="fill:#00ffb2"/><path d="M64.65,144H187V21.22H64.65Zm131.77,9.42H55.27V11.81H196.42Z" transform="translate(0 0)" style="fill:#144733"/><path d="M524.8,64.4c0,4.67-2.82,6.64-5.88,6.64A4.57,4.57,0,0,1,514.85,69c-.86-1.35-1.25-3.32-1.25-6.4V51.84c0-3.08.39-5,1.25-6.32a4.47,4.47,0,0,1,4.07-2.13c3.06,0,5.88,2,5.88,6.63Zm.9-27.18v3.64a11.19,11.19,0,0,0-8.85-4.27,9.65,9.65,0,0,0-8.07,3.72c-1.65,2.21-2.51,5.53-2.51,10.11V64c0,4.66.86,7.9,2.51,10.11a9.65,9.65,0,0,0,8.07,3.72,11.29,11.29,0,0,0,8.54-3.79v7c0,4.11-1,7-5.47,7H517.4v6.4h3.24c7.76,0,12.2-3.71,12.2-13V37.22Z" transform="translate(0 0)" style="fill:#154734"/><path d="M222.8,55.22h6.48v6.42c0,3.55-.38,5.41-1.39,6.88a5.38,5.38,0,0,1-4.78,2.16,5.21,5.21,0,0,1-4.64-2.16c-1.08-1.62-1.54-3.56-1.54-8.2V40.91c0-4.64.39-6.65,1.54-8.2A5.05,5.05,0,0,1,223,30.62a4.91,4.91,0,0,1,4.4,2.09c1.16,1.7,1.55,3.71,1.55,9.44h7.79C236.69,35,236,31,233.6,28c-2.31-2.86-5.79-4.48-10.65-4.48S214.54,25.13,212.3,28c-2.47,3-3.09,7.43-3.09,13.92V59.39c0,6.58.62,10.91,3.09,14,2.24,2.79,5.79,4.41,10.81,4.41s8.49-1.62,10.8-4.41,3-7,3-13.07V48.87H222.8Z" transform="translate(0 0)" style="fill:#154734"/><path d="M248.48,40.91V37.2h-7v40H249V50.73c0-5.1,2.55-7.27,6.87-7.27h3.71V36.58h-2.47a10,10,0,0,0-8.65,4.33" transform="translate(0 0)" style="fill:#154734"/><path d="M279.11,53.9H268.46V52.59c0-4.88.31-6.73,1.39-8.12a4.73,4.73,0,0,1,3.94-1.86,4.6,4.6,0,0,1,3.93,1.86c1.09,1.39,1.39,3.24,1.39,8.12Zm-5.32-17.32c-4.32,0-7.57,1.31-9.65,3.48-2.63,2.78-3.24,6.57-3.24,13.3V61c0,6.73.61,10.52,3.24,13.3,2.08,2.17,5.33,3.48,9.72,3.48s7.57-1.31,9.65-3.48c2.24-2.32,3-5.34,3.09-10h-7.41c-.08,2.94-.46,4.33-1.31,5.49a5,5,0,0,1-4,1.78,4.94,4.94,0,0,1-4-1.78c-1.08-1.39-1.39-3.24-1.39-8.12V59.39h18.22v-6c0-6.73-.62-10.52-3.24-13.3-2.09-2.17-5.41-3.48-9.65-3.48" transform="translate(0 0)" style="fill:#154734"/><path d="M309,53.9H298.34V52.59c0-4.88.31-6.73,1.39-8.12a4.7,4.7,0,0,1,3.93-1.86,4.63,4.63,0,0,1,3.94,1.86c1.08,1.39,1.39,3.24,1.39,8.12Zm-5.33-17.32c-4.32,0-7.56,1.31-9.64,3.48-2.63,2.78-3.25,6.57-3.25,13.3V61c0,6.73.62,10.52,3.25,13.3,2.08,2.17,5.32,3.48,9.72,3.48s7.57-1.31,9.65-3.48c2.24-2.32,3-5.34,3.09-10h-7.41c-.08,2.94-.47,4.33-1.31,5.49a5.06,5.06,0,0,1-4,1.78,4.91,4.91,0,0,1-4-1.78c-1.08-1.39-1.39-3.24-1.39-8.12V59.39h18.22v-6c0-6.73-.62-10.52-3.25-13.3-2.08-2.17-5.4-3.48-9.65-3.48" transform="translate(0 0)" style="fill:#154734"/><path d="M336.66,36.58A11.31,11.31,0,0,0,328,40.52V37.2h-7v40h7.57V49.88c0-2.71.77-4.33,1.85-5.26a5.51,5.51,0,0,1,3.86-1.39,4.78,4.78,0,0,1,3.86,1.62c.92,1.09,1.23,2.71,1.23,5.11V77.18h7.57V48.72c0-4.1-.85-7-2.55-9a10,10,0,0,0-7.72-3.17" transform="translate(0 0)" style="fill:#154734"/><polygon points="383.32 24.13 383.32 46.63 371.9 46.63 371.9 24.13 364.18 24.13 364.18 77.18 371.9 77.18 371.9 53.83 383.32 53.83 383.32 77.18 391.04 77.18 391.04 24.13 383.32 24.13" style="fill:#154734"/><path d="M409.44,68.21h-.31c-1.69-7.35-5.09-22.43-6.94-31H394c3.39,13.45,8.72,33.1,11.65,42.61l-.93,3c-1,3.32-2.21,4.17-6,4.17H397v6.19h3.16c6.33,0,9.86-2.55,12.48-12.53,2.78-10.36,7.57-30.24,10.66-43.46h-7.95c-1.63,8.58-4.56,23.66-5.95,31" transform="translate(0 0)" style="fill:#154734"/><path d="M443.38,64.65c0,4.56-2.77,6.5-5.78,6.5a4.42,4.42,0,0,1-4-2.09c-.85-1.24-1.23-3.17-1.23-6.19V51.5c0-3,.38-4.87,1.23-6.18a4.42,4.42,0,0,1,4-2.09c3,0,5.78,1.93,5.78,6.5Zm0-24.59a11.19,11.19,0,0,0-8.18-3.48,9.55,9.55,0,0,0-7.95,3.63c-1.62,2.17-2.47,5.42-2.47,9.9V64.27c0,4.48.85,7.73,2.47,9.9a9.55,9.55,0,0,0,7.95,3.63,11.14,11.14,0,0,0,8.65-4v3.4H451v-56h-7.57Z" transform="translate(0 0)" style="fill:#154734"/><path d="M463.32,40.91V37.2h-7v40h7.57V50.73c0-5.1,2.54-7.27,6.87-7.27h3.7V36.58H472a10,10,0,0,0-8.64,4.33" transform="translate(0 0)" style="fill:#154734"/><path d="M494.25,61.56c0,5-.39,6.81-1.55,8.27a4.89,4.89,0,0,1-4,1.78,5,5,0,0,1-4.09-1.78c-1.16-1.46-1.47-3.24-1.47-8.27V52.82c0-5,.31-6.81,1.47-8.28a5.08,5.08,0,0,1,4.09-1.78,4.92,4.92,0,0,1,4,1.78c1.16,1.47,1.55,3.25,1.55,8.28Zm-5.56-25c-4.25,0-7.72,1.16-10,3.56-2.55,2.86-3.16,6.57-3.16,13v8.12c0,6.42.61,10.13,3.16,13,2.24,2.4,5.71,3.56,10,3.56s7.72-1.16,9.88-3.56c2.62-2.86,3.24-6.57,3.24-13V53.13c0-6.42-.62-10.13-3.24-13-2.16-2.4-5.64-3.56-9.88-3.56" transform="translate(0 0)" style="fill:#154734"/><path d="M590.67,39.75A10,10,0,0,0,583,36.58a11.3,11.3,0,0,0-8.65,3.94V37.2h-7v40h7.56V49.88c0-2.71.77-4.33,1.85-5.26a5.56,5.56,0,0,1,3.86-1.39,4.77,4.77,0,0,1,3.86,1.62c.93,1.09,1.24,2.71,1.24,5.11V77.18h7.56V48.72c0-4.1-.85-7-2.55-9" transform="translate(0 0)" style="fill:#154734"/><path d="M280.43,125.51c0,4.66-2.82,6.64-5.88,6.64a4.58,4.58,0,0,1-4.07-2.06c-.87-1.34-1.26-3.32-1.26-6.4V113c0-3.09.39-5,1.26-6.33a4.47,4.47,0,0,1,4.07-2.13c3.06,0,5.88,2,5.88,6.64ZM281,102a11.23,11.23,0,0,0-8.86-4.27,9.65,9.65,0,0,0-8.07,3.72c-1.64,2.21-2.5,5.53-2.5,10.11v13.59c0,4.67.86,7.91,2.5,10.12a9.64,9.64,0,0,0,8.07,3.71,11.24,11.24,0,0,0,8.54-3.79v5.41c0,4.12-1.2,7-5.64,7h-2.53v6.39h3.24c7.75,0,12.37-3.71,12.37-13V98.33H281Z" transform="translate(0 0)" style="fill:#154734"/><path d="M229.36,121.9c0,4.64-.39,6.58-1.55,8.2a5.52,5.52,0,0,1-4.63,2.09,5.6,5.6,0,0,1-4.71-2.09c-1.16-1.62-1.54-3.56-1.54-8.2V102.41c0-4.64.38-6.57,1.54-8.2a5.6,5.6,0,0,1,4.71-2.09,5.52,5.52,0,0,1,4.63,2.09c1.16,1.63,1.55,3.56,1.55,8.2ZM223.18,85c-4.94,0-8.57,1.7-10.88,4.56-2.47,3-3.09,7.35-3.09,13.85V120.9c0,6.57.62,10.9,3.09,13.84,2.31,2.86,5.94,4.56,10.88,4.56s8.57-1.7,10.89-4.56,3.08-7.27,3.08-13.84V103.42c0-6.5-.69-10.83-3.08-13.85-2.32-2.86-5.95-4.56-10.89-4.56" transform="translate(0 0)" style="fill:#154734"/><path d="M249,102.41V98.7h-7v40h7.57V112.23c0-5.1,2.54-7.27,6.87-7.27h3.7V98.08h-2.47a10,10,0,0,0-8.64,4.33" transform="translate(0 0)" style="fill:#154734"/><path d="M310.29,127.16c0,3.79-2.55,6-5.64,6-3.47,0-5.17-2.39-5.17-6.26v-.77c0-2.25.46-3.64,1.31-4.57s2.4-1.31,4.4-1.31h5.1Zm-4.56-29.08c-6.87,0-11.19,3.4-12.89,9.59l6.72,1.7c.77-2.71,2.62-4.79,5.63-4.79a4.85,4.85,0,0,1,3.86,1.62c.93,1.08,1.24,2.86,1.24,5.34v3.17h-6.72c-3.63,0-6.4.77-8.33,2.55s-3.25,4.64-3.25,9v1c0,7.11,3.94,12.06,10.58,12.06a10,10,0,0,0,8.18-3.86v3.24h7.1V111.23c0-5-1.08-7.89-3.16-10s-5.1-3.17-9-3.17" transform="translate(0 0)" style="fill:#154734"/><path d="M338.82,98.08a11.29,11.29,0,0,0-8.64,3.94V98.7h-7v40h7.57v-27.3c0-2.7.77-4.33,1.85-5.26a5.56,5.56,0,0,1,3.86-1.39,4.8,4.8,0,0,1,3.86,1.62c.92,1.09,1.23,2.71,1.23,5.11v27.22h7.57V110.22c0-4.1-.85-7-2.55-9a10,10,0,0,0-7.72-3.17" transform="translate(0 0)" style="fill:#154734"/><path d="M379.26,139.3c7.41,0,12.43-4.25,12.43-11.37v-.23c0-6-2.4-8.74-8.18-11.29l-3.56-1.7c-3.7-1.7-5.55-3-5.55-6.11v-.16c0-2.63,1.85-4.48,4.78-4.48a4.74,4.74,0,0,1,3.71,1.55,7,7,0,0,1,1.16,4.4h7.25c0-3.17-.54-6.49-3.47-9a13.12,13.12,0,0,0-8.65-2.86c-6.79,0-11.88,3.87-11.88,10.6v.23c0,5.49,2.54,8.58,8,11.06l3.78,1.78c4.25,1.93,5.49,3.17,5.49,6.26v.16a4.85,4.85,0,0,1-5.1,5.18,5.21,5.21,0,0,1-3.86-1.55,6.35,6.35,0,0,1-1.39-4.56H367c0,3.48.46,6.42,3.09,8.89,2.16,2.09,5.32,3.17,9.18,3.17" transform="translate(0 0)" style="fill:#154734"/><path d="M420.87,138.68V111.23c0-5-1.08-7.89-3.17-10s-5.09-3.17-8.95-3.17c-6.87,0-11.19,3.4-12.89,9.59l6.71,1.7c.77-2.71,2.63-4.79,5.64-4.79a4.87,4.87,0,0,1,3.86,1.62c.92,1.08,1.23,2.86,1.23,5.34v3.17h-6.71c-3.63,0-6.41.77-8.34,2.55s-3.24,4.64-3.24,9v1c0,7.11,3.93,12.06,10.57,12.06a10,10,0,0,0,8.19-3.86v3.24Zm-7.57-11.52c0,3.79-2.55,6-5.63,6-3.48,0-5.18-2.39-5.18-6.26v-.77c0-2.25.47-3.64,1.32-4.57s2.39-1.31,4.4-1.31h5.09Z" transform="translate(0 0)" style="fill:#154734"/><path d="M443.07,105V98.7h-7.41V86.85H428.1V98.7H423V105h5.1v25.37c0,5.41,2.62,8.35,7.87,8.35h6.56v-6.26h-4.17c-2,0-2.7-.85-2.7-3.17V105Z" transform="translate(0 0)" style="fill:#154734"/><path d="M486.27,122.75v-8.12c0-6.42-.62-10.13-3.24-13-2.17-2.4-5.64-3.56-9.89-3.56s-7.71,1.16-9.95,3.56c-2.55,2.86-3.17,6.57-3.17,13v8.12c0,6.42.62,10.13,3.17,13,2.24,2.4,5.71,3.56,9.95,3.56s7.72-1.16,9.89-3.56c2.62-2.86,3.24-6.57,3.24-13m-7.57.31c0,5-.38,6.81-1.54,8.28a4.94,4.94,0,0,1-4,1.78,5.09,5.09,0,0,1-4.09-1.78c-1.16-1.47-1.46-3.25-1.46-8.28v-8.74c0-5,.3-6.8,1.46-8.27a5.06,5.06,0,0,1,4.09-1.78,4.91,4.91,0,0,1,4,1.78c1.16,1.47,1.54,3.24,1.54,8.27Z" transform="translate(0 0)" style="fill:#154734"/><path d="M514.56,101.25a10,10,0,0,0-7.72-3.17,11.31,11.31,0,0,0-8.65,3.94V98.7h-7v40h7.56v-27.3c0-2.7.77-4.33,1.86-5.26a5.52,5.52,0,0,1,3.85-1.39,4.76,4.76,0,0,1,3.86,1.63c.93,1.08,1.24,2.7,1.24,5.1v27.22h7.56V110.22c0-4.1-.85-7-2.54-9" transform="translate(0 0)" style="fill:#154734"/><rect x="354.73" y="98.7" width="7.57" height="39.99" style="fill:#154734"/><rect x="354.65" y="86.85" width="7.56" height="6.5" style="fill:#154734"/><rect x="447.09" y="98.7" width="7.57" height="39.99" style="fill:#154734"/><rect x="447.13" y="86.85" width="7.56" height="6.5" style="fill:#154734"/><path d="M554.75,53.9H544.1V52.59c0-4.88.31-6.73,1.39-8.12a4.73,4.73,0,0,1,3.94-1.86,4.6,4.6,0,0,1,3.93,1.86c1.09,1.39,1.39,3.24,1.39,8.12Zm-4.93-17.32c-4.32,0-7.57,1.31-9.65,3.48-2.63,2.78-3.24,6.57-3.24,13.3V61c0,6.73.61,10.52,3.24,13.3,2.08,2.17,5.33,3.48,9.72,3.48s7.57-1.31,9.65-3.48c2.24-2.32,3-5.34,3.09-10h-7.41c-.08,2.94-.46,4.33-1.31,5.49a5,5,0,0,1-4,1.78,4.94,4.94,0,0,1-4-1.78c-1.08-1.39-1.39-3.24-1.39-8.12V59.39h18.22v-6c0-6.73-.62-10.52-3.24-13.3-2.09-2.17-5.41-3.48-9.65-3.48" transform="translate(0 0)" style="fill:#154734"/><path d="M89.82,139.42c-6.36,0-11.15-1.94-14.23-5.77-3.38-4.24-4.06-10.28-4.06-18.65V91.27c0-8.15.69-14.43,4.06-18.55,3.06-3.9,7.77-5.88,14-5.88s10.87,2,14,5.88c2.94,3.71,4,8.54,4.06,18.3H98.25c0-7.27-.53-10.13-2.19-12.57-1.36-2-3.53-3.08-6.45-3.08s-5.2,1.07-6.55,3.09c-1.65,2.21-2.19,5-2.19,11.44v26.36c0,6.09.56,9,2.19,11.44,1.45,2.12,3.72,3.2,6.76,3.2s5.37-1,7-3.18,2-4.75,2-9.68v-9.28H90v-7.48h18v15c0,8.54-1.19,13.75-4,17.4-3.18,3.82-8,5.76-14.23,5.76" transform="translate(0 0)" style="fill:#144733"/><polygon points="137.83 138.59 137.83 109.86 121.19 109.86 121.19 138.59 111.84 138.59 111.84 67.68 121.19 67.68 121.19 101.22 137.83 101.22 137.83 67.68 147.18 67.68 147.18 138.59 137.83 138.59" style="fill:#144733"/><path d="M153.31,138.62v-6.11l9.86-13.94c6.46-9.15,8-11.87,8-17.69V99.43c0-4.36-1.74-6.56-5.19-6.56a4.51,4.51,0,0,0-4.19,2.07c-.77,1.32-.95,3-1,6h-8.43c.08-5.5.53-8.47,2.74-11.17,2.48-3.18,6.11-4.79,10.8-4.79,8.44,0,13.69,5.34,13.69,14v1.21c0,7.9-2.05,12-8.65,21.15l-7,9.82h16.29v7.46Z" transform="translate(0 0)" style="fill:#144733"/></svg>