<?xml version="1.0" encoding="utf-8"?>
<!-- Generator: Adobe Illustrator 25.4.1, SVG Export Plug-In . SVG Version: 6.00 Build 0)  -->
<svg version="1.1" id="Layer_1" xmlns="http://www.w3.org/2000/svg" xmlns:xlink="http://www.w3.org/1999/xlink" x="0px" y="0px"
	 viewBox="0 0 278.4 73.5" style="enable-background:new 0 0 278.4 73.5;" xml:space="preserve">
  <g fill="currentColor">
<path class="st0" d="M4.9,68.3h63.3V4.9H4.9V68.3z M73,73.2H0V0h73L73,73.2z"/>
<path class="st0" d="M243,27.2c0,2.4-1.5,3.4-3,3.4c-0.8,0.1-1.6-0.3-2.1-1c-0.4-0.7-0.6-1.7-0.6-3.3v-5.6c0-1.6,0.2-2.6,0.6-3.3
	c0.4-0.7,1.3-1.2,2.1-1.1c1.6,0,3,1,3,3.4V27.2z M243.5,13.1V15c-1.1-1.4-2.8-2.2-4.6-2.2c-1.6-0.1-3.2,0.6-4.2,1.9
	c-0.9,1.1-1.3,2.8-1.3,5.2v7c0,2.4,0.4,4.1,1.3,5.2c1,1.3,2.6,2,4.2,1.9c1.7,0,3.3-0.7,4.4-2v3.6c0,2.1-0.5,3.6-2.8,3.6h-1.3v3.3
	h1.7c4,0,6.3-1.9,6.3-6.7V13.1H243.5z"/>
<path class="st0" d="M86.7,22.4H90v3.3c0,1.8-0.2,2.8-0.7,3.6c-0.6,0.8-1.5,1.2-2.5,1.1c-0.9,0.1-1.9-0.4-2.4-1.1
	c-0.6-0.8-0.8-1.8-0.8-4.2V15c0-2.4,0.2-3.4,0.8-4.2c0.5-0.7,1.4-1.1,2.3-1.1c0.9-0.1,1.8,0.3,2.3,1.1c0.6,0.9,0.8,1.9,0.8,4.9h4
	c0-3.7-0.4-5.8-1.6-7.3c-1.2-1.5-3-2.3-5.5-2.3s-4.4,0.8-5.5,2.3c-1.3,1.6-1.6,3.8-1.6,7.2v9c0,3.4,0.3,5.6,1.6,7.2
	c1.2,1.4,3,2.3,5.6,2.3c2.6,0,4.4-0.8,5.6-2.3c1.2-1.4,1.6-3.6,1.6-6.8v-5.9h-7.3V22.4z"/>
<path class="st0" d="M100,15v-1.9h-3.6v20.7h3.9V20.1c0-2.6,1.3-3.8,3.6-3.8h1.9v-3.6h-1.3C102.7,12.7,101,13.6,100,15"/>
<path class="st0" d="M115.8,21.8h-5.5v-0.7c0-2.5,0.2-3.5,0.7-4.2c0.5-0.6,1.2-1,2-1c0.8,0,1.6,0.3,2,1c0.6,0.7,0.7,1.7,0.7,4.2
	V21.8z M113.1,12.8c-2.2,0-3.9,0.7-5,1.8c-1.4,1.4-1.7,3.4-1.7,6.9v4c0,3.5,0.3,5.4,1.7,6.9c1.1,1.1,2.8,1.8,5,1.8s3.9-0.7,5-1.8
	c1.2-1.2,1.6-2.8,1.6-5.2h-3.8c0,1.5-0.2,2.2-0.7,2.8c-0.5,0.6-1.3,0.9-2.1,0.9c-0.8,0-1.6-0.3-2.1-0.9c-0.6-0.7-0.7-1.7-0.7-4.2
	v-1.2h9.4v-3.1c0-3.5-0.3-5.4-1.7-6.9C117,13.5,115.3,12.8,113.1,12.8"/>
<path class="st0" d="M131.3,21.8h-5.5v-0.7c0-2.5,0.2-3.5,0.7-4.2c0.5-0.6,1.2-1,2-1c0.8,0,1.6,0.3,2,1c0.6,0.7,0.7,1.7,0.7,4.2
	V21.8z M128.5,12.8c-2.2,0-3.9,0.7-5,1.8c-1.4,1.4-1.7,3.4-1.7,6.9v4c0,3.5,0.3,5.4,1.7,6.9c1.1,1.1,2.8,1.8,5,1.8s3.9-0.7,5-1.8
	c1.2-1.2,1.6-2.8,1.6-5.2h-3.8c0,1.5-0.2,2.2-0.7,2.8c-0.5,0.6-1.3,0.9-2.1,0.9c-0.8,0-1.6-0.3-2.1-0.9c-0.6-0.7-0.7-1.7-0.7-4.2
	v-1.2h9.4v-3.1c0-3.5-0.3-5.4-1.7-6.9C132.5,13.5,130.8,12.8,128.5,12.8"/>
<path class="st0" d="M145.6,12.8c-1.7,0-3.4,0.7-4.5,2v-1.7h-3.6v20.7h3.9V19.7c0-1.4,0.4-2.2,1-2.7c0.5-0.5,1.3-0.7,2-0.7
	c0.8,0,1.5,0.3,2,0.8c0.5,0.6,0.6,1.4,0.6,2.6v14.1h3.9V19.1c0-2.1-0.4-3.6-1.3-4.7C148.6,13.3,147.1,12.7,145.6,12.8"/>
<polygon class="st0" points="169.8,6.4 169.8,18 163.9,18 163.9,6.4 159.9,6.4 159.9,33.8 163.9,33.8 163.9,21.7 169.8,21.7
	169.8,33.8 173.8,33.8 173.8,6.4 "/>
<path class="st0" d="M183.3,29.2h-0.2c-0.9-3.8-2.6-11.6-3.6-16h-4.2c1.8,7,4.5,17.1,6,22l-0.5,1.6c-0.5,1.7-1.1,2.2-3.1,2.2h-0.9
	v3.2h1.6c3.3,0,5.1-1.3,6.5-6.5c1.4-5.4,3.9-15.6,5.5-22.5h-4.1C185.5,17.6,184,25.4,183.3,29.2"/>
<path class="st0" d="M200.9,27.3c0,2.4-1.4,3.4-3,3.4c-0.8,0-1.6-0.4-2.1-1.1c-0.4-0.6-0.6-1.6-0.6-3.2v-5.9c0-1.6,0.2-2.5,0.6-3.2
	c0.4-0.7,1.2-1.1,2.1-1.1c1.6,0,3,1,3,3.4V27.3z M200.9,14.6c-1.1-1.2-2.6-1.8-4.2-1.8c-1.6-0.1-3.1,0.6-4.1,1.9
	c-0.8,1.1-1.3,2.8-1.3,5.1v7.3c0,2.3,0.4,4,1.3,5.1c1,1.3,2.5,2,4.1,1.9c1.7,0,3.4-0.7,4.5-2.1v1.8h3.7V4.9h-3.9V14.6z"/>
<path class="st0" d="M211.2,15v-1.9h-3.6v20.7h3.9V20.1c0-2.6,1.3-3.8,3.6-3.8h1.9v-3.6h-1.3C213.9,12.7,212.2,13.6,211.2,15"/>
<path class="st0" d="M227.2,25.7c0,2.6-0.2,3.5-0.8,4.3c-0.5,0.6-1.3,1-2.1,0.9c-0.8,0-1.6-0.3-2.1-0.9c-0.6-0.8-0.8-1.7-0.8-4.3
	v-4.5c0-2.6,0.2-3.5,0.8-4.3c0.5-0.6,1.3-0.9,2.1-0.9c0.8,0,1.6,0.3,2.1,0.9c0.6,0.7,0.8,1.7,0.8,4.2V25.7z M224.3,12.8
	c-2.2,0-4,0.6-5.2,1.8c-1.3,1.5-1.6,3.4-1.6,6.7v4.2c0,3.3,0.3,5.2,1.6,6.7c1.2,1.2,3,1.8,5.2,1.8s4-0.6,5.1-1.8
	c1.4-1.5,1.7-3.4,1.7-6.7v-4.2c0-3.3-0.3-5.2-1.7-6.7C228.3,13.4,226.5,12.8,224.3,12.8"/>
<path class="st0" d="M277.1,14.4c-1-1.1-2.5-1.7-4-1.6c-1.7,0-3.4,0.7-4.5,2v-1.7H265v20.7h3.9V19.7c0-1.4,0.4-2.2,1-2.7
	c0.5-0.5,1.3-0.7,2-0.7c0.8-0.1,1.5,0.2,2,0.8c0.5,0.6,0.6,1.4,0.6,2.6v14.1h3.9V19.1C278.4,17,278,15.5,277.1,14.4"/>
<path class="st0" d="M116.5,58.8c0,2.4-1.5,3.4-3,3.4c-0.8,0.1-1.6-0.3-2.1-1c-0.5-0.7-0.7-1.7-0.7-3.3v-5.6c0-1.6,0.2-2.6,0.7-3.3
	c0.4-0.7,1.3-1.2,2.1-1.1c1.6,0,3,1,3,3.4V58.8z M116.8,46.6c-1.1-1.4-2.8-2.2-4.6-2.2c-1.6-0.1-3.2,0.6-4.2,1.9
	c-0.8,1.1-1.3,2.9-1.3,5.2v7c0,2.4,0.4,4.1,1.3,5.2c1,1.3,2.6,2,4.2,1.9c1.7,0,3.3-0.7,4.4-2v2.8c0,2.1-0.6,3.6-2.9,3.6h-1.3v3.3
	h1.7c4,0,6.4-1.9,6.4-6.7v-22h-3.7V46.6z"/>
<path class="st0" d="M90.1,56.9c0,2.4-0.2,3.4-0.8,4.2c-0.6,0.7-1.5,1.1-2.4,1.1c-0.9,0.1-1.8-0.3-2.4-1.1c-0.6-0.8-0.8-1.8-0.8-4.2
	V46.8c0-2.4,0.2-3.4,0.8-4.2c0.6-0.7,1.5-1.1,2.4-1.1c0.9-0.1,1.8,0.4,2.4,1.1c0.6,0.8,0.8,1.8,0.8,4.2V56.9z M86.9,37.8
	c-2.6,0-4.4,0.9-5.6,2.4c-1.3,1.6-1.6,3.8-1.6,7.2v9c0,3.4,0.3,5.6,1.6,7.2c1.2,1.5,3.1,2.4,5.6,2.4s4.4-0.9,5.6-2.4
	c1.2-1.5,1.6-3.8,1.6-7.2v-9c0-3.4-0.4-5.6-1.6-7.2C91.3,38.7,89.4,37.8,86.9,37.8"/>
<path class="st0" d="M100.2,46.8v-1.9h-3.6v20.7h3.9V51.9c0-2.6,1.3-3.8,3.6-3.8h1.9v-3.6h-1.3C102.9,44.5,101.3,45.4,100.2,46.8"/>
<path class="st0" d="M132,59.6c0,2-1.3,3.1-2.9,3.1c-1.8,0-2.7-1.2-2.7-3.2v-0.4c0-1.2,0.2-1.9,0.7-2.4c0.4-0.5,1.2-0.7,2.3-0.7h2.6
	V59.6z M129.6,44.6c-3.6,0-5.8,1.8-6.7,5l3.5,0.9c0.4-1.4,1.4-2.5,2.9-2.5c0.8,0,1.5,0.3,2,0.8c0.5,0.6,0.6,1.5,0.6,2.8v1.6h-3.5
	c-1.9,0-3.3,0.4-4.3,1.3c-1,0.9-1.7,2.4-1.7,4.7v0.5c0,3.7,2,6.2,5.5,6.2c1.6,0,3.2-0.7,4.2-2v1.7h3.7V51.4c0-2.6-0.6-4.1-1.6-5.2
	C133.2,45.1,131.6,44.6,129.6,44.6"/>
<path class="st0" d="M146.7,44.6c-1.7,0-3.4,0.7-4.5,2v-1.7h-3.6v20.7h3.9V51.5c0-1.4,0.4-2.2,1-2.7c0.5-0.5,1.3-0.7,2-0.7
	c0.8,0,1.5,0.3,2,0.8c0.5,0.6,0.6,1.4,0.6,2.6v14.1h3.9V50.9c0-2.1-0.4-3.6-1.3-4.7C149.7,45.1,148.2,44.5,146.7,44.6"/>
<path class="st0" d="M167.7,65.9c3.8,0,6.4-2.2,6.4-5.9v-0.1c0-3.1-1.2-4.5-4.2-5.8l-1.8-0.9c-1.9-0.9-2.9-1.6-2.9-3.2V50
	c0-1.4,1-2.3,2.5-2.3c0.7,0,1.4,0.3,1.9,0.8c0.4,0.7,0.7,1.5,0.6,2.3h3.7c0-1.6-0.3-3.4-1.8-4.7c-1.3-1-2.9-1.5-4.5-1.5
	c-3.5,0-6.1,2-6.1,5.5v0.1c0,2.8,1.3,4.4,4.1,5.7l2,0.9c2.2,1,2.8,1.6,2.8,3.2v0.1c0.1,1.4-0.9,2.6-2.3,2.7c-0.1,0-0.2,0-0.3,0
	c-0.7,0-1.5-0.3-2-0.8c-0.5-0.7-0.8-1.5-0.7-2.4h-3.8c0,1.8,0.2,3.3,1.6,4.6C164,65.3,165.6,65.9,167.7,65.9"/>
<path class="st0" d="M189.2,65.6V51.4c0-2.6-0.6-4.1-1.6-5.2c-1.1-1.1-2.6-1.6-4.6-1.6c-3.6,0-5.8,1.8-6.7,5l3.5,0.9
	c0.4-1.4,1.4-2.5,2.9-2.5c0.8,0,1.5,0.3,2,0.8c0.5,0.6,0.6,1.5,0.6,2.8v1.6h-3.5c-1.9,0-3.3,0.4-4.3,1.3c-1,0.9-1.7,2.4-1.7,4.7v0.5
	c0,3.7,2,6.2,5.5,6.2c1.7,0,3.2-0.7,4.2-2v1.7L189.2,65.6z M185.3,59.6c0,2-1.3,3.1-2.9,3.1c-1.8,0-2.7-1.2-2.7-3.2v-0.4
	c0-1.2,0.2-1.9,0.7-2.4c0.4-0.5,1.2-0.7,2.3-0.7h2.6V59.6z"/>
<path class="st0" d="M200.7,48.2v-3.2h-3.8v-6.1h-3.9v6.1h-2.6v3.2h2.6v13.1c0,2.8,1.4,4.3,4.1,4.3h3.4v-3.2h-2.2
	c-1,0-1.4-0.4-1.4-1.6V48.2H200.7z"/>
<path class="st0" d="M223.1,57.4v-4.2c0-3.3-0.3-5.2-1.7-6.7c-1.1-1.2-2.9-1.8-5.1-1.8c-2.2,0-4,0.6-5.1,1.8
	c-1.3,1.5-1.6,3.4-1.6,6.7v4.2c0,3.3,0.3,5.2,1.6,6.7c1.2,1.2,3,1.8,5.1,1.8s4-0.6,5.1-1.8C222.7,62.6,223.1,60.7,223.1,57.4
	 M219.1,57.5c0,2.6-0.2,3.5-0.8,4.3c-0.5,0.6-1.3,0.9-2.1,0.9c-0.8,0-1.6-0.3-2.1-0.9c-0.6-0.8-0.8-1.7-0.8-4.3V53
	c0-2.6,0.2-3.5,0.8-4.3c0.5-0.6,1.3-1,2.1-0.9c0.8,0,1.6,0.3,2.1,0.9c0.6,0.8,0.8,1.7,0.8,4.3V57.5z"/>
<path class="st0" d="M237.7,46.2c-1-1.1-2.5-1.7-4-1.6c-1.7,0-3.4,0.7-4.5,2v-1.7h-3.6v20.7h3.9V51.5c0-1.4,0.4-2.2,1-2.7
	c0.5-0.5,1.3-0.7,2-0.7c0.8,0,1.5,0.3,2,0.8c0.5,0.6,0.6,1.4,0.6,2.6v14.1h3.9V50.9C239,48.8,238.6,47.3,237.7,46.2"/>
<rect x="155" y="44.9" class="st0" width="3.9" height="20.7"/>
<rect x="154.9" y="38.8" class="st0" width="3.9" height="3.4"/>
<rect x="202.8" y="44.9" class="st0" width="3.9" height="20.7"/>
<rect x="202.8" y="38.8" class="st0" width="3.9" height="3.4"/>
<path class="st0" d="M258.5,21.8H253v-0.7c0-2.5,0.2-3.5,0.7-4.2c0.5-0.6,1.2-1,2-1c0.8,0,1.6,0.3,2,1c0.6,0.7,0.7,1.7,0.7,4.2V21.8
	z M255.9,12.8c-2.2,0-3.9,0.7-5,1.8c-1.4,1.4-1.7,3.4-1.7,6.9v4c0,3.5,0.3,5.4,1.7,6.9c1.1,1.1,2.8,1.8,5,1.8c2.3,0,3.9-0.7,5-1.8
	c1.2-1.2,1.6-2.8,1.6-5.2h-3.8c0,1.5-0.2,2.2-0.7,2.8c-0.5,0.6-1.3,0.9-2.1,0.9c-0.8,0-1.6-0.3-2.1-0.9c-0.6-0.7-0.7-1.7-0.7-4.2
	v-1.2h9.4v-3.1c0-3.5-0.3-5.4-1.7-6.9C259.9,13.5,258.2,12.8,255.9,12.8"/>
<path class="st0" d="M17.9,66c-3.3,0-5.8-1-7.4-3c-1.7-2.2-2.1-5.3-2.1-9.6V41.1c0-4.2,0.4-7.5,2.1-9.6c1.6-2,4-3.1,7.3-3.1
	s5.6,1,7.2,3c1.5,1.9,2.1,4.4,2.1,9.5h-4.9c0-3.8-0.3-5.2-1.1-6.5c-0.7-1-1.8-1.6-3.3-1.6s-2.7,0.6-3.4,1.6
	c-0.9,1.1-1.1,2.6-1.1,5.9V54c0,3.1,0.3,4.7,1.1,5.9c0.8,1.1,1.9,1.6,3.5,1.6s2.8-0.5,3.6-1.6s1-2.5,1-5v-4.8H18v-3.9h9.3V54
	c0,4.4-0.6,7.1-2.1,9C23.6,65,21.1,66,17.9,66"/>
<polygon class="st0" points="42.7,65.5 42.7,50.7 34.1,50.7 34.1,65.5 29.3,65.5 29.3,28.9 34.1,28.9 34.1,46.2 42.7,46.2
	42.7,28.9 47.6,28.9 47.6,65.5 "/>
<path class="st0" d="M50.7,65.6v-3.2l5.1-7.2c3.3-4.7,4.1-6.1,4.1-9.1v-0.7c0-2.3-0.9-3.4-2.7-3.4c-0.9-0.1-1.7,0.3-2.2,1.1
	c-0.4,0.7-0.5,1.6-0.5,3.1h-4.4c0-2.8,0.3-4.4,1.4-5.8c1.3-1.6,3.2-2.5,5.6-2.5c4.4,0,7.1,2.8,7.1,7.2v0.6c0,4.1-1.1,6.2-4.5,10.9
	l-3.6,5.1h8.4v3.9L50.7,65.6z"/>
  </g>
</svg>
