<svg xmlns="http://www.w3.org/2000/svg" width="18" height="18" viewBox="0 0 18 18">
    <g fill="none" fill-rule="evenodd">
        <g fill="currentColor">
            <path d="M128.123 14c3.934 0 7.123 3.189 7.123 7.123 0 1.6-.528 3.076-1.418 4.266l4.886 4.886c.39.39.39 1.024 0 1.415l-.024.024c-.391.39-1.024.39-1.415 0l-4.886-4.886c-1.19.89-2.666 1.418-4.266 1.418-3.934 0-7.123-3.19-7.123-7.123 0-3.934 3.189-7.123 7.123-7.123zm0 1.9c-2.885 0-5.224 2.338-5.224 5.223s2.339 5.223 5.224 5.223c2.885 0 5.223-2.338 5.223-5.223s-2.338-5.224-5.223-5.224z" transform="translate(-121.000000, -14.000000)"/>
        </g>
    </g>
</svg>
