<svg xmlns="http://www.w3.org/2000/svg" width="19" height="14" viewBox="0 0 19 14">
    <g fill="none" fill-rule="evenodd">
        <g fill="currentColor" fill-rule="nonzero">
            <path d="M344.118 25.726c1.778-1.931 2.707-4.447 2.707-6.783 0-.153 0-.305-.01-.457.722-.5 1.346-1.12 1.842-1.83-.674.286-1.39.473-2.121.556.77-.442 1.348-1.137 1.623-1.956-.725.412-1.518.702-2.345.859-1.144-1.166-2.963-1.451-4.437-.696-1.473.755-2.234 2.362-1.856 3.92-2.97-.142-5.736-1.485-7.611-3.694-.98 1.616-.48 3.682 1.143 4.72-.588-.017-1.163-.169-1.676-.443v.045c0 1.683 1.24 3.133 2.963 3.466-.544.142-1.114.163-1.668.06.484 1.441 1.87 2.428 3.45 2.456-1.307.984-2.923 1.518-4.586 1.517-.294-.001-.587-.018-.88-.051 1.69 1.037 3.655 1.588 5.661 1.585 3.396.003 6.023-1.344 7.8-3.274z" transform="translate(-330.000000, -15.000000)"/>
        </g>
    </g>
</svg>
