<svg xmlns="http://www.w3.org/2000/svg" xmlns:xlink="http://www.w3.org/1999/xlink" width="19" height="13" viewBox="0 0 19 13">
  <g fill="none" fill-rule="evenodd">
    <g transform="translate(-411.000000, -15.000000) translate(411.656854, 15.000000)">
      <path fill="currentColor"
            d="M7.16 9.017V3.665l4.704 2.676-4.705 2.676zM17.623 1.98C17.417 1.2 16.807.587 16.032.38 14.63 0 9 0 9 0S3.371 0 1.968.379C1.193.587.583 1.2.376 1.98 0 3.393 0 6.34 0 6.34s0 2.949.376 4.362c.207.779.817 1.393 1.592 1.601 1.403.379 7.032.379 7.032.379s5.629 0 7.032-.379c.775-.208 1.385-.822 1.592-1.601C18 9.289 18 6.34 18 6.34s0-2.948-.376-4.36z"/>
    </g>
  </g>
</svg>
