<svg width="100" height="100" viewBox="0 0 100 100" fill="none" xmlns="http://www.w3.org/2000/svg">
<circle cx="50" cy="50" r="50" fill="#96AE41"/>
<path d="M51.32 64.4C47.36 64.4 45.76 61.8 45.68 55.76H49.56C49.56 59.6 50.04 60.76 51.32 60.76C52.64 60.76 53 59.64 53 56.56C53 52.64 52.32 51.36 50.16 51.36H49.16V47.72H49.88C51.72 47.72 52.68 46.6 52.68 43.32C52.68 40.72 52.28 39.64 51.24 39.64C50.08 39.64 49.72 40.72 49.68 43.72H45.84C45.96 38.16 47.8 36 51.32 36C55.12 36 56.8 38.4 56.8 43.32C56.8 46.24 55.88 48.24 53.8 49.24V49.36C56.2 50.36 57.2 52.64 57.2 56.28C57.2 61.8 55.36 64.4 51.32 64.4Z" fill="white"/>
</svg>
