<svg width="32" height="32" viewBox="0 0 32 32" fill="none" xmlns="http://www.w3.org/2000/svg">
<path d="M6.6665 11.0062C8.35421 11.2676 10.2369 11.7021 11.9998 12.3838M6.6665 16.3395C7.51916 16.4716 8.42157 16.6478 9.33317 16.8778M15.9998 8.07116V27.07M5.32561 4.01503C8.28344 4.34926 12.2573 5.24843 15.0889 7.2326C15.6331 7.61394 16.3665 7.61394 16.9107 7.2326C19.7423 5.24843 23.7162 4.34926 26.6741 4.01503C28.1379 3.84961 29.3332 5.07203 29.3332 6.58024V21.5999C29.3332 23.1081 28.1379 24.331 26.6741 24.4964C23.7162 24.8307 19.7423 25.7298 16.9107 27.714C16.3665 28.0953 15.6331 28.0953 15.0889 27.714C12.2573 25.7298 8.28344 24.8307 5.32561 24.4964C3.86173 24.331 2.6665 23.1081 2.6665 21.5999V6.58024C2.6665 5.07203 3.86173 3.84961 5.32561 4.01503Z" stroke="#353942" stroke-width="2" stroke-linecap="round"/>
</svg>
