<svg width="64" height="64" viewBox="0 0 64 64" fill="none" xmlns="http://www.w3.org/2000/svg">
<circle cx="32" cy="31.9998" r="32" fill="#96AE41" fill-opacity="0.1"/>
<path fill-rule="evenodd" clip-rule="evenodd" d="M19.4559 28.06L31.0141 22.8787C31.6453 22.5958 32.3554 22.5958 32.9865 22.8787L44.5447 28.06C45.0707 28.2957 45.3337 28.8145 45.3337 29.3332V37.3332C45.3337 37.8855 44.8859 38.3332 44.3337 38.3332C43.7814 38.3332 43.3337 37.8855 43.3337 37.3332V31.1493L32.9865 35.7876C32.3554 36.0706 31.6453 36.0706 31.0141 35.7876L19.4559 30.6064C18.404 30.1348 18.404 28.5315 19.4559 28.06ZM24.0003 38.3332V34.8353L30.196 37.6127C31.3476 38.1289 32.653 38.1289 33.8046 37.6127L40.0003 34.8353V38.3332C40.0003 39.99 38.6572 41.3332 37.0003 41.3332H27.0003C25.3435 41.3332 24.0003 39.99 24.0003 38.3332Z" fill="#96AE41"/>
</svg>
