<svg width="64" height="64" viewBox="0 0 64 64" fill="none" xmlns="http://www.w3.org/2000/svg">
<circle cx="32" cy="32" r="32" fill="#96AE41" fill-opacity="0.1"/>
<path fill-rule="evenodd" clip-rule="evenodd" d="M42.6663 23.9998V35.9998C42.6663 38.209 40.8755 39.9998 38.6663 39.9998H37.376C37.7752 39.1965 37.9997 38.2911 37.9997 37.3332C37.9997 34.0195 35.3134 31.3332 31.9997 31.3332C28.686 31.3332 25.9997 34.0195 25.9997 37.3332C25.9997 38.2911 26.2241 39.1965 26.6234 39.9998H25.333C23.1239 39.9998 21.333 38.209 21.333 35.9998V23.9998C21.333 21.0543 23.7208 18.6665 26.6663 18.6665H37.333C40.2785 18.6665 42.6663 21.0543 42.6663 23.9998ZM25.9163 23.9998C25.9163 23.5856 26.2521 23.2498 26.6663 23.2498H37.333C37.7472 23.2498 38.083 23.5856 38.083 23.9998C38.083 24.4141 37.7472 24.7498 37.333 24.7498H26.6663C26.2521 24.7498 25.9163 24.4141 25.9163 23.9998ZM26.6663 27.2498C26.2521 27.2498 25.9163 27.5856 25.9163 27.9998C25.9163 28.4141 26.2521 28.7498 26.6663 28.7498H31.9997C32.4139 28.7498 32.7497 28.4141 32.7497 27.9998C32.7497 27.5856 32.4139 27.2498 31.9997 27.2498H26.6663ZM34.6663 40.3146C35.4847 39.5822 35.9997 38.5178 35.9997 37.3332C35.9997 35.124 34.2088 33.3332 31.9997 33.3332C29.7905 33.3332 27.9997 35.124 27.9997 37.3332C27.9997 38.5178 28.5147 39.5822 29.333 40.3146V45.3332L31.9997 43.9998L34.6663 45.3332V40.3146Z" fill="#96AE41"/>
</svg>
