<svg width="64" height="64" viewBox="0 0 64 64" fill="none" xmlns="http://www.w3.org/2000/svg">
<circle cx="32" cy="31.9998" r="32" fill="#96AE41" fill-opacity="0.1"/>
<path fill-rule="evenodd" clip-rule="evenodd" d="M39.3332 45.5368C41.8054 45.5368 43.2165 42.7145 41.7332 40.7368L36.6832 34.0035C35.8832 32.9368 35.8832 31.4701 36.6832 30.4035L41.7332 23.6701C43.2165 21.6924 41.8054 18.8701 39.3333 18.8701L24.6666 18.8701C22.1944 18.8701 20.7833 21.6924 22.2666 23.6701L27.3166 30.4035C28.1166 31.4701 28.1166 32.9368 27.3166 34.0035L22.2666 40.7368C20.7833 42.7145 22.1944 45.5368 24.6666 45.5368L39.3332 45.5368ZM31.219 28.5607C31.6194 29.0611 32.3805 29.0611 32.7808 28.5607L36.0335 24.4948C36.5573 23.8401 36.0911 22.8701 35.2526 22.8701L28.7472 22.8701C27.9087 22.8701 27.4425 23.84 27.9663 24.4948L31.219 28.5607Z" fill="#96AE41"/>
</svg>
