<svg width="28" height="27" viewBox="0 0 28 27" fill="none" xmlns="http://www.w3.org/2000/svg">
<path fill-rule="evenodd" clip-rule="evenodd" d="M27.3337 13.5C27.3337 20.8638 21.3641 26.8334 14.0003 26.8334C6.63653 26.8334 0.666992 20.8638 0.666992 13.5C0.666992 6.13622 6.63653 0.166687 14.0003 0.166687C21.3641 0.166687 27.3337 6.13622 27.3337 13.5ZM18.4787 17.9783C18.0882 18.3688 17.455 18.3688 17.0645 17.9783L14.0003 14.9142L10.9362 17.9783C10.5457 18.3688 9.9125 18.3688 9.52198 17.9783C9.13145 17.5878 9.13145 16.9546 9.52198 16.5641L12.5861 13.4999L9.522 10.4358C9.13147 10.0453 9.13147 9.41212 9.522 9.0216C9.91252 8.63107 10.5457 8.63107 10.9362 9.0216L14.0003 12.0857L17.0645 9.02161C17.455 8.63109 18.0881 8.63109 18.4787 9.02161C18.8692 9.41214 18.8692 10.0453 18.4787 10.4358L15.4146 13.4999L18.4787 16.5641C18.8692 16.9546 18.8692 17.5878 18.4787 17.9783Z" fill="#757B7B"/>
</svg>
