<svg width="48" height="48" viewBox="0 0 48 48" fill="none" xmlns="http://www.w3.org/2000/svg">
<circle cx="24" cy="24" r="24" fill="#1C5B90" fill-opacity="0.05"/>
<path fill-rule="evenodd" clip-rule="evenodd" d="M20.75 14C20.75 13.5858 20.4142 13.25 20 13.25C19.5858 13.25 19.25 13.5858 19.25 14V15.5H19C16.7909 15.5 15 17.2909 15 19.5V20.25H33V19.5C33 17.2909 31.2091 15.5 29 15.5H28.75V14C28.75 13.5858 28.4142 13.25 28 13.25C27.5858 13.25 27.25 13.5858 27.25 14V15.5H20.75V14ZM15 21.75H33V30C33 32.2091 31.2091 34 29 34H19C16.7909 34 15 32.2091 15 30V21.75ZM24 28C24.5523 28 25 27.5523 25 27C25 26.4477 24.5523 26 24 26C23.4477 26 23 26.4477 23 27C23 27.5523 23.4477 28 24 28ZM29 27C29 27.5523 28.5523 28 28 28C27.4477 28 27 27.5523 27 27C27 26.4477 27.4477 26 28 26C28.5523 26 29 26.4477 29 27ZM20 28C20.5523 28 21 27.5523 21 27C21 26.4477 20.5523 26 20 26C19.4477 26 19 26.4477 19 27C19 27.5523 19.4477 28 20 28Z" fill="#1C5B90"/>
</svg>
