<svg width="48" height="49" viewBox="0 0 48 49" fill="none" xmlns="http://www.w3.org/2000/svg">
<circle cx="24" cy="24.5" r="24" fill="#96AE41"/>
<path d="M23.532 34.288C22.556 34.288 21.628 34.112 20.748 33.76C19.884 33.392 19.14 32.88 18.516 32.224C17.908 31.552 17.492 30.76 17.268 29.848L20.124 28.84C20.412 29.656 20.852 30.28 21.444 30.712C22.036 31.128 22.732 31.336 23.532 31.336C24.172 31.336 24.724 31.216 25.188 30.976C25.668 30.736 26.044 30.392 26.316 29.944C26.588 29.48 26.724 28.936 26.724 28.312C26.724 27.688 26.588 27.16 26.316 26.728C26.06 26.28 25.692 25.936 25.212 25.696C24.732 25.456 24.164 25.336 23.508 25.336C23.204 25.336 22.884 25.368 22.548 25.432C22.228 25.496 21.94 25.592 21.684 25.72L20.94 24.16L25.572 18.88H18.276V16.12H29.244V18.688L24.588 24.136L24.636 22.912C25.708 22.928 26.644 23.16 27.444 23.608C28.244 24.056 28.868 24.672 29.316 25.456C29.764 26.24 29.988 27.16 29.988 28.216C29.988 29.368 29.708 30.408 29.148 31.336C28.588 32.248 27.82 32.968 26.844 33.496C25.868 34.024 24.764 34.288 23.532 34.288Z" fill="white"/>
</svg>
