<svg width="44" height="46" viewBox="0 0 44 46" fill="none" xmlns="http://www.w3.org/2000/svg">
<path d="M42.6998 33.7334V36.0334C42.6986 36.4397 42.5367 36.829 42.2494 37.1163C41.9621 37.4036 41.5728 37.5655 41.1665 37.5667H2.83314C2.42685 37.5655 2.03754 37.4036 1.75025 37.1163C1.46295 36.829 1.30102 36.4397 1.2998 36.0334V33.7334H42.6998Z" fill="#9E9E9E"/>
<path d="M40.3995 33.7334V36.0334C40.3983 36.4397 40.2364 36.829 39.9491 37.1163C39.6618 37.4036 39.2725 37.5655 38.8662 37.5667H41.1662C41.5725 37.5655 41.9618 37.4036 42.2491 37.1163C42.5364 36.829 42.6983 36.4397 42.6995 36.0334V33.7334H40.3995Z" fill="#707070"/>
<path d="M42.6998 33.7333H1.2998L5.6468 12.719C5.71905 12.3741 5.9079 12.0646 6.18158 11.8425C6.45526 11.6205 6.79706 11.4996 7.14947 11.5H36.8501C37.2025 11.4996 37.5444 11.6205 37.818 11.8425C38.0917 12.0646 38.2806 12.3741 38.3528 12.719L42.6998 33.7333Z" fill="#3F51B5"/>
<path d="M38.3525 12.719C38.2802 12.3741 38.0914 12.0646 37.8177 11.8425C37.544 11.6205 37.2022 11.4996 36.8498 11.5H34.5498C34.9022 11.4996 35.244 11.6205 35.5177 11.8425C35.7914 12.0646 35.9802 12.3741 36.0525 12.719L40.3995 33.7333H42.6995L38.3525 12.719Z" fill="#283593"/>
<path d="M15.8665 40.6338H28.1331C28.9465 40.6338 29.7265 40.9569 30.3016 41.532C30.8767 42.1071 31.1998 42.8871 31.1998 43.7005V44.4671C31.1998 44.6705 31.119 44.8655 30.9753 45.0092C30.8315 45.153 30.6365 45.2338 30.4331 45.2338H13.5665C13.3631 45.2338 13.1681 45.153 13.0244 45.0092C12.8806 44.8655 12.7998 44.6705 12.7998 44.4671V43.7005C12.7998 42.8871 13.1229 42.1071 13.698 41.532C14.2731 40.9569 15.0531 40.6338 15.8665 40.6338Z" fill="#9E9E9E"/>
<path d="M28.1335 40.6331H25.8335C26.6469 40.6331 27.4269 40.9562 28.002 41.5313C28.5771 42.1064 28.9002 42.8864 28.9002 43.6997V44.4664C28.9002 44.6697 28.8194 44.8647 28.6756 45.0085C28.5319 45.1523 28.3369 45.2331 28.1335 45.2331H30.4335C30.6369 45.2331 30.8319 45.1523 30.9756 45.0085C31.1194 44.8647 31.2002 44.6697 31.2002 44.4664V43.6997C31.2002 42.8864 30.8771 42.1064 30.302 41.5313C29.7269 40.9562 28.9469 40.6331 28.1335 40.6331ZM19.7002 37.5664H24.3002V40.6331H19.7002V37.5664Z" fill="#707070"/>
<path d="M29.0223 11.4999C29.4484 10.5338 29.6678 9.4892 29.6663 8.43327C29.6663 4.19897 26.234 0.766602 21.9997 0.766602C17.7654 0.766602 14.333 4.19897 14.333 8.43327C14.3316 9.4892 14.551 10.5338 14.977 11.4999" fill="#FFDC00"/>
<path d="M21.9996 0.766602C21.6147 0.769668 21.2299 0.801868 20.8496 0.862435C22.6614 1.13731 24.3147 2.05202 25.5102 3.44086C26.7056 4.8297 27.3641 6.60079 27.3663 8.43327C27.3677 9.4892 27.1483 10.5338 26.7223 11.4999H29.0223C29.4483 10.5338 29.6677 9.4892 29.6663 8.43327C29.6663 4.19897 26.2339 0.766602 21.9996 0.766602Z" fill="#FEC108"/>
<path d="M4.89554 12.5672L0.549303 33.58C0.538756 33.6304 0.533362 33.6818 0.533203 33.7333L0.533203 36.0333C0.533203 36.6433 0.775524 37.2283 1.20686 37.6597C1.63819 38.091 2.22321 38.3333 2.8332 38.3333H18.9332V39.8667H15.8665C14.8502 39.8679 13.8759 40.2721 13.1573 40.9908C12.4387 41.7094 12.0344 42.6837 12.0332 43.7V44.4667C12.0332 44.8733 12.1948 45.2633 12.4823 45.5509C12.7699 45.8385 13.1599 46 13.5665 46H30.4332C30.8399 46 31.2299 45.8385 31.5174 45.5509C31.805 45.2633 31.9665 44.8733 31.9665 44.4667V43.7C31.9653 42.6837 31.5611 41.7094 30.8424 40.9908C30.1238 40.2721 29.1495 39.8679 28.1332 39.8667H25.0665V38.3333H41.1665C41.7765 38.3333 42.3615 38.091 42.7929 37.6597C43.2242 37.2283 43.4665 36.6433 43.4665 36.0333V33.7333C43.4664 33.6818 43.461 33.6304 43.4504 33.58L39.1034 12.5733C38.996 12.0549 38.7137 11.5892 38.3037 11.2542C37.8938 10.9192 37.3811 10.7353 36.8517 10.7333H30.1051C30.3213 9.98583 30.4317 9.2115 30.4332 8.43333C30.4332 3.77583 26.6574 0 21.9999 0C17.3424 0 13.5665 3.77583 13.5665 8.43333C13.5681 9.2115 13.6792 9.98583 13.8962 10.7333H7.14954C6.62067 10.7348 6.10831 10.9177 5.69807 11.2515C5.28783 11.5852 5.00454 12.0497 4.89554 12.5672ZM6.39744 12.8777C6.43276 12.7047 6.52674 12.5491 6.6635 12.4374C6.80025 12.3256 6.9714 12.2645 7.148 12.2644H15.7531L15.0132 17.631H5.4138L6.39744 12.8777ZM26.698 12.2667L27.4386 17.6333H16.5611L17.3017 12.2667H26.698ZM40.1699 25.3H30.0437L29.2004 19.1667H38.9033L40.1699 25.3ZM13.7444 26.8333L12.9011 32.9667H2.24134L3.51017 26.8333H13.7444ZM3.82987 25.3L5.0987 19.1667H14.8016L13.9583 25.3H3.82987ZM15.2946 26.8333H28.7113L29.5546 32.9667H14.4513L15.2946 26.8333ZM31.104 32.9667L30.2607 26.8333H40.4896L41.7584 32.9667H31.104ZM28.4974 25.3H15.5039L16.3472 19.1667H27.6502L28.4974 25.3ZM30.4332 43.7V44.4667H13.5665V43.7C13.5665 43.09 13.8089 42.505 14.2402 42.0737C14.6715 41.6423 15.2565 41.4 15.8665 41.4H28.1332C28.7432 41.4 29.3282 41.6423 29.7596 42.0737C30.1909 42.505 30.4332 43.09 30.4332 43.7ZM23.5332 39.8667H20.4665V38.3333H23.5332V39.8667ZM41.1665 36.8H2.8332C2.62987 36.8 2.43487 36.7192 2.29109 36.5754C2.14731 36.4317 2.06654 36.2367 2.06654 36.0333V34.5H41.9332V36.0333C41.9332 36.2367 41.8524 36.4317 41.7087 36.5754C41.5649 36.7192 41.3699 36.8 41.1665 36.8ZM37.6023 12.88L38.5859 17.6333H28.9865L28.2467 12.2667H36.8517C37.0283 12.2668 37.1995 12.3279 37.3362 12.4397C37.473 12.5514 37.567 12.707 37.6023 12.88ZM15.0999 8.43333C15.0999 6.60334 15.8268 4.8483 17.1208 3.5543C18.4148 2.2603 20.1699 1.53333 21.9999 1.53333C23.8299 1.53333 25.5849 2.2603 26.8789 3.5543C28.1729 4.8483 28.8999 6.60334 28.8999 8.43333C28.8991 9.21758 28.7624 9.99576 28.4958 10.7333H15.5039C15.2374 9.99576 15.1007 9.21758 15.0999 8.43333Z" fill="black"/>
<path d="M8.9668 8.43379C8.9668 8.63713 9.04757 8.83213 9.19135 8.97591C9.33513 9.11969 9.53013 9.20046 9.73346 9.20046H11.2668C11.4701 9.20046 11.6651 9.11969 11.8089 8.97591C11.9527 8.83213 12.0335 8.63713 12.0335 8.43379C12.0335 8.23046 11.9527 8.03546 11.8089 7.89168C11.6651 7.7479 11.4701 7.66713 11.2668 7.66713H9.73346C9.53013 7.66713 9.33513 7.7479 9.19135 7.89168C9.04757 8.03546 8.9668 8.23046 8.9668 8.43379ZM12.321 3.73106C12.4082 3.78219 12.5047 3.81557 12.6048 3.82927C12.705 3.84297 12.8069 3.83671 12.9047 3.81087C13.0024 3.78503 13.0941 3.7401 13.1744 3.67869C13.2547 3.61727 13.3221 3.54057 13.3726 3.45301C13.4232 3.36545 13.4559 3.26875 13.469 3.16849C13.482 3.06822 13.4751 2.96637 13.4486 2.8688C13.4221 2.77122 13.3766 2.67985 13.3146 2.59994C13.2527 2.52003 13.1755 2.45317 13.0876 2.40319L11.7605 1.63653C11.6733 1.58539 11.5768 1.55201 11.4767 1.53832C11.3765 1.52462 11.2746 1.53087 11.1768 1.55672C11.0791 1.58256 10.9874 1.62748 10.9071 1.6889C10.8268 1.75032 10.7594 1.82701 10.7088 1.91458C10.6583 2.00214 10.6256 2.09883 10.6125 2.1991C10.5995 2.29936 10.6064 2.40121 10.6329 2.49879C10.6594 2.59637 10.7049 2.68774 10.7669 2.76765C10.8288 2.84755 10.906 2.91442 10.9939 2.96439L12.321 3.73106ZM32.2397 1.63653L30.9126 2.40319C30.8247 2.45317 30.7476 2.52003 30.6856 2.59994C30.6237 2.67985 30.5782 2.77122 30.5517 2.8688C30.5252 2.96637 30.5183 3.06822 30.5313 3.16849C30.5443 3.26875 30.5771 3.36545 30.6276 3.45301C30.6782 3.54057 30.7455 3.61727 30.8259 3.67869C30.9062 3.7401 30.9979 3.78503 31.0956 3.81087C31.1934 3.83671 31.2952 3.84297 31.3954 3.82927C31.4956 3.81557 31.5921 3.78219 31.6793 3.73106L33.0064 2.96439C33.0943 2.91442 33.1714 2.84755 33.2334 2.76765C33.2953 2.68774 33.3409 2.59637 33.3674 2.49879C33.3938 2.40121 33.4008 2.29936 33.3877 2.1991C33.3747 2.09883 33.342 2.00214 33.2914 1.91458C33.2409 1.82701 33.1735 1.75032 33.0932 1.6889C33.0129 1.62748 32.9212 1.58256 32.8234 1.55672C32.7257 1.53087 32.6238 1.52462 32.5236 1.53832C32.4234 1.55201 32.327 1.58539 32.2397 1.63653ZM31.9668 8.43379C31.9668 8.63713 32.0476 8.83213 32.1914 8.97591C32.3351 9.11969 32.5301 9.20046 32.7335 9.20046H34.2668C34.4701 9.20046 34.6651 9.11969 34.8089 8.97591C34.9527 8.83213 35.0335 8.63713 35.0335 8.43379C35.0335 8.23046 34.9527 8.03546 34.8089 7.89168C34.6651 7.7479 34.4701 7.66713 34.2668 7.66713H32.7335C32.5301 7.66713 32.3351 7.7479 32.1914 7.89168C32.0476 8.03546 31.9668 8.23046 31.9668 8.43379Z" fill="black"/>
</svg>
