<svg width="48" height="48" viewBox="0 0 48 48" fill="none" xmlns="http://www.w3.org/2000/svg">
<path d="M12.798 4H20.798C21.0102 4 21.2137 4.08429 21.3637 4.23431C21.5138 4.38434 21.598 4.58783 21.598 4.8V21.6H11.998V4.8C11.998 4.58783 12.0823 4.38434 12.2324 4.23431C12.3824 4.08429 12.5859 4 12.798 4ZM27.198 4H35.198C35.4102 4 35.6137 4.08429 35.7637 4.23431C35.9138 4.38434 35.998 4.58783 35.998 4.8V21.6H26.398V4.8C26.398 4.58783 26.4823 4.38434 26.6324 4.23431C26.7824 4.08429 26.9859 4 27.198 4Z" fill="#0377BC"/>
<path d="M11.1984 21.5996H36.7984C37.0106 21.5996 37.2141 21.6839 37.3641 21.8339C37.5142 21.984 37.5984 22.1874 37.5984 22.3996V34.3996C37.5984 34.824 37.4299 35.2309 37.1298 35.531C36.8298 35.831 36.4228 35.9996 35.9984 35.9996H11.9984C11.5741 35.9996 11.1671 35.831 10.8671 35.531C10.567 35.2309 10.3984 34.824 10.3984 34.3996V22.3996C10.3984 22.1874 10.4827 21.984 10.6328 21.8339C10.7828 21.6839 10.9863 21.5996 11.1984 21.5996Z" fill="#02A9F4"/>
<path d="M36.7977 21.5996H34.3977C34.6098 21.5996 34.8133 21.6839 34.9633 21.8339C35.1134 21.984 35.1977 22.1874 35.1977 22.3996V34.3996C35.1977 34.824 35.0291 35.2309 34.729 35.531C34.429 35.831 34.022 35.9996 33.5977 35.9996H35.9977C36.422 35.9996 36.829 35.831 37.129 35.531C37.4291 35.2309 37.5977 34.824 37.5977 34.3996V22.3996C37.5977 22.1874 37.5134 21.984 37.3633 21.8339C37.2133 21.6839 37.0098 21.5996 36.7977 21.5996Z" fill="#0377BC"/>
<path d="M17.7084 47.2H14.2876C13.883 47.2 13.4933 47.0467 13.1972 46.7709C12.901 46.4951 12.7204 46.1173 12.6916 45.7136L11.998 36H19.998L19.3044 45.7136C19.2757 46.1173 19.0951 46.4951 18.7989 46.7709C18.5028 47.0467 18.1131 47.2 17.7084 47.2Z" fill="#FFDC00"/>
<path d="M17.5982 36L16.9046 45.7136C16.8759 46.1173 16.6952 46.4951 16.3991 46.7709C16.1029 47.0467 15.7133 47.2 15.3086 47.2H17.7086C18.1133 47.2 18.5029 47.0467 18.7991 46.7709C19.0952 46.4951 19.2759 46.1173 19.3046 45.7136L19.9982 36H17.5982Z" fill="#FEC108"/>
<path d="M33.7084 47.2H30.2876C29.8823 47.201 29.4916 47.0481 29.1946 46.7722C28.8976 46.4963 28.7164 46.118 28.6876 45.7136L27.998 36H35.998L35.3044 45.7136C35.2757 46.1173 35.0951 46.4951 34.7989 46.7709C34.5028 47.0467 34.1131 47.2 33.7084 47.2Z" fill="#FFDC00"/>
<path d="M33.5983 36L32.9047 45.7136C32.8759 46.118 32.6947 46.4963 32.3977 46.7722C32.1007 47.0481 31.7101 47.201 31.3047 47.2H33.7047C34.1101 47.201 34.5007 47.0481 34.7977 46.7722C35.0947 46.4963 35.2759 46.118 35.3047 45.7136L35.9983 36H33.5983Z" fill="#FEC108"/>
<path d="M15.1986 0.799805H18.3986C18.823 0.799805 19.2299 0.968376 19.53 1.26843C19.8301 1.56849 19.9986 1.97546 19.9986 2.3998V3.9998H13.5986V2.3998C13.5986 1.97546 13.7672 1.56849 14.0673 1.26843C14.3673 0.968376 14.7743 0.799805 15.1986 0.799805ZM29.5986 0.799805H32.7986C33.223 0.799805 33.6299 0.968376 33.93 1.26843C34.2301 1.56849 34.3986 1.97546 34.3986 2.3998V3.9998H27.9986V2.3998C27.9986 1.97546 28.1672 1.56849 28.4673 1.26843C28.7673 0.968376 29.1743 0.799805 29.5986 0.799805ZM16.7986 11.9998C17.223 11.9998 17.6299 12.1684 17.93 12.4684C18.2301 12.7685 18.3986 13.1755 18.3986 13.5998V18.3998H15.1986V13.5998C15.1986 13.1755 15.3672 12.7685 15.6673 12.4684C15.9673 12.1684 16.3743 11.9998 16.7986 11.9998ZM31.1986 11.9998C31.623 11.9998 32.0299 12.1684 32.33 12.4684C32.6301 12.7685 32.7986 13.1755 32.7986 13.5998V18.3998H29.5986V13.5998C29.5986 13.1755 29.7672 12.7685 30.0673 12.4684C30.3673 12.1684 30.7743 11.9998 31.1986 11.9998Z" fill="#02A9F4"/>
<path d="M18.3977 0H15.1977C14.5611 0 13.9507 0.252856 13.5006 0.702944C13.0505 1.15303 12.7977 1.76348 12.7977 2.4V3.2C12.3733 3.2 11.9663 3.36857 11.6663 3.66863C11.3662 3.96869 11.1977 4.37565 11.1977 4.8V20.8C10.7733 20.8 10.3663 20.9686 10.0663 21.2686C9.76623 21.5687 9.59766 21.9757 9.59766 22.4V34.4C9.59932 34.9027 9.75915 35.3921 10.0545 35.7989C10.3499 36.2057 10.7658 36.5092 11.2433 36.6664L11.8937 45.7712C11.9388 46.3758 12.2103 46.9411 12.654 47.3543C13.0977 47.7675 13.681 47.9981 14.2873 48H17.7081C18.3143 47.9981 18.8976 47.7675 19.3413 47.3543C19.785 46.9411 20.0565 46.3758 20.1017 45.7712L20.7425 36.8H27.2529L27.8929 45.7712C27.938 46.3759 28.2096 46.9414 28.6535 47.3546C29.0974 47.7678 29.6808 47.9983 30.2873 48H33.7081C34.3143 47.9981 34.8976 47.7675 35.3413 47.3543C35.785 46.9411 36.0565 46.3758 36.1017 45.7712L36.7521 36.6664C37.2296 36.5093 37.6456 36.2058 37.941 35.799C38.2363 35.3922 38.3961 34.9027 38.3977 34.4V22.4C38.3977 21.9757 38.2291 21.5687 37.929 21.2686C37.629 20.9686 37.222 20.8 36.7977 20.8V4.8C36.7977 4.37565 36.6291 3.96869 36.329 3.66863C36.029 3.36857 35.622 3.2 35.1977 3.2V2.4C35.1977 1.76348 34.9448 1.15303 34.4947 0.702944C34.0446 0.252856 33.4342 0 32.7977 0L29.5977 0C28.9611 0 28.3507 0.252856 27.9006 0.702944C27.4505 1.15303 27.1977 1.76348 27.1977 2.4V3.2C26.7733 3.2 26.3663 3.36857 26.0663 3.66863C25.7662 3.96869 25.5977 4.37565 25.5977 4.8V20.8H22.3977V4.8C22.3977 4.37565 22.2291 3.96869 21.929 3.66863C21.629 3.36857 21.222 3.2 20.7977 3.2V2.4C20.7977 1.76348 20.5448 1.15303 20.0947 0.702944C19.6446 0.252856 19.0342 0 18.3977 0ZM18.5057 45.6568C18.4913 45.859 18.4007 46.0482 18.2522 46.1861C18.1037 46.3241 17.9083 46.4005 17.7057 46.4H14.2873C14.0846 46.4005 13.8892 46.3241 13.7407 46.1861C13.5922 46.0482 13.5016 45.859 13.4873 45.6568L12.8569 36.8H19.1385L18.5057 45.6568ZM34.5057 45.6568C34.4913 45.859 34.4007 46.0482 34.2522 46.1861C34.1037 46.3241 33.9083 46.4005 33.7057 46.4H30.2873C30.0846 46.4005 29.8892 46.3241 29.7407 46.1861C29.5922 46.0482 29.5016 45.859 29.4873 45.6568L28.8569 36.8H35.1385L34.5057 45.6568ZM36.7977 34.4C36.7977 34.6122 36.7134 34.8157 36.5633 34.9657C36.4133 35.1157 36.2098 35.2 35.9977 35.2H11.9977C11.7855 35.2 11.582 35.1157 11.432 34.9657C11.2819 34.8157 11.1977 34.6122 11.1977 34.4V22.4H36.7977V34.4ZM28.7977 2.4C28.7977 2.18783 28.8819 1.98434 29.032 1.83431C29.182 1.68429 29.3855 1.6 29.5977 1.6H32.7977C33.0098 1.6 33.2133 1.68429 33.3633 1.83431C33.5134 1.98434 33.5977 2.18783 33.5977 2.4V3.2H28.7977V2.4ZM27.1977 4.8H35.1977V20.8H27.1977V4.8ZM12.7977 20.8V4.8H20.7977V20.8H12.7977ZM14.3977 3.2V2.4C14.3977 2.18783 14.4819 1.98434 14.632 1.83431C14.782 1.68429 14.9855 1.6 15.1977 1.6H18.3977C18.6098 1.6 18.8133 1.68429 18.9633 1.83431C19.1134 1.98434 19.1977 2.18783 19.1977 2.4V3.2H14.3977Z" fill="black"/>
<path d="M16.7984 11.2002C16.1619 11.2002 15.5515 11.4531 15.1014 11.9031C14.6513 12.3532 14.3984 12.9637 14.3984 13.6002V18.4002C14.3984 18.6124 14.4827 18.8159 14.6328 18.9659C14.7828 19.1159 14.9863 19.2002 15.1984 19.2002H18.3984C18.6106 19.2002 18.8141 19.1159 18.9641 18.9659C19.1142 18.8159 19.1984 18.6124 19.1984 18.4002V13.6002C19.1984 12.9637 18.9456 12.3532 18.4955 11.9031C18.0454 11.4531 17.435 11.2002 16.7984 11.2002ZM17.5984 17.6002H15.9984V13.6002C15.9984 13.388 16.0827 13.1845 16.2328 13.0345C16.3828 12.8845 16.5863 12.8002 16.7984 12.8002C17.0106 12.8002 17.2141 12.8845 17.3641 13.0345C17.5142 13.1845 17.5984 13.388 17.5984 13.6002V17.6002ZM31.1984 11.2002C30.5619 11.2002 29.9515 11.4531 29.5014 11.9031C29.0513 12.3532 28.7984 12.9637 28.7984 13.6002V18.4002C28.7984 18.6124 28.8827 18.8159 29.0328 18.9659C29.1828 19.1159 29.3863 19.2002 29.5984 19.2002H32.7984C33.0106 19.2002 33.2141 19.1159 33.3641 18.9659C33.5142 18.8159 33.5984 18.6124 33.5984 18.4002V13.6002C33.5984 12.9637 33.3456 12.3532 32.8955 11.9031C32.4454 11.4531 31.835 11.2002 31.1984 11.2002ZM31.9984 17.6002H30.3984V13.6002C30.3984 13.388 30.4827 13.1845 30.6328 13.0345C30.7828 12.8845 30.9863 12.8002 31.1984 12.8002C31.4106 12.8002 31.6141 12.8845 31.7641 13.0345C31.9142 13.1845 31.9984 13.388 31.9984 13.6002V17.6002ZM30.3984 24.0002H17.5984C17.3863 24.0002 17.1828 24.0845 17.0328 24.2345C16.8827 24.3845 16.7984 24.588 16.7984 24.8002C16.7984 25.0124 16.8827 25.2159 17.0328 25.3659C17.1828 25.5159 17.3863 25.6002 17.5984 25.6002H30.3984C30.6106 25.6002 30.8141 25.5159 30.9641 25.3659C31.1142 25.2159 31.1984 25.0124 31.1984 24.8002C31.1984 24.588 31.1142 24.3845 30.9641 24.2345C30.8141 24.0845 30.6106 24.0002 30.3984 24.0002ZM27.9984 27.2002H19.9984C19.7863 27.2002 19.5828 27.2845 19.4328 27.4345C19.2827 27.5845 19.1984 27.788 19.1984 28.0002C19.1984 28.2124 19.2827 28.4159 19.4328 28.5659C19.5828 28.7159 19.7863 28.8002 19.9984 28.8002H27.9984C28.2106 28.8002 28.4141 28.7159 28.5641 28.5659C28.7142 28.4159 28.7984 28.2124 28.7984 28.0002C28.7984 27.788 28.7142 27.5845 28.5641 27.4345C28.4141 27.2845 28.2106 27.2002 27.9984 27.2002Z" fill="black"/>
</svg>
