<svg width="48" height="48" viewBox="0 0 48 48" fill="none" xmlns="http://www.w3.org/2000/svg">
<path d="M47.1996 16.7356V41.5996C47.1984 40.2349 46.6998 38.9175 45.797 37.894C44.8943 36.8705 43.6495 36.2112 42.2956 36.0396C42.1036 36.0172 41.9265 35.9249 41.7982 35.7803C41.6698 35.6357 41.5991 35.4489 41.5996 35.2556V12.0076C41.5985 11.8924 41.6223 11.7783 41.6693 11.6732C41.7163 11.568 41.7855 11.4743 41.8721 11.3983C41.9587 11.3223 42.0606 11.266 42.171 11.2331C42.2814 11.2001 42.3976 11.1915 42.5116 11.2076C43.8208 11.4253 45.0103 12.1003 45.8687 13.1125C46.7271 14.1246 47.1987 15.4084 47.1996 16.7356Z" fill="#4B5918"/>
<path d="M47.2 41.5998C47.2 42.3352 47.0551 43.0634 46.7737 43.7428C46.4923 44.4223 46.0798 45.0396 45.5598 45.5596C45.0398 46.0796 44.4224 46.4921 43.743 46.7735C43.0636 47.055 42.3354 47.1998 41.6 47.1998H6.39996C4.97019 47.2071 3.59179 46.6672 2.5473 45.6908C1.50281 44.7144 0.871348 43.3755 0.782351 41.9484C0.693354 40.5214 1.15356 39.1144 2.06865 38.0158C2.98373 36.9172 4.28437 36.2102 5.70396 36.0398C5.89601 36.0174 6.0731 35.9251 6.20146 35.7805C6.32982 35.6359 6.40048 35.4492 6.39996 35.2558V16.7998H41.6V35.2558C41.5992 35.6558 41.8984 35.9934 42.296 36.0398C43.6498 36.2115 44.8947 36.8708 45.7974 37.8942C46.7001 38.9177 47.1987 40.2351 47.2 41.5998Z" fill="#96AE41"/>
<path d="M42.2972 36.0398C42.1051 36.0174 41.928 35.9251 41.7997 35.7805C41.6713 35.6359 41.6007 35.4492 41.6012 35.2558V16.7998H39.2012V35.2558C39.2004 35.6558 39.4996 35.9934 39.8972 36.0398C41.3168 36.2102 42.6174 36.9172 43.5325 38.0158C44.4476 39.1144 44.9078 40.5214 44.8188 41.9484C44.7298 43.3755 44.0983 44.7144 43.0538 45.6908C42.0093 46.6672 40.6309 47.2071 39.2012 47.1998H41.6012C43.0309 47.2071 44.4093 46.6672 45.4538 45.6908C46.4983 44.7144 47.1298 43.3755 47.2188 41.9484C47.3078 40.5214 46.8476 39.1144 45.9325 38.0158C45.0174 36.9172 43.7168 36.2102 42.2972 36.0398Z" fill="#BCD26E"/>
<path d="M6.39981 12.0076V35.2556C6.40032 35.4489 6.32966 35.6357 6.2013 35.7803C6.07294 35.9249 5.89585 36.0172 5.70381 36.0396C4.34996 36.2112 3.10512 36.8705 2.20241 37.894C1.2997 38.9175 0.801032 40.2349 0.799805 41.5996V16.7356C0.800756 15.4084 1.27235 14.1246 2.13073 13.1125C2.9891 12.1003 4.17864 11.4253 5.48781 11.2076C5.60186 11.1915 5.71805 11.2001 5.82844 11.2331C5.93882 11.266 6.0408 11.3223 6.12739 11.3983C6.21399 11.4743 6.28316 11.568 6.33017 11.6732C6.37719 11.7783 6.40094 11.8924 6.39981 12.0076Z" fill="#4B5918"/>
<path d="M28.2409 35.9998H25.6529L26.5465 28.6398C26.5644 28.5231 26.5445 28.4036 26.4895 28.299C26.4345 28.1945 26.3474 28.1103 26.241 28.0589C26.1347 28.0075 26.0146 27.9916 25.8985 28.0135C25.7824 28.0354 25.6764 28.094 25.5961 28.1806L19.3513 35.0398C19.2762 35.12 19.2259 35.2201 19.2064 35.3282C19.1868 35.4363 19.1989 35.5477 19.2411 35.6491C19.2834 35.7504 19.354 35.8375 19.4445 35.8997C19.535 35.9619 19.6415 35.9967 19.7513 35.9998H22.3401L21.4473 43.3598C21.4279 43.4774 21.4471 43.5982 21.5021 43.7039C21.5571 43.8096 21.6449 43.8947 21.7523 43.9463C21.8597 43.998 21.981 44.0134 22.0979 43.9903C22.2149 43.9672 22.3212 43.9068 22.4009 43.8182L28.6409 36.9598C28.7159 36.8797 28.7662 36.7795 28.7858 36.6715C28.8053 36.5634 28.7932 36.452 28.751 36.3506C28.7088 36.2492 28.6382 36.1622 28.5477 36.1C28.4572 36.0378 28.3506 36.003 28.2409 35.9998Z" fill="#FFDC00"/>
<path d="M22.5933 17.6L13.4493 38.936C13.4075 39.0329 13.347 39.1205 13.2713 39.1939C13.1955 39.2673 13.106 39.325 13.0078 39.3637C12.9097 39.4023 12.8048 39.4212 12.6994 39.4192C12.5939 39.4172 12.4899 39.3944 12.3933 39.352C11.6138 39.0175 10.999 38.3873 10.684 37.5997C10.3689 36.8122 10.3795 35.9318 10.7133 35.152L18.2413 17.584C18.2941 17.5936 18.3477 17.5992 18.4013 17.6H22.5933Z" fill="#EDFCB8"/>
<path d="M30.3996 11.1997V16.7997C30.4004 16.9753 30.3426 17.1462 30.2354 17.2853C30.1282 17.4244 29.9776 17.5238 29.8076 17.5677C29.7407 17.5906 29.6703 17.6015 29.5996 17.5997H18.3996C18.1874 17.5997 17.984 17.5154 17.8339 17.3654C17.6839 17.2154 17.5996 17.0119 17.5996 16.7997V11.1997C17.5996 10.1389 18.021 9.12145 18.7712 8.3713C19.5213 7.62116 20.5387 7.19973 21.5996 7.19973V3.33573C21.5863 2.71237 21.8074 2.1067 22.2192 1.63856C22.6311 1.17043 23.2036 0.873928 23.8236 0.807732C24.1526 0.783541 24.483 0.827429 24.7943 0.936656C25.1056 1.04588 25.391 1.2181 25.6327 1.44257C25.8744 1.66703 26.0673 1.93891 26.1992 2.24124C26.3312 2.54357 26.3994 2.86986 26.3996 3.19973V7.19973C27.4605 7.19973 28.4779 7.62116 29.228 8.3713C29.9782 9.12145 30.3996 10.1389 30.3996 11.1997Z" fill="#EDFCB8"/>
<path d="M26.4001 7.19973V3.19973C26.3998 2.86986 26.3316 2.54357 26.1997 2.24124C26.0677 1.93891 25.8749 1.66703 25.6331 1.44257C25.3914 1.2181 25.106 1.04588 24.7947 0.936656C24.4835 0.827429 24.153 0.783541 23.8241 0.807732C23.4657 0.835732 23.1201 0.949332 22.8145 1.13973C22.9889 1.24053 23.1505 1.36373 23.2945 1.50373C23.7457 1.95253 24.0001 2.56293 24.0001 3.19973V7.19973C25.0609 7.19973 26.0783 7.62116 26.8285 8.3713C27.5786 9.12145 28.0001 10.1389 28.0001 11.1997V16.7997C28.0008 16.9753 27.9431 17.1462 27.8358 17.2853C27.7286 17.4244 27.5781 17.5238 27.4081 17.5677C27.3412 17.5906 27.2707 17.6015 27.2001 17.5997H29.6001C29.6707 17.6015 29.7412 17.5906 29.8081 17.5677C29.9781 17.5238 30.1286 17.4244 30.2358 17.2853C30.3431 17.1462 30.4008 16.9753 30.4001 16.7997V11.1997C30.4001 10.1389 29.9786 9.12145 29.2285 8.3713C28.4783 7.62116 27.4609 7.19973 26.4001 7.19973Z" fill="#BCD26E"/>
<path d="M35.6549 39.3519C35.5588 39.3937 35.4554 39.416 35.3506 39.4177C35.2459 39.4194 35.1418 39.4004 35.0444 39.3617C34.947 39.3231 34.8582 39.2656 34.7832 39.1925C34.7081 39.1194 34.6482 39.0322 34.6069 38.9359L25.4629 17.5999H29.5989C29.6696 17.6016 29.74 17.5908 29.8069 17.5679L37.3429 35.1519C37.5079 35.5385 37.5952 35.9538 37.5997 36.3741C37.6041 36.7945 37.5258 37.2116 37.369 37.6016C37.2123 37.9916 36.9802 38.3469 36.6861 38.6473C36.392 38.9476 36.0416 39.187 35.6549 39.3519Z" fill="#EDFCB8"/>
<path d="M37.3443 35.1519L29.8083 17.5679C29.7414 17.5908 29.671 17.6016 29.6003 17.5999H27.4219L34.9419 35.1519C35.1752 35.7016 35.2495 36.3057 35.1561 36.8956C35.0627 37.4854 34.8056 38.0371 34.4139 38.4879L34.6059 38.9359C34.6471 39.0322 34.7071 39.1194 34.7821 39.1925C34.8572 39.2656 34.946 39.3231 35.0434 39.3617C35.1408 39.4004 35.2449 39.4194 35.3496 39.4177C35.4544 39.416 35.5578 39.3937 35.6539 39.3519C36.0408 39.1872 36.3914 38.948 36.6858 38.6477C36.9801 38.3475 37.2125 37.9922 37.3694 37.6022C37.5264 37.2121 37.605 36.795 37.6007 36.3745C37.5964 35.9541 37.5092 35.5386 37.3443 35.1519Z" fill="#BCD26E"/>
<path d="M24.0004 14.3997C24.884 14.3997 25.6004 13.6834 25.6004 12.7997C25.6004 11.9161 24.884 11.1997 24.0004 11.1997C23.1167 11.1997 22.4004 11.9161 22.4004 12.7997C22.4004 13.6834 23.1167 14.3997 24.0004 14.3997Z" fill="#9E9E9E"/>
<path d="M42.6401 10.42C42.4155 10.3842 42.1858 10.3976 41.9669 10.4592C41.748 10.5208 41.545 10.6291 41.3721 10.7768C41.193 10.9278 41.049 11.116 40.9502 11.3284C40.8514 11.5408 40.8002 11.7721 40.8001 12.0064V16H33.6001C33.3879 16 33.1844 16.0843 33.0344 16.2343C32.8843 16.3843 32.8001 16.5878 32.8001 16.8C32.8001 17.0121 32.8843 17.2156 33.0344 17.3657C33.1844 17.5157 33.3879 17.6 33.6001 17.6H40.8001V35.2544C40.8001 36.0584 41.3985 36.7368 42.1961 36.8368C43.4085 36.9878 44.5178 37.5955 45.2977 38.536C46.0776 39.4765 46.4695 40.6791 46.3935 41.8985C46.3175 43.118 45.7794 44.2626 44.8887 45.099C43.998 45.9354 42.8219 46.4007 41.6001 46.4H6.40006C5.17823 46.4007 4.00211 45.9354 3.11144 45.099C2.22077 44.2626 1.68258 43.118 1.60658 41.8985C1.53058 40.6791 1.92249 39.4765 2.70242 38.536C3.48235 37.5955 4.5916 36.9878 5.80406 36.8368C6.18954 36.7883 6.54406 36.6007 6.80109 36.3094C7.05812 36.018 7.19999 35.6429 7.20006 35.2544V17.6H14.4001C14.6122 17.6 14.8157 17.5157 14.9657 17.3657C15.1158 17.2156 15.2001 17.0121 15.2001 16.8C15.2001 16.5878 15.1158 16.3843 14.9657 16.2343C14.8157 16.0843 14.6122 16 14.4001 16H7.20006V12.0064C7.20006 11.5328 6.99206 11.0832 6.63046 10.7768C6.45685 10.6294 6.25348 10.5212 6.03423 10.4596C5.81498 10.3981 5.58502 10.3845 5.36006 10.42C3.85989 10.6614 2.49537 11.431 1.51256 12.5898C0.529753 13.7487 -0.00665769 15.2205 6.23828e-05 16.74V41.6C0.00196807 43.2968 0.676864 44.9235 1.87668 46.1234C3.0765 47.3232 4.70326 47.9981 6.40006 48H41.6001C43.2969 47.9981 44.9236 47.3232 46.1234 46.1234C47.3233 44.9235 47.9982 43.2968 48.0001 41.6V16.7368C48.006 15.2179 47.4693 13.7468 46.4865 12.5886C45.5038 11.4304 44.1397 10.6614 42.6401 10.42ZM1.60006 16.7368C1.59403 15.6011 1.99365 14.5005 2.72698 13.6333C3.4603 12.7661 4.47915 12.1891 5.60006 12.0064V16.808L5.60806 35.2496C4.05737 35.4405 2.63094 36.1947 1.60006 37.3688V16.7368ZM46.4001 37.3688C45.3717 36.1966 43.9479 35.4439 42.4001 35.2544L42.3841 16.88C42.3912 16.8537 42.3965 16.827 42.4001 16.8C42.3964 16.773 42.3911 16.7463 42.3841 16.72V12C43.5081 12.1815 44.5303 12.7584 45.2666 13.6269C46.003 14.4953 46.4049 15.5982 46.4001 16.7368V37.3688Z" fill="black"/>
<path d="M22.9905 44.3565L29.2353 37.4949C29.6033 37.0909 29.6969 36.5077 29.4753 36.0085C29.3717 35.7672 29.1992 35.5618 28.9795 35.418C28.7599 35.2741 28.5027 35.1982 28.2401 35.1997H26.5553L27.3393 28.7373C27.3762 28.4487 27.32 28.1558 27.1788 27.9014C27.0376 27.647 26.8189 27.4443 26.5545 27.3229C26.2956 27.2038 26.0054 27.1707 25.7263 27.2282C25.4473 27.2858 25.1939 27.4311 25.0033 27.6429L18.7585 34.5045C18.5789 34.7024 18.4606 34.9483 18.418 35.2121C18.3754 35.4759 18.4103 35.7465 18.5185 35.9909C18.6221 36.232 18.7944 36.4372 19.0139 36.5811C19.2335 36.7249 19.4904 36.8009 19.7529 36.7997H21.4401L20.6561 43.2629C20.6184 43.5477 20.6724 43.837 20.8103 44.089C20.9482 44.341 21.1627 44.5426 21.4228 44.6644C21.683 44.7863 21.9751 44.8221 22.257 44.7668C22.5389 44.7114 22.7958 44.5677 22.9905 44.3565ZM20.2889 35.1997L25.6593 29.2989L24.8593 35.9037C24.8457 36.0159 24.8561 36.1297 24.8897 36.2377C24.9233 36.3456 24.9794 36.4452 25.0543 36.5298C25.1293 36.6145 25.2213 36.6823 25.3243 36.7288C25.4273 36.7753 25.539 36.7995 25.6521 36.7997H27.7049L22.3345 42.7005L23.1345 36.0957C23.148 35.9835 23.1377 35.8696 23.104 35.7617C23.0704 35.6538 23.0143 35.5542 22.9394 35.4696C22.8645 35.3849 22.7725 35.3171 22.6695 35.2706C22.5664 35.224 22.4547 35.1999 22.3417 35.1997H20.2889Z" fill="black"/>
<path d="M9.94044 37.8965C10.243 38.6539 10.7718 39.2996 11.4548 39.7453L10.4644 42.0877C10.3817 42.2831 10.38 42.5034 10.4596 42.7001C10.5393 42.8968 10.6938 43.0538 10.8892 43.1365C11.0846 43.2193 11.3049 43.221 11.5016 43.1414C11.6983 43.0617 11.8553 42.9072 11.938 42.7117L13.01 40.1741C13.2666 40.1284 13.508 40.0202 13.7128 39.8591C13.9177 39.6979 14.0796 39.4888 14.1844 39.2501L20.378 24.7997H23.2012V26.3997C23.2012 26.6119 23.2855 26.8154 23.4355 26.9654C23.5856 27.1155 23.7891 27.1997 24.0012 27.1997C24.2134 27.1997 24.4169 27.1155 24.5669 26.9654C24.717 26.8154 24.8012 26.6119 24.8012 26.3997V24.7997H27.6812L33.8756 39.2525C34.042 39.6445 34.3596 39.9525 34.7556 40.1077C34.8484 40.1429 34.9444 40.1693 35.042 40.1877L36.0572 42.6965C36.0961 42.7946 36.1541 42.884 36.2277 42.9596C36.3013 43.0352 36.3891 43.0955 36.4861 43.137C36.5831 43.1786 36.6874 43.2005 36.7929 43.2015C36.8984 43.2026 37.0031 43.1828 37.1009 43.1432C37.1987 43.1036 37.2877 43.0451 37.3628 42.971C37.4379 42.8969 37.4976 42.8086 37.5385 42.7113C37.5793 42.6141 37.6005 42.5096 37.6009 42.4041C37.6012 42.2986 37.5807 42.1941 37.5404 42.0965L36.5884 39.7421C37.3723 39.2289 37.9511 38.4567 38.224 37.5603C38.4968 36.664 38.4463 35.7003 38.0812 34.8373L30.8012 17.8485C31.058 17.5597 31.2004 17.1861 31.2012 16.7997V11.1997C31.1998 10.0657 30.7976 8.96868 30.0656 8.10249C29.3337 7.2363 28.3191 6.65672 27.2012 6.46614V3.19974C27.2012 2.75985 27.1105 2.32469 26.9347 1.92144C26.759 1.51819 26.5019 1.1555 26.1797 0.856034C25.8575 0.556566 25.477 0.326748 25.062 0.18093C24.647 0.0351116 24.2064 -0.0235739 23.7676 0.00853806C22.9455 0.0884773 22.1837 0.475203 21.634 1.09167C21.0842 1.70813 20.7869 2.50908 20.8012 3.33494V6.46614C19.6833 6.65672 18.6688 7.2363 17.9368 8.10249C17.2049 8.96868 16.8027 10.0657 16.8012 11.1997V16.7997C16.8012 17.2069 16.9588 17.5973 17.2388 17.8925L9.97804 34.8365C9.7697 35.3188 9.6591 35.8375 9.65264 36.3628C9.64619 36.888 9.74401 37.4093 9.94044 37.8965ZM24.8012 23.1997V21.5997C24.8012 21.3876 24.717 21.1841 24.5669 21.0341C24.4169 20.884 24.2134 20.7997 24.0012 20.7997C23.7891 20.7997 23.5856 20.884 23.4355 21.0341C23.2855 21.1841 23.2012 21.3876 23.2012 21.5997V23.1997H21.0636L23.1212 18.3997H24.9388L26.9956 23.1997H24.8012ZM35.3444 38.6205L26.678 18.3997H29.2956L36.61 35.4669C36.8583 36.0532 36.8646 36.7138 36.6275 37.3047C36.3903 37.8955 35.9291 38.3686 35.3444 38.6205ZM18.4012 11.1997C18.4012 10.351 18.7384 9.53711 19.3385 8.937C19.9386 8.33688 20.7525 7.99974 21.6012 7.99974C21.8134 7.99974 22.0169 7.91545 22.1669 7.76542C22.317 7.61539 22.4012 7.41191 22.4012 7.19974V3.33494C22.3909 2.91438 22.5366 2.50488 22.8101 2.18527C23.0836 1.86565 23.4657 1.65852 23.8828 1.60374C23.9212 1.59974 23.9588 1.59974 24.0012 1.59974C24.4256 1.59974 24.8325 1.76831 25.1326 2.06837C25.4327 2.36843 25.6012 2.77539 25.6012 3.19974V7.19974C25.6012 7.41191 25.6855 7.61539 25.8356 7.76542C25.9856 7.91545 26.1891 7.99974 26.4012 7.99974C27.2499 7.99974 28.0639 8.33688 28.664 8.937C29.2641 9.53711 29.6012 10.351 29.6012 11.1997V16.7997H18.4012V11.1997ZM11.4484 35.4669L18.762 18.3997H21.3804L12.7084 38.6165C12.1239 38.3657 11.6629 37.8931 11.4266 37.3025C11.1904 36.7119 11.1982 36.0517 11.4484 35.4669Z" fill="black"/>
<path d="M24.0006 10.3999C23.3641 10.3999 22.7536 10.6528 22.3035 11.1028C21.8534 11.5529 21.6006 12.1634 21.6006 12.7999C21.6006 13.4364 21.8534 14.0469 22.3035 14.497C22.7536 14.947 23.3641 15.1999 24.0006 15.1999C24.6371 15.1999 25.2476 14.947 25.6976 14.497C26.1477 14.0469 26.4006 13.4364 26.4006 12.7999C26.4006 12.1634 26.1477 11.5529 25.6976 11.1028C25.2476 10.6528 24.6371 10.3999 24.0006 10.3999ZM24.0006 13.5999C23.7884 13.5999 23.5849 13.5156 23.4349 13.3656C23.2849 13.2156 23.2006 13.0121 23.2006 12.7999C23.2006 12.5877 23.2849 12.3842 23.4349 12.2342C23.5849 12.0842 23.7884 11.9999 24.0006 11.9999C24.2128 11.9999 24.4162 12.0842 24.5663 12.2342C24.7163 12.3842 24.8006 12.5877 24.8006 12.7999C24.8006 13.0121 24.7163 13.2156 24.5663 13.3656C24.4162 13.5156 24.2128 13.5999 24.0006 13.5999Z" fill="black"/>
</svg>
