<svg width="27" height="26" viewBox="0 0 27 26" fill="none" xmlns="http://www.w3.org/2000/svg">
<path fill-rule="evenodd" clip-rule="evenodd" d="M17.6388 3.56714H9.24989C6.35424 3.56714 4.00684 5.91454 4.00684 8.81019V17.1991C4.00684 20.0947 6.35424 22.4421 9.24989 22.4421H17.6388C20.5344 22.4421 22.8818 20.0947 22.8818 17.1991V8.81019C22.8818 5.91454 20.5344 3.56714 17.6388 3.56714ZM21.0468 17.1991C21.041 19.0788 19.5185 20.6013 17.6388 20.6071H9.24989C7.3701 20.6013 5.84766 19.0788 5.84191 17.1991V8.81019C5.84766 6.9304 7.3701 5.40797 9.24989 5.40221H17.6388C19.5185 5.40797 21.041 6.9304 21.0468 8.81019V17.1991ZM18.4252 9.07235C19.0044 9.07235 19.4739 8.60286 19.4739 8.02374C19.4739 7.44461 19.0044 6.97512 18.4252 6.97512C17.8461 6.97512 17.3766 7.44461 17.3766 8.02374C17.3766 8.60286 17.8461 9.07235 18.4252 9.07235ZM13.4443 8.28589C10.8382 8.28589 8.72559 10.3985 8.72559 13.0046C8.72559 15.6108 10.8382 17.7234 13.4443 17.7234C16.0504 17.7234 18.1631 15.6108 18.1631 13.0046C18.1659 11.7523 17.6696 10.5504 16.7841 9.6649C15.8985 8.77935 14.6967 8.2831 13.4443 8.28589ZM10.5607 13.0046C10.5607 14.5973 11.8517 15.8883 13.4443 15.8883C15.037 15.8883 16.328 14.5973 16.328 13.0046C16.328 11.412 15.037 10.121 13.4443 10.121C11.8517 10.121 10.5607 11.412 10.5607 13.0046Z" fill="#353942"/>
</svg>
