<svg width="32" height="32" viewBox="0 0 32 32" fill="none" xmlns="http://www.w3.org/2000/svg">
<path d="M13.3337 8H21.3337M13.3337 18.6667H21.3337M13.3337 13.3333H29.3337M13.3337 24H29.3337M4.00033 13.3333H6.66699C7.40337 13.3333 8.00033 12.7364 8.00033 12V9.33333C8.00033 8.59695 7.40337 8 6.66699 8H4.00033C3.26395 8 2.66699 8.59695 2.66699 9.33333V12C2.66699 12.7364 3.26395 13.3333 4.00033 13.3333ZM4.00033 24H6.66699C7.40337 24 8.00033 23.403 8.00033 22.6667V20C8.00033 19.2636 7.40337 18.6667 6.66699 18.6667H4.00033C3.26395 18.6667 2.66699 19.2636 2.66699 20V22.6667C2.66699 23.403 3.26395 24 4.00033 24Z" stroke="white" stroke-width="1.5" stroke-linecap="round"/>
</svg>
