<svg width="33" height="32" viewBox="0 0 33 32" fill="none" xmlns="http://www.w3.org/2000/svg">
<path d="M8.93226 2.66699H14.2656C14.407 2.66699 14.5427 2.72318 14.6427 2.8232C14.7427 2.92322 14.7989 3.05888 14.7989 3.20033V14.4003H8.39893V3.20033C8.39893 3.05888 8.45512 2.92322 8.55514 2.8232C8.65515 2.72318 8.79081 2.66699 8.93226 2.66699ZM18.5323 2.66699H23.8656C24.007 2.66699 24.1427 2.72318 24.2427 2.8232C24.3427 2.92322 24.3989 3.05888 24.3989 3.20033V14.4003H17.9989V3.20033C17.9989 3.05888 18.0551 2.92322 18.1551 2.8232C18.2552 2.72318 18.3908 2.66699 18.5323 2.66699Z" fill="#0377BC"/>
<path d="M7.86585 14.4004H24.9325C25.074 14.4004 25.2096 14.4566 25.3096 14.5566C25.4097 14.6566 25.4659 14.7923 25.4659 14.9337V22.9337C25.4659 23.2166 25.3535 23.4879 25.1534 23.688C24.9534 23.888 24.6821 24.0004 24.3992 24.0004H8.39919C8.11629 24.0004 7.84498 23.888 7.64494 23.688C7.4449 23.4879 7.33252 23.2166 7.33252 22.9337V14.9337C7.33252 14.7923 7.38871 14.6566 7.48873 14.5566C7.58875 14.4566 7.7244 14.4004 7.86585 14.4004Z" fill="#02A9F4"/>
<path d="M24.9317 14.4004H23.3317C23.4731 14.4004 23.6088 14.4566 23.7088 14.5566C23.8088 14.6566 23.865 14.7923 23.865 14.9337V22.9337C23.865 23.2166 23.7526 23.4879 23.5526 23.688C23.3525 23.888 23.0812 24.0004 22.7983 24.0004H24.3983C24.6812 24.0004 24.9525 23.888 25.1526 23.688C25.3526 23.4879 25.465 23.2166 25.465 22.9337V14.9337C25.465 14.7923 25.4088 14.6566 25.3088 14.5566C25.2088 14.4566 25.0731 14.4004 24.9317 14.4004Z" fill="#0377BC"/>
<path d="M12.2059 31.4667H9.92533C9.65553 31.4667 9.39576 31.3644 9.19833 31.1806C9.0009 30.9967 8.88048 30.7448 8.86133 30.4757L8.39893 24H13.7323L13.2699 30.4757C13.2507 30.7448 13.1303 30.9967 12.9329 31.1806C12.7354 31.3644 12.4757 31.4667 12.2059 31.4667Z" fill="#FFDC00"/>
<path d="M12.1324 24L11.67 30.4757C11.6508 30.7448 11.5304 30.9967 11.333 31.1806C11.1355 31.3644 10.8757 31.4667 10.606 31.4667H12.206C12.4757 31.4667 12.7355 31.3644 12.933 31.1806C13.1304 30.9967 13.2508 30.7448 13.27 30.4757L13.7324 24H12.1324Z" fill="#FEC108"/>
<path d="M22.8719 31.4667H20.5913C20.3211 31.4673 20.0607 31.3654 19.8627 31.1815C19.6647 30.9975 19.5439 30.7453 19.5247 30.4757L19.0649 24H24.3983L23.9359 30.4757C23.9167 30.7448 23.7963 30.9967 23.5989 31.1806C23.4014 31.3644 23.1417 31.4667 22.8719 31.4667Z" fill="#FFDC00"/>
<path d="M22.7991 24L22.3367 30.4757C22.3175 30.7453 22.1967 30.9975 21.9987 31.1815C21.8007 31.3654 21.5403 31.4673 21.27 31.4667H22.87C23.1403 31.4673 23.4007 31.3654 23.5987 31.1815C23.7967 30.9975 23.9175 30.7453 23.9367 30.4757L24.3991 24H22.7991Z" fill="#FEC108"/>
<path d="M10.532 0.533203H12.6653C12.9482 0.533203 13.2195 0.645584 13.4196 0.845623C13.6196 1.04566 13.732 1.31697 13.732 1.59987V2.66654H9.46533V1.59987C9.46533 1.31697 9.57771 1.04566 9.77775 0.845623C9.97779 0.645584 10.2491 0.533203 10.532 0.533203ZM20.132 0.533203H22.2653C22.5482 0.533203 22.8195 0.645584 23.0196 0.845623C23.2196 1.04566 23.332 1.31697 23.332 1.59987V2.66654H19.0653V1.59987C19.0653 1.31697 19.1777 1.04566 19.3778 0.845623C19.5778 0.645584 19.8491 0.533203 20.132 0.533203ZM11.5987 7.99987C11.8816 7.99987 12.1529 8.11225 12.3529 8.31229C12.553 8.51233 12.6653 8.78364 12.6653 9.06654V12.2665H10.532V9.06654C10.532 8.78364 10.6444 8.51233 10.8444 8.31229C11.0445 8.11225 11.3158 7.99987 11.5987 7.99987ZM21.1987 7.99987C21.4816 7.99987 21.7529 8.11225 21.9529 8.31229C22.153 8.51233 22.2653 8.78364 22.2653 9.06654V12.2665H20.132V9.06654C20.132 8.78364 20.2444 8.51233 20.4444 8.31229C20.6445 8.11225 20.9158 7.99987 21.1987 7.99987Z" fill="#02A9F4"/>
<path d="M12.665 0H10.5317C10.1073 0 9.70036 0.168571 9.4003 0.468629C9.10024 0.768687 8.93167 1.17565 8.93167 1.6V2.13333C8.64878 2.13333 8.37746 2.24571 8.17743 2.44575C7.97739 2.64579 7.86501 2.9171 7.86501 3.2V13.8667C7.58211 13.8667 7.3108 13.979 7.11076 14.1791C6.91072 14.3791 6.79834 14.6504 6.79834 14.9333V22.9333C6.79945 23.2685 6.906 23.5948 7.10291 23.8659C7.29982 24.1371 7.57708 24.3395 7.89541 24.4443L8.32901 30.5141C8.35908 30.9172 8.5401 31.2941 8.83591 31.5695C9.13172 31.845 9.52055 31.9987 9.92474 32H12.2053C12.6095 31.9987 12.9983 31.845 13.2941 31.5695C13.5899 31.2941 13.7709 30.9172 13.801 30.5141L14.2282 24.5333H18.5685L18.9951 30.5141C19.0252 30.9173 19.2063 31.2943 19.5022 31.5697C19.7982 31.8452 20.1871 31.9988 20.5914 32H22.8719C23.2761 31.9987 23.665 31.845 23.9608 31.5695C24.2566 31.2941 24.4376 30.9172 24.4677 30.5141L24.9013 24.4443C25.2196 24.3395 25.497 24.1372 25.6939 23.866C25.8908 23.5948 25.9973 23.2685 25.9983 22.9333V14.9333C25.9983 14.6504 25.886 14.3791 25.6859 14.1791C25.4859 13.979 25.2146 13.8667 24.9317 13.8667V3.2C24.9317 2.9171 24.8193 2.64579 24.6193 2.44575C24.4192 2.24571 24.1479 2.13333 23.865 2.13333V1.6C23.865 1.17565 23.6964 0.768687 23.3964 0.468629C23.0963 0.168571 22.6894 0 22.265 0L20.1317 0C19.7073 0 19.3004 0.168571 19.0003 0.468629C18.7002 0.768687 18.5317 1.17565 18.5317 1.6V2.13333C18.2488 2.13333 17.9775 2.24571 17.7774 2.44575C17.5774 2.64579 17.465 2.9171 17.465 3.2V13.8667H15.3317V3.2C15.3317 2.9171 15.2193 2.64579 15.0193 2.44575C14.8192 2.24571 14.5479 2.13333 14.265 2.13333V1.6C14.265 1.17565 14.0964 0.768687 13.7964 0.468629C13.4963 0.168571 13.0894 0 12.665 0ZM12.737 30.4379C12.7274 30.5727 12.667 30.6988 12.568 30.7907C12.469 30.8827 12.3388 30.9337 12.2037 30.9333H9.92474C9.78961 30.9337 9.6594 30.8827 9.5604 30.7907C9.4614 30.6988 9.401 30.5727 9.39141 30.4379L8.97114 24.5333H13.1589L12.737 30.4379ZM23.4037 30.4379C23.3941 30.5727 23.3337 30.6988 23.2347 30.7907C23.1357 30.8827 23.0055 30.9337 22.8703 30.9333H20.5914C20.4563 30.9337 20.3261 30.8827 20.2271 30.7907C20.1281 30.6988 20.0677 30.5727 20.0581 30.4379L19.6378 24.5333H23.8255L23.4037 30.4379ZM24.9317 22.9333C24.9317 23.0748 24.8755 23.2104 24.7755 23.3105C24.6754 23.4105 24.5398 23.4667 24.3983 23.4667H8.39834C8.25689 23.4667 8.12124 23.4105 8.02122 23.3105C7.9212 23.2104 7.86501 23.0748 7.86501 22.9333V14.9333H24.9317V22.9333ZM19.5983 1.6C19.5983 1.45855 19.6545 1.3229 19.7545 1.22288C19.8546 1.12286 19.9902 1.06667 20.1317 1.06667H22.265C22.4065 1.06667 22.5421 1.12286 22.6421 1.22288C22.7422 1.3229 22.7983 1.45855 22.7983 1.6V2.13333H19.5983V1.6ZM18.5317 3.2H23.865V13.8667H18.5317V3.2ZM8.93167 13.8667V3.2H14.265V13.8667H8.93167ZM9.99834 2.13333V1.6C9.99834 1.45855 10.0545 1.3229 10.1545 1.22288C10.2546 1.12286 10.3902 1.06667 10.5317 1.06667H12.665C12.8065 1.06667 12.9421 1.12286 13.0421 1.22288C13.1421 1.3229 13.1983 1.45855 13.1983 1.6V2.13333H9.99834Z" fill="black"/>
<path d="M11.5983 7.4668C11.1739 7.4668 10.767 7.63537 10.4669 7.93543C10.1669 8.23548 9.99829 8.64245 9.99829 9.0668V12.2668C9.99829 12.4082 10.0545 12.5439 10.1545 12.6439C10.2545 12.7439 10.3902 12.8001 10.5316 12.8001H12.665C12.8064 12.8001 12.9421 12.7439 13.0421 12.6439C13.1421 12.5439 13.1983 12.4082 13.1983 12.2668V9.0668C13.1983 8.64245 13.0297 8.23548 12.7297 7.93543C12.4296 7.63537 12.0226 7.4668 11.5983 7.4668ZM12.1316 11.7335H11.065V9.0668C11.065 8.92535 11.1211 8.78969 11.2212 8.68967C11.3212 8.58965 11.4568 8.53346 11.5983 8.53346C11.7397 8.53346 11.8754 8.58965 11.9754 8.68967C12.0754 8.78969 12.1316 8.92535 12.1316 9.0668V11.7335ZM21.1983 7.4668C20.7739 7.4668 20.367 7.63537 20.0669 7.93543C19.7669 8.23548 19.5983 8.64245 19.5983 9.0668V12.2668C19.5983 12.4082 19.6545 12.5439 19.7545 12.6439C19.8545 12.7439 19.9902 12.8001 20.1316 12.8001H22.265C22.4064 12.8001 22.5421 12.7439 22.6421 12.6439C22.7421 12.5439 22.7983 12.4082 22.7983 12.2668V9.0668C22.7983 8.64245 22.6297 8.23548 22.3297 7.93543C22.0296 7.63537 21.6226 7.4668 21.1983 7.4668ZM21.7316 11.7335H20.665V9.0668C20.665 8.92535 20.7211 8.78969 20.8212 8.68967C20.9212 8.58965 21.0568 8.53346 21.1983 8.53346C21.3397 8.53346 21.4754 8.58965 21.5754 8.68967C21.6754 8.78969 21.7316 8.92535 21.7316 9.0668V11.7335ZM20.665 16.0001H12.1316C11.9902 16.0001 11.8545 16.0563 11.7545 16.1563C11.6545 16.2564 11.5983 16.392 11.5983 16.5335C11.5983 16.6749 11.6545 16.8106 11.7545 16.9106C11.8545 17.0106 11.9902 17.0668 12.1316 17.0668H20.665C20.8064 17.0668 20.9421 17.0106 21.0421 16.9106C21.1421 16.8106 21.1983 16.6749 21.1983 16.5335C21.1983 16.392 21.1421 16.2564 21.0421 16.1563C20.9421 16.0563 20.8064 16.0001 20.665 16.0001ZM19.065 18.1335H13.7316C13.5902 18.1335 13.4545 18.1897 13.3545 18.2897C13.2545 18.3897 13.1983 18.5253 13.1983 18.6668C13.1983 18.8082 13.2545 18.9439 13.3545 19.0439C13.4545 19.1439 13.5902 19.2001 13.7316 19.2001H19.065C19.2064 19.2001 19.3421 19.1439 19.4421 19.0439C19.5421 18.9439 19.5983 18.8082 19.5983 18.6668C19.5983 18.5253 19.5421 18.3897 19.4421 18.2897C19.3421 18.1897 19.2064 18.1335 19.065 18.1335Z" fill="black"/>
</svg>
