<svg width="21" height="20" viewBox="0 0 21 20" fill="none" xmlns="http://www.w3.org/2000/svg">
<path d="M10.5 5.04447V16.9187M4.66663 6.87887C5.72144 7.04222 6.89811 7.31381 7.99996 7.7399M4.66663 10.2122C5.19953 10.2947 5.76354 10.4049 6.33329 10.5486M3.82857 2.50939C5.67721 2.71829 8.1609 3.28027 9.93065 4.52037C10.2708 4.75871 10.7291 4.75871 11.0693 4.52037C12.839 3.28027 15.3227 2.71829 17.1714 2.50939C18.0863 2.40601 18.8333 3.17002 18.8333 4.11265V13.5C18.8333 14.4426 18.0863 15.2069 17.1714 15.3103C15.3227 15.5192 12.839 16.0811 11.0693 17.3212C10.7291 17.5596 10.2708 17.5596 9.93065 17.3212C8.1609 16.0811 5.67721 15.5192 3.82857 15.3103C2.91365 15.2069 2.16663 14.4426 2.16663 13.5V4.11265C2.16663 3.17002 2.91365 2.40601 3.82857 2.50939Z" stroke="white" stroke-width="1.5" stroke-linecap="round"/>
</svg>
