<svg width="26" height="26" viewBox="0 0 26 26" fill="none" xmlns="http://www.w3.org/2000/svg">
<path d="M22.7545 7.72001C22.635 7.27687 22.4016 6.87274 22.0774 6.54784C21.7533 6.22294 21.3497 5.98861 20.9068 5.86816C19.2647 5.41726 12.6951 5.40992 12.6951 5.40992C12.6951 5.40992 6.12663 5.40258 4.48346 5.83356C4.04086 5.95955 3.63809 6.19719 3.3138 6.52369C2.98951 6.85018 2.7546 7.25455 2.63161 7.69799C2.19853 9.34011 2.19434 12.746 2.19434 12.746C2.19434 12.746 2.19014 16.1687 2.62007 17.794C2.86125 18.6927 3.56907 19.4026 4.46878 19.6448C6.12768 20.0957 12.6794 20.1031 12.6794 20.1031C12.6794 20.1031 19.2489 20.1104 20.8911 19.6805C21.3341 19.5602 21.7381 19.3264 22.0631 19.0022C22.388 18.678 22.6227 18.2745 22.744 17.8318C23.1781 16.1907 23.1812 12.7859 23.1812 12.7859C23.1812 12.7859 23.2022 9.36214 22.7545 7.72001ZM10.5937 15.9013L10.599 9.60961L16.0591 12.7607L10.5937 15.9013Z" fill="#353942"/>
</svg>
