<svg width="64" height="64" viewBox="0 0 64 64" fill="none" xmlns="http://www.w3.org/2000/svg">
<circle cx="32" cy="32" r="32" fill="#EA4242"/>
<path fill-rule="evenodd" clip-rule="evenodd" d="M29.968 24.1659C30.8536 22.6114 33.1464 22.6114 34.032 24.1659L41.7041 37.6324C42.5649 39.1433 41.4445 41 39.6721 41H24.3279C22.5555 41 21.4351 39.1433 22.2959 37.6324L29.968 24.1659ZM32.9999 37C32.9999 37.5523 32.5522 38 31.9999 38C31.4477 38 30.9999 37.5523 30.9999 37C30.9999 36.4477 31.4477 36 31.9999 36C32.5522 36 32.9999 36.4477 32.9999 37ZM32.7499 29C32.7499 28.5858 32.4142 28.25 31.9999 28.25C31.5857 28.25 31.2499 28.5858 31.2499 29V34C31.2499 34.4142 31.5857 34.75 31.9999 34.75C32.4142 34.75 32.7499 34.4142 32.7499 34V29Z" fill="white"/>
</svg>
