<svg width="64" height="64" viewBox="0 0 64 64" fill="none" xmlns="http://www.w3.org/2000/svg">
<circle cx="32" cy="31.9998" r="32" fill="#96AE41" fill-opacity="0.1"/>
<path fill-rule="evenodd" clip-rule="evenodd" d="M20 22.6665C20 20.4574 21.7909 18.6665 24 18.6665H40C42.2091 18.6665 44 20.4574 44 22.6665V41.3332C44 43.5423 42.2091 45.3332 40 45.3332H24C21.7909 45.3332 20 43.5423 20 41.3332V22.6665ZM28.5833 26.6665C28.5833 24.7795 30.113 23.2498 32 23.2498C33.887 23.2498 35.4167 24.7795 35.4167 26.6665V29.3332V31.9998C35.4167 32.4141 35.0809 32.7498 34.6667 32.7498C34.2525 32.7498 33.9167 32.4141 33.9167 31.9998V30.0832H30.0833V31.9998C30.0833 32.4141 29.7475 32.7498 29.3333 32.7498C28.9191 32.7498 28.5833 32.4141 28.5833 31.9998V29.3332V26.6665ZM33.9167 28.5832V26.6665C33.9167 25.608 33.0585 24.7498 32 24.7498C30.9415 24.7498 30.0833 25.608 30.0833 26.6665V28.5832H33.9167ZM25.9167 35.9998C25.9167 35.5856 26.2525 35.2498 26.6667 35.2498H37.3333C37.7475 35.2498 38.0833 35.5856 38.0833 35.9998C38.0833 36.4141 37.7475 36.7498 37.3333 36.7498H26.6667C26.2525 36.7498 25.9167 36.4141 25.9167 35.9998ZM26.6667 39.2498C26.2525 39.2498 25.9167 39.5856 25.9167 39.9998C25.9167 40.4141 26.2525 40.7498 26.6667 40.7498H32C32.4142 40.7498 32.75 40.4141 32.75 39.9998C32.75 39.5856 32.4142 39.2498 32 39.2498H26.6667Z" fill="#96AE41"/>
</svg>
