<svg width="32" height="32" viewBox="0 0 32 32" fill="none" xmlns="http://www.w3.org/2000/svg">
<path d="M25.3332 16.0003V6.66699M25.3332 16.0003H6.6665M25.3332 16.0003C26.8059 16.0003 27.9998 17.1942 27.9998 18.667V21.3337C27.9998 22.8064 26.8059 24.0003 25.3332 24.0003H6.6665C5.19374 24.0003 3.99984 22.8064 3.99984 21.3337V18.667C3.99984 17.1942 5.19374 16.0003 6.6665 16.0003M6.6665 16.0003V6.66699M25.3332 6.66699C25.3332 4.45785 23.5423 2.66699 21.3332 2.66699H10.6665C8.45737 2.66699 6.6665 4.45785 6.6665 6.66699M25.3332 6.66699H26.6665C28.1393 6.66699 29.3332 7.8609 29.3332 9.33366V10.667M25.3332 6.66699H6.6665M6.6665 6.66699H5.33317C3.86041 6.66699 2.6665 7.8609 2.6665 9.33366V10.667M15.9998 6.66699V16.0003M9.33317 29.3337H11.9998C12.7362 29.3337 13.3332 28.7367 13.3332 28.0003V25.3337C13.3332 24.5973 12.7362 24.0003 11.9998 24.0003H9.33317C8.59679 24.0003 7.99984 24.5973 7.99984 25.3337V28.0003C7.99984 28.7367 8.59679 29.3337 9.33317 29.3337ZM19.9998 29.3337H22.6665C23.4029 29.3337 23.9998 28.7367 23.9998 28.0003V25.3337C23.9998 24.5973 23.4029 24.0003 22.6665 24.0003H19.9998C19.2635 24.0003 18.6665 24.5973 18.6665 25.3337V28.0003C18.6665 28.7367 19.2635 29.3337 19.9998 29.3337Z" stroke="#353942" stroke-width="2" stroke-linecap="round" stroke-linejoin="round"/>
</svg>
