<svg width="150" height="128" viewBox="0 0 150 128" fill="none" xmlns="http://www.w3.org/2000/svg">
<path d="M0 0.101562V49.6072V99.113H140.829V49.6072V0.101562H0Z" fill="#1C5B90"/>
<path d="M135.214 5.71655H5.61523V93.498H135.214V5.71655Z" fill="#F7EEE0"/>
<path d="M6.25388 14.6057C9.6803 14.6057 12.458 11.828 12.458 8.40159C12.458 4.97517 9.6803 2.19751 6.25388 2.19751C2.82746 2.19751 0.0498047 4.97517 0.0498047 8.40159C0.0498047 11.828 2.82746 14.6057 6.25388 14.6057Z" fill="#1C5B90"/>
<path d="M6.25388 97.0173C9.6803 97.0173 12.458 94.2396 12.458 90.8132C12.458 87.3868 9.6803 84.6091 6.25388 84.6091C2.82746 84.6091 0.0498047 87.3868 0.0498047 90.8132C0.0498047 94.2396 2.82746 97.0173 6.25388 97.0173Z" fill="#1C5B90"/>
<path d="M134.593 14.6054C138.019 14.6054 140.797 11.8278 140.797 8.40145C140.797 4.97511 138.019 2.19751 134.593 2.19751C131.166 2.19751 128.389 4.97511 128.389 8.40145C128.389 11.8278 131.166 14.6054 134.593 14.6054Z" fill="#1C5B90"/>
<path d="M134.593 97.017C138.019 97.017 140.797 94.2394 140.797 90.8131C140.797 87.3867 138.019 84.6091 134.593 84.6091C131.166 84.6091 128.389 87.3867 128.389 90.8131C128.389 94.2394 131.166 97.017 134.593 97.017Z" fill="#1C5B90"/>
<path d="M95.6476 23.8232H45.1797V26.9861H95.6476V23.8232Z" fill="#EA4242"/>
<path d="M121.714 35.9246H18.9902V39.0874H121.714V35.9246Z" fill="#1C5B90"/>
<path d="M121.714 48.0259H18.9902V51.1888H121.714V48.0259Z" fill="#1C5B90"/>
<path d="M121.714 60.127H18.9902V63.2898H121.714V60.127Z" fill="#1C5B90"/>
<path d="M64.5073 72.2285H28.4785V75.3914H64.5073V72.2285Z" fill="#1C5B90"/>
<path d="M135.015 94.0449L146.078 117.38L136.789 115.201L132.65 123.885L121.586 100.549L135.015 94.0449Z" fill="#B23434"/>
<path d="M113.427 94.6846L106.4 123.698L116.4 119.045L123.129 127.898L130.156 98.8843L113.427 94.6846Z" fill="#CD3636"/>
<path d="M149.415 82.2874C149.415 84.7745 146.564 86.7808 145.835 89.025C145.08 91.351 146.181 94.6446 144.772 96.5806C143.349 98.536 139.867 98.5001 137.911 99.9233C135.975 101.332 134.941 104.663 132.615 105.418C130.371 106.147 127.587 104.084 125.1 104.084C122.613 104.084 119.829 106.147 117.585 105.418C115.259 104.663 114.224 101.332 112.288 99.9233C110.333 98.5001 106.851 98.5361 105.428 96.5806C104.019 94.6446 105.12 91.351 104.364 89.025C103.636 86.7808 100.785 84.7744 100.785 82.2874C100.785 79.8002 103.636 77.7939 104.364 75.5497C105.12 73.2237 104.019 69.9301 105.428 67.9941C106.851 66.0387 110.333 66.0746 112.288 64.6514C114.224 63.2425 115.258 59.9118 117.584 59.1566C119.829 58.4279 122.613 60.4908 125.1 60.4908C127.587 60.4908 130.371 58.4279 132.615 59.1566C134.941 59.9118 135.975 63.2425 137.911 64.6514C139.867 66.0746 143.349 66.0386 144.772 67.9941C146.181 69.9301 145.08 73.2237 145.835 75.5497C146.564 77.7939 149.415 79.8002 149.415 82.2874Z" fill="#EA4242"/>
<path d="M125.1 99.803C134.773 99.803 142.615 91.9609 142.615 82.2872C142.615 72.6136 134.773 64.7715 125.1 64.7715C115.426 64.7715 107.584 72.6136 107.584 82.2872C107.584 91.9609 115.426 99.803 125.1 99.803Z" fill="#F7EEE0"/>
<path d="M125.1 95.8149C132.571 95.8149 138.628 89.7583 138.628 82.2871C138.628 74.8159 132.571 68.7593 125.1 68.7593C117.629 68.7593 111.572 74.8159 111.572 82.2871C111.572 89.7583 117.629 95.8149 125.1 95.8149Z" fill="#EA4242"/>
</svg>
