<svg width="64" height="64" viewBox="0 0 64 64" fill="none" xmlns="http://www.w3.org/2000/svg">
<circle cx="32" cy="32" r="32" fill="#FF9801"/>
<path fill-rule="evenodd" clip-rule="evenodd" d="M29.9215 22.5712C31.2077 21.8096 32.7923 21.8096 34.0785 22.5712L38.9215 25.4393C40.2077 26.201 41 27.6086 41 29.1319V34.8681C41 36.3914 40.2077 37.799 38.9215 38.5607L34.0785 41.4288C32.7923 42.1904 31.2077 42.1904 29.9215 41.4288L25.0785 38.5607C23.7923 37.799 23 36.3914 23 34.8681V29.1319C23 27.6086 23.7923 26.201 25.0785 25.4393L29.9215 22.5712ZM32 27.75C31.3096 27.75 30.75 28.3096 30.75 29C30.75 29.4142 30.4142 29.75 30 29.75C29.5858 29.75 29.25 29.4142 29.25 29C29.25 27.4812 30.4812 26.25 32 26.25C33.5188 26.25 34.75 27.4812 34.75 29C34.75 29.5463 34.5899 30.0576 34.3138 30.4866C34.1409 30.7554 33.9387 31.0119 33.7523 31.2436L33.6518 31.3683C33.4971 31.5597 33.3551 31.7354 33.2239 31.9158C32.9003 32.3605 32.75 32.6947 32.75 33V33.5C32.75 33.9142 32.4142 34.25 32 34.25C31.5858 34.25 31.25 33.9142 31.25 33.5V33C31.25 32.2007 31.6424 31.5398 32.011 31.0333C32.1667 30.8192 32.3373 30.6081 32.4925 30.4162L32.5836 30.3033C32.7688 30.0731 32.9265 29.8706 33.0524 29.6749C33.1774 29.4807 33.25 29.25 33.25 29C33.25 28.3096 32.6904 27.75 32 27.75ZM32.75 36C32.75 35.5858 32.4142 35.25 32 35.25C31.5858 35.25 31.25 35.5858 31.25 36V37C31.25 37.4142 31.5858 37.75 32 37.75C32.4142 37.75 32.75 37.4142 32.75 37V36Z" fill="white"/>
</svg>
