<svg width="100" height="100" viewBox="0 0 100 100" fill="none" xmlns="http://www.w3.org/2000/svg">
<circle cx="50" cy="50" r="50" fill="#96AE41" fill-opacity="0.1"/>
<path fill-rule="evenodd" clip-rule="evenodd" d="M33 32C31.3431 32 30 33.3431 30 35V38.5H36V35C36 33.3431 34.6569 32 33 32ZM30 41.5V61.3333C30 63.0643 30.5614 64.7486 31.6 66.1333L32.2 66.9333C32.6 67.4667 33.4 67.4667 33.8 66.9333L34.4 66.1333C35.4386 64.7486 36 63.0643 36 61.3333V41.5H30ZM42 62C42 58.6863 44.6863 56 48 56H70V62C70 65.3137 67.3137 68 64 68H48C44.6863 68 42 65.3137 42 62ZM64 32H48C44.6863 32 42 34.6863 42 38V55.2917C43.5923 53.8666 45.6949 53 48 53H70V38C70 34.6863 67.3137 32 64 32ZM50 36.5C49.1716 36.5 48.5 37.1716 48.5 38C48.5 38.8284 49.1716 39.5 50 39.5H62C62.8284 39.5 63.5 38.8284 63.5 38C63.5 37.1716 62.8284 36.5 62 36.5H50ZM48.5 46C48.5 45.1716 49.1716 44.5 50 44.5H56C56.8284 44.5 57.5 45.1716 57.5 46C57.5 46.8284 56.8284 47.5 56 47.5H50C49.1716 47.5 48.5 46.8284 48.5 46Z" fill="#96AE41"/>
</svg>
