<svg width="100" height="100" viewBox="0 0 100 100" fill="none" xmlns="http://www.w3.org/2000/svg">
<circle cx="50" cy="50" r="50" fill="#96AE41" fill-opacity="0.1"/>
<g clip-path="url(#clip0_1405_3202)">
<path d="M47.1875 34.4375H52.8125C53.5887 34.4375 54.2188 33.8075 54.2188 33.0312V27.4062C54.2188 26.63 53.5887 26 52.8125 26H47.1875C46.4112 26 45.7812 26.63 45.7812 27.4062V33.0312C45.7812 33.8075 46.4112 34.4375 47.1875 34.4375Z" fill="#96AE41"/>
<path d="M69.7812 54.2188C72.1112 54.2188 74 52.33 74 50C74 47.67 72.1112 45.7812 69.7812 45.7812C67.4513 45.7812 65.5625 47.67 65.5625 50C65.5625 52.33 67.4513 54.2188 69.7812 54.2188Z" fill="#96AE41"/>
<path d="M30.2188 54.2188C32.5487 54.2188 34.4375 52.33 34.4375 50C34.4375 47.67 32.5487 45.7812 30.2188 45.7812C27.8888 45.7812 26 47.67 26 50C26 52.33 27.8888 54.2188 30.2188 54.2188Z" fill="#96AE41"/>
<path d="M57.8329 33.5277C60.816 34.9481 63.3586 37.1631 65.1812 39.8932L63.6677 39.7418C62.8954 39.665 62.2058 40.2283 62.1285 41.0011C62.0512 41.7739 62.6151 42.4631 63.3878 42.5404L67.6031 42.962C68.2208 43.0316 68.8452 42.6436 69.0585 42.06L70.5564 38.0971C70.831 37.3707 70.4647 36.5592 69.7382 36.2845C69.0119 36.0099 68.2002 36.3763 67.9255 37.1027L67.4821 38.2759C65.3817 35.1522 62.4633 32.6175 59.0421 30.9884C58.3407 30.6545 57.5017 30.9522 57.1678 31.6535C56.834 32.3547 57.1317 33.1937 57.8329 33.5277ZM68.3467 57.1681C67.6455 56.8341 66.8063 57.132 66.4725 57.8331C65.0521 60.8162 62.8371 63.3588 60.107 65.1814L60.2584 63.6679C60.3352 62.8956 59.7719 62.2061 58.999 62.1287C58.2262 62.0515 57.5371 62.6153 57.4597 63.3881L57.0382 67.6034C56.9686 68.2211 57.3566 68.8456 57.9402 69.0587L61.903 70.5567C62.6295 70.8313 63.441 70.4649 63.7157 69.7384C63.9903 69.0121 63.6239 68.2005 62.8974 67.9258L61.7242 67.4823C64.848 65.382 67.3827 62.4635 69.0118 59.0423C69.3457 58.3409 69.048 57.502 68.3467 57.1681ZM42.1671 66.4727C39.1839 65.0523 36.6413 62.8373 34.8187 60.1072L36.3322 60.2586C37.1046 60.3354 37.7941 59.7721 37.8714 58.9993C37.9487 58.2265 37.3849 57.5373 36.6121 57.46L32.3968 57.0384C31.7791 56.9688 31.1547 57.3569 30.9414 57.9405L29.4435 61.9033C29.1689 62.6297 29.5353 63.4412 30.2617 63.7159C30.988 63.9905 31.7997 63.6241 32.0744 62.8977L32.5178 61.7245C34.6182 64.8482 37.5367 67.383 40.9579 69.0121C41.6592 69.3459 42.4982 69.0482 42.8321 68.3469C43.166 67.6457 42.8682 66.8067 42.1671 66.4727ZM31.6533 42.8324C32.3544 43.1663 33.1936 42.8685 33.5274 42.1673C34.9478 39.1842 37.1629 36.6416 39.893 34.819L39.7416 36.3325C39.6648 37.1048 40.228 37.7943 41.0009 37.8717C41.7737 37.9489 42.4628 37.3851 42.5402 36.6123L42.9618 32.3971C43.0313 31.7793 42.6433 31.1549 42.0597 30.9417L38.0969 29.4437C37.3704 29.1691 36.5589 29.5355 36.2842 30.262C36.0097 30.9883 36.376 31.8 37.1025 32.0746L38.2757 32.5181C35.1519 34.6185 32.6172 37.5369 30.9881 40.9581C30.6543 41.6596 30.9519 42.4984 31.6533 42.8324ZM50 48.203C52.3812 48.203 54.3125 46.2727 54.3125 43.8905C54.3125 41.5093 52.3812 39.579 50 39.579C47.6187 39.579 45.6875 41.5093 45.6875 43.8905C45.6875 46.2727 47.6187 48.203 50 48.203ZM52.8125 65.5627H47.1875C46.4112 65.5627 45.7812 66.1927 45.7812 66.969V72.594C45.7812 73.3702 46.4112 74.0002 47.1875 74.0002H52.8125C53.5887 74.0002 54.2187 73.3702 54.2187 72.594V66.969C54.2187 66.1927 53.5887 65.5627 52.8125 65.5627ZM58.429 59.484V58.9758C58.429 54.3202 54.6547 50.5468 50 50.5468C45.3453 50.5468 41.5709 54.3202 41.5709 58.9758V59.484C41.5709 60.2611 42.2009 60.8902 42.9772 60.8902H57.0228C57.799 60.8902 58.429 60.2611 58.429 59.484Z" fill="#96AE41"/>
</g>
<defs>
<clipPath id="clip0_1405_3202">
<rect width="48" height="48" fill="white" transform="translate(26 26)"/>
</clipPath>
</defs>
</svg>
