<svg width="100" height="100" viewBox="0 0 100 100" fill="none" xmlns="http://www.w3.org/2000/svg">
<circle cx="50" cy="50" r="50" fill="#96AE41" fill-opacity="0.1"/>
<path d="M73.588 58.1366L69.0401 53.5882L59.6317 62.9966C57.9523 64.676 55.8444 65.771 53.5548 66.1808L59.5493 72.1753C60.0983 72.7246 60.9889 72.7246 61.5378 72.1753L73.588 60.1255C74.1373 59.5761 74.1373 58.6855 73.588 58.1366ZM67.1874 51.4635C68.7727 49.8785 68.7731 47.2993 67.1895 45.7132L67.1841 45.7078C66.7993 45.3221 66.3409 45.0177 65.8361 44.8127C66.2682 43.7196 66.3594 41.871 64.9278 40.4391C64.9242 40.4354 64.9205 40.4313 64.9166 40.4277C64.5333 40.0459 64.0777 39.7444 63.5765 39.5408C64.0087 38.4483 64.1002 36.5993 62.6695 35.1682L62.6668 35.1657C62.2747 34.7734 61.8165 34.471 61.3174 34.2691C61.7496 33.176 61.8407 31.327 60.4092 29.8951C60.4088 29.8951 60.4088 29.8948 60.4084 29.8948L60.4074 29.8936C58.8213 28.3076 56.2409 28.3076 54.6549 29.8936L51.9885 32.5597L53.3519 33.9231C55.6239 36.1951 55.6239 39.8916 53.3523 42.1636C52.5877 42.9278 51.6483 43.453 50.6244 43.7031C50.372 44.7344 49.8409 45.6765 49.0892 46.4263C48.3257 47.1898 47.3878 47.7146 46.365 47.9651C46.1149 48.9875 45.5897 49.9258 44.8266 50.689C44.063 51.4525 43.1251 51.9773 42.1022 52.2278C41.8522 53.2502 41.327 54.1885 40.5638 54.952C39.4633 56.0521 38 56.6585 36.4436 56.6585C34.8872 56.6585 33.4239 56.0524 32.3233 54.9516L30.9599 53.5882L26.412 58.1366C25.8627 58.686 25.8627 59.5761 26.412 60.1255L38.4617 72.1753C39.0111 72.7246 39.9013 72.7243 40.4507 72.1753L49.0764 63.5499H51.5066C53.8247 63.5499 56.004 62.6468 57.6432 61.0081L67.1874 51.4635Z" fill="#96AE41"/>
<path d="M34.3122 52.9634C35.4892 54.1407 37.3979 54.1407 38.5749 52.9634C39.7522 51.7863 39.7522 49.8781 38.5749 48.7006C39.7522 49.8781 41.6606 49.8781 42.8379 48.7006C44.0149 47.5236 44.0149 45.615 42.8379 44.4379C44.0149 45.615 45.9237 45.615 47.1007 44.4379C48.2777 43.2609 48.2777 41.3522 47.1007 40.1752C48.2777 41.3522 50.1863 41.3522 51.3633 40.1752C52.5408 38.9979 52.5408 37.0895 51.3633 35.9121L45.353 29.9019C44.1761 28.7249 42.2674 28.7249 41.0904 29.9019C39.9134 31.0789 39.9134 32.9876 41.0904 34.1646L41.8433 34.9179C40.6663 33.7405 38.7576 33.7405 37.5806 34.9179C36.4037 36.0949 36.4037 38.0036 37.5806 39.1806L39.0869 40.6868C37.9098 39.5098 36.0012 39.5098 34.8242 40.6868C33.6467 41.8638 33.6467 43.7725 34.8242 44.9495L36.3303 46.4561C35.153 45.2788 33.2447 45.2788 32.0673 46.4561C30.8903 47.6331 30.8903 49.5414 32.0673 50.7188L34.3122 52.9634ZM52.666 27.9049C52.8727 27.6991 53.0921 27.5065 53.3229 27.3282L52.5004 26.5057C52.2918 26.297 52.0227 26.1593 51.7314 26.112C51.4402 26.0646 51.1414 26.1101 50.8773 26.242L47.4064 27.9775L49.9999 30.5714L52.666 27.9049Z" fill="#96AE41"/>
</svg>
