<svg width="48" height="48" viewBox="0 0 48 48" fill="none" xmlns="http://www.w3.org/2000/svg">
<circle cx="24" cy="24" r="24" fill="#1C5B90" fill-opacity="0.05"/>
<path fill-rule="evenodd" clip-rule="evenodd" d="M24 23C25.6569 23 27 21.6569 27 20C27 18.3431 25.6569 17 24 17C22.3431 17 21 18.3431 21 20C21 21.6569 22.3431 23 24 23ZM24 31C27.3137 31 30 29.6569 30 28C30 26.3431 27.3137 25 24 25C20.6863 25 18 26.3431 18 28C18 29.6569 20.6863 31 24 31ZM18.3817 25.019C15.912 25.1713 14 26.2241 14 27.5001C14 28.5521 15.2995 29.4523 17.1396 29.8213C16.7284 29.2645 16.5 28.6483 16.5 28.0001C16.5 26.8567 17.2108 25.8129 18.3817 25.019ZM31.4998 28.0001C31.4998 28.6483 31.2714 29.2645 30.8602 29.8213C32.7003 29.4523 33.9998 28.5521 33.9998 27.5001C33.9998 26.2241 32.0878 25.1713 29.6182 25.019C30.7891 25.8129 31.4998 26.8567 31.4998 28.0001ZM27.7188 22.5354C28.212 21.8134 28.5005 20.9404 28.5005 20C28.5005 19.6879 28.4687 19.3833 28.4082 19.0891C28.5954 19.0312 28.7943 19 29.0005 19C30.105 19 31.0005 19.8954 31.0005 21C31.0005 22.1046 30.105 23 29.0005 23C28.5128 23 28.0658 22.8254 27.7188 22.5354ZM19 19C19.2062 19 19.4051 19.0312 19.5922 19.0891C19.5318 19.3833 19.5 19.6879 19.5 20C19.5 20.9404 19.7885 21.8134 20.2817 22.5354C19.9346 22.8254 19.4877 23 19 23C17.8954 23 17 22.1046 17 21C17 19.8954 17.8954 19 19 19Z" fill="#1C5B90"/>
</svg>
