<svg width="48" height="48" viewBox="0 0 48 48" fill="none" xmlns="http://www.w3.org/2000/svg">
<circle cx="24" cy="24" r="24" fill="#1C5B90" fill-opacity="0.05"/>
<path fill-rule="evenodd" clip-rule="evenodd" d="M21.2041 16.1358C22.092 15.8846 23.0296 15.75 23.9999 15.75C24.9703 15.75 25.9079 15.8846 26.7958 16.1358C27.1944 16.2485 27.6089 16.0168 27.7216 15.6182C27.8344 15.2196 27.6026 14.8051 27.2041 14.6924C26.1846 14.404 25.1097 14.25 23.9999 14.25C22.8902 14.25 21.8153 14.404 20.7958 14.6924C20.3973 14.8051 20.1655 15.2196 20.2783 15.6182C20.391 16.0168 20.8055 16.2485 21.2041 16.1358ZM24 34C19.3056 34 15.5 30.1944 15.5 25.5C15.5 20.8056 19.3056 17 24 17C28.6944 17 32.5 20.8056 32.5 25.5C32.5 26.3701 32.3693 27.2096 32.1264 28H30C27.7909 28 26 29.7909 26 32V32.5H32.5C32.9142 32.5 33.25 32.8358 33.25 33.25C33.25 33.6642 32.9142 34 32.5 34H24.5C24.4612 34 24.4232 33.9971 24.386 33.9914C24.2581 33.9971 24.1294 34 24 34ZM24 20.25C24.4142 20.25 24.75 20.5858 24.75 21V24.7007C25.1984 24.96 25.5 25.4448 25.5 26C25.5 26.8284 24.8284 27.5 24 27.5C23.1716 27.5 22.5 26.8284 22.5 26C22.5 25.4448 22.8016 24.96 23.25 24.7007V21C23.25 20.5858 23.5858 20.25 24 20.25ZM28.25 30.25C28.25 29.8358 28.5858 29.5 29 29.5H32.5C32.9142 29.5 33.25 29.8358 33.25 30.25C33.25 30.6642 32.9142 31 32.5 31H29C28.5858 31 28.25 30.6642 28.25 30.25Z" fill="#1C5B90"/>
</svg>
