<svg width="48" height="48" viewBox="0 0 48 48" fill="none" xmlns="http://www.w3.org/2000/svg">
<circle cx="24" cy="24" r="24" fill="#1C5B90" fill-opacity="0.05"/>
<path fill-rule="evenodd" clip-rule="evenodd" d="M24 29C26 29 30 24.3137 30 21C30 17.6863 27.3137 15 24 15C20.6863 15 18 17.6863 18 21C18 24.3137 22 29 24 29ZM24 23C25.1046 23 26 22.1046 26 21C26 19.8954 25.1046 19 24 19C22.8954 19 22 19.8954 22 21C22 22.1046 22.8954 23 24 23Z" fill="#1C5B90"/>
<path fill-rule="evenodd" clip-rule="evenodd" d="M19.0118 27.094C18.154 27.2833 17.3736 27.7521 16.801 28.4393L15.734 29.7197C14.6484 31.0223 15.5747 33 17.2704 33H30.7303C32.4259 33 33.3522 31.0223 32.2667 29.7197L31.1997 28.4393C30.6271 27.7521 29.8467 27.2833 28.9889 27.094C28.9687 27.1199 28.9485 27.1457 28.9284 27.1713C28.2406 28.0438 27.4622 28.8319 26.6803 29.417C25.9576 29.9579 25.0025 30.5 24.0003 30.5C22.9981 30.5 22.0431 29.9579 21.3203 29.417C20.5385 28.8319 19.7601 28.0438 19.0723 27.1713C19.0521 27.1457 19.032 27.1199 19.0118 27.094Z" fill="#1C5B90"/>
</svg>
