<svg width="48" height="49" viewBox="0 0 48 49" fill="none" xmlns="http://www.w3.org/2000/svg">
<circle cx="24" cy="24.5" r="24" fill="#96AE41"/>
<path d="M17.604 35V32.528L22.452 27.464C23.412 26.456 24.148 25.656 24.66 25.064C25.188 24.456 25.556 23.936 25.764 23.504C25.972 23.072 26.076 22.632 26.076 22.184C26.076 21.432 25.836 20.84 25.356 20.408C24.892 19.976 24.292 19.76 23.556 19.76C22.788 19.76 22.124 19.984 21.564 20.432C21.004 20.864 20.596 21.504 20.34 22.352L17.484 21.464C17.676 20.52 18.068 19.704 18.66 19.016C19.252 18.312 19.972 17.776 20.82 17.408C21.684 17.024 22.596 16.832 23.556 16.832C24.708 16.832 25.716 17.04 26.58 17.456C27.46 17.872 28.14 18.456 28.62 19.208C29.116 19.96 29.364 20.84 29.364 21.848C29.364 22.488 29.244 23.12 29.004 23.744C28.764 24.368 28.404 25.008 27.924 25.664C27.444 26.304 26.82 27.024 26.052 27.824L21.852 32.24H29.604V35H17.604Z" fill="white"/>
</svg>
