<svg width="48" height="48" viewBox="0 0 48 48" fill="none" xmlns="http://www.w3.org/2000/svg">
<path d="M40.7992 28V30.4C40.7992 32.608 39.3672 34.4 37.5992 34.4H10.3992C8.63122 34.4 7.19922 32.608 7.19922 30.4V28H40.7992Z" fill="#DFC49C"/>
<path d="M40.7992 22.4001V20.8001C40.8039 18.882 40.4399 16.9808 39.7272 15.2001C38.9618 13.2716 37.8106 11.5198 36.3441 10.052C34.8777 8.58417 33.127 7.43131 31.1992 6.66406L16.7992 6.68006C13.9684 7.80072 11.5397 9.74606 9.82789 12.2638C8.11611 14.7815 7.2003 17.7555 7.19922 20.8001V22.4001H40.7992Z" fill="#FEC108"/>
<path d="M16.7988 22.3998V6.3998C16.8001 5.97585 16.9691 5.56962 17.2689 5.26983C17.5686 4.97005 17.9749 4.80107 18.3988 4.7998H19.9988V2.3998C20.0001 1.97585 20.1691 1.56962 20.4689 1.26983C20.7686 0.970048 21.1749 0.801071 21.5988 0.799805H26.3988C26.8228 0.801071 27.229 0.970048 27.5288 1.26983C27.8286 1.56962 27.9976 1.97585 27.9988 2.3998V4.7998H29.5988C30.0228 4.80107 30.429 4.97005 30.7288 5.26983C31.0286 5.56962 31.1976 5.97585 31.1988 6.3998V6.6638L30.3988 22.3998H16.7988Z" fill="#FFDC00"/>
<path d="M29.599 4.7998H27.999V2.3998C27.9978 1.97585 27.8288 1.56962 27.529 1.26983C27.2292 0.970048 26.823 0.801071 26.399 0.799805H23.999C24.423 0.801071 24.8292 0.970048 25.129 1.26983C25.4288 1.56962 25.5978 1.97585 25.599 2.3998V3.1998C25.599 3.62415 25.7676 4.03112 26.0677 4.33118C26.3677 4.63123 26.7747 4.7998 27.199 4.7998C27.623 4.80107 28.0292 4.97005 28.329 5.26983C28.6288 5.56962 28.7978 5.97585 28.799 6.3998V22.3998H31.199V6.3998C31.1978 5.97585 31.0288 5.56962 30.729 5.26983C30.4292 4.97005 30.023 4.80107 29.599 4.7998Z" fill="#FEC108"/>
<path d="M37.5914 28V35.736C37.5903 36.9475 37.1974 38.1261 36.4714 39.096L32.0714 44.96C31.5494 45.6551 30.8729 46.2193 30.0954 46.608C29.3179 46.9968 28.4607 47.1994 27.5914 47.2H20.3994C19.5301 47.1994 18.6729 46.9968 17.8954 46.608C17.1179 46.2193 16.4414 45.6551 15.9194 44.96L11.5194 39.096C10.7934 38.1261 10.4006 36.9475 10.3994 35.736V28" fill="#FFE0B2"/>
<path d="M35.1914 28V35.736C35.1903 36.9475 34.7974 38.1261 34.0714 39.096L29.6714 44.96C29.1494 45.6551 28.4729 46.2193 27.6954 46.608C26.9179 46.9968 26.0607 47.1994 25.1914 47.2H27.5914C28.4607 47.1994 29.3179 46.9968 30.0954 46.608C30.8729 46.2193 31.5494 45.6551 32.0714 44.96L36.4714 39.096C37.1974 38.1261 37.5903 36.9475 37.5914 35.736V28H35.1914Z" fill="#DFC49C"/>
<path d="M33.5996 22.4004H7.19961C6.77565 22.4017 6.36942 22.5706 6.06964 22.8704C5.76985 23.1702 5.60088 23.5764 5.59961 24.0004V27.2004C5.59961 27.4126 5.68389 27.616 5.83392 27.7661C5.98395 27.9161 6.18744 28.0004 6.39961 28.0004H41.5996C41.8118 28.0004 42.0153 27.9161 42.1653 27.7661C42.3153 27.616 42.3996 27.4126 42.3996 27.2004V24.0004C42.3983 23.5764 42.2294 23.1702 41.9296 22.8704C41.6298 22.5706 41.2236 22.4017 40.7996 22.4004H33.5996Z" fill="#FFEB3A"/>
<path d="M40.8004 22.4004H38.4004C38.8243 22.4017 39.2306 22.5706 39.5304 22.8704C39.8301 23.1702 39.9991 23.5764 40.0004 24.0004V27.2004C40.0004 27.4126 39.9161 27.616 39.7661 27.7661C39.616 27.9161 39.4126 28.0004 39.2004 28.0004H41.6004C41.8126 28.0004 42.016 27.9161 42.1661 27.7661C42.3161 27.616 42.4004 27.4126 42.4004 27.2004V24.0004C42.3991 23.5764 42.2301 23.1702 41.9304 22.8704C41.6306 22.5706 41.2243 22.4017 40.8004 22.4004Z" fill="#FDD834"/>
<path d="M27.5383 12.8004H25.3783L26.1223 6.91321C26.1332 6.81733 26.1137 6.72046 26.0664 6.6363C26.0192 6.55215 25.9467 6.48497 25.8593 6.44428C25.7718 6.40358 25.6737 6.39143 25.5789 6.40954C25.4841 6.42766 25.3974 6.47512 25.3311 6.54521L20.1311 12.0348C20.0701 12.0997 20.0295 12.1811 20.0144 12.2689C19.9993 12.3568 20.0103 12.4471 20.0461 12.5286C20.0819 12.6102 20.1409 12.6795 20.2158 12.7278C20.2906 12.7761 20.378 12.8014 20.4671 12.8004H22.6271L21.8831 18.6876C21.8723 18.7835 21.8918 18.8804 21.939 18.9645C21.9862 19.0487 22.0587 19.1158 22.1462 19.1565C22.2337 19.1972 22.3318 19.2094 22.4265 19.1913C22.5213 19.1732 22.608 19.1257 22.6743 19.0556L27.8743 13.566C27.9357 13.5012 27.9767 13.4198 27.992 13.3318C28.0073 13.2439 27.9964 13.1534 27.9605 13.0717C27.9246 12.9899 27.8654 12.9206 27.7903 12.8723C27.7152 12.8241 27.6276 12.7991 27.5383 12.8004Z" fill="#00BCD4"/>
<path d="M41.5988 21.7472V20.8C41.6051 18.7812 41.2222 16.7802 40.4708 14.9064C38.9043 10.9781 35.8501 7.82724 31.9724 6.1392C31.9094 5.55301 31.6324 5.01065 31.1945 4.61595C30.7565 4.22125 30.1884 4.00194 29.5988 4H28.7988V2.4C28.7988 1.76348 28.546 1.15303 28.0959 0.702944C27.6458 0.252856 27.0353 0 26.3988 0L21.5988 0C20.9623 0 20.3519 0.252856 19.9018 0.702944C19.4517 1.15303 19.1988 1.76348 19.1988 2.4V4H18.3988C17.8068 4.00192 17.2364 4.22307 16.7977 4.62078C16.3591 5.01848 16.0833 5.56454 16.0236 6.1536C13.1648 7.38895 10.7301 9.43407 9.0198 12.0367C7.30948 14.6394 6.39837 17.6857 6.39883 20.8V21.7472C5.9325 21.9121 5.5285 22.217 5.2421 22.6202C4.9557 23.0235 4.80088 23.5054 4.79883 24V27.2C4.79883 27.6243 4.9674 28.0313 5.26746 28.3314C5.56752 28.6314 5.97448 28.8 6.39883 28.8V30.4C6.39883 32.72 7.77243 34.6536 9.59883 35.1024V35.736C9.59761 37.121 10.0469 38.4688 10.8788 39.576L15.2788 45.44C15.8767 46.233 16.6501 46.8768 17.5384 47.3209C18.4267 47.765 19.4057 47.9975 20.3988 48H27.5908C28.584 47.9976 29.5631 47.7652 30.4514 47.3211C31.3397 46.8769 32.113 46.2331 32.7108 45.44L37.1108 39.5736C37.9433 38.4666 38.3926 37.1187 38.3908 35.7336V35.2H38.3988C38.523 35.2 38.6455 35.1711 38.7566 35.1155C38.8677 35.06 38.9643 34.9794 39.0388 34.88C39.8425 34.4482 40.5086 33.7992 40.9612 33.0071C41.4139 32.215 41.6348 31.3116 41.5988 30.4V28.8C42.0232 28.8 42.4301 28.6314 42.7302 28.3314C43.0303 28.0313 43.1988 27.6243 43.1988 27.2V24C43.1968 23.5054 43.042 23.0235 42.7556 22.6202C42.4692 22.217 42.0652 21.9121 41.5988 21.7472ZM7.99883 30.4V28.8H9.59883V33.4032C9.08205 33.0978 8.65935 32.656 8.37711 32.1263C8.09487 31.5965 7.96399 30.9992 7.99883 30.4ZM35.8308 38.616L31.4308 44.48C30.9825 45.0748 30.4025 45.5577 29.7362 45.8908C29.07 46.2239 28.3357 46.3982 27.5908 46.4H20.3988C19.654 46.3982 18.9196 46.2239 18.2534 45.8908C17.5872 45.5577 17.0072 45.0748 16.5588 44.48L12.1588 38.6176C11.5348 37.7872 11.1978 36.7763 11.1988 35.7376V34.4192C11.1988 34.4128 11.2028 34.4072 11.2028 34.4C11.2028 34.3928 11.1988 34.3872 11.1988 34.3808V28.8H36.7908V35.736C36.7922 36.7748 36.4552 37.7858 35.8308 38.616ZM39.9988 30.4C40.0342 31.0007 39.9027 31.5994 39.6189 32.13C39.3351 32.6606 38.9101 33.1024 38.3908 33.4064V28.8H39.9988V30.4ZM41.5988 27.2H6.39883V24C6.39883 23.7878 6.48311 23.5843 6.63314 23.4343C6.78317 23.2843 6.98665 23.2 7.19883 23.2H11.1988C11.411 23.2 11.6145 23.1157 11.7645 22.9657C11.9145 22.8157 11.9988 22.6122 11.9988 22.4C11.9988 22.1878 11.9145 21.9843 11.7645 21.8343C11.6145 21.6843 11.411 21.6 11.1988 21.6H7.99883V20.8C7.993 18.9823 8.33798 17.1806 9.01483 15.4936C9.73969 13.667 10.8312 12.0083 12.222 10.62C13.3247 9.51934 14.6006 8.60721 15.9988 7.92V10.4C15.9988 10.6122 16.0831 10.8157 16.2331 10.9657C16.3832 11.1157 16.5867 11.2 16.7988 11.2C17.011 11.2 17.2145 11.1157 17.3645 10.9657C17.5145 10.8157 17.5988 10.6122 17.5988 10.4V6.4C17.5988 6.18783 17.6831 5.98434 17.8331 5.83431C17.9832 5.68429 18.1867 5.6 18.3988 5.6H19.9988C20.211 5.6 20.4145 5.51571 20.5645 5.36569C20.7145 5.21566 20.7988 5.01217 20.7988 4.8V2.4C20.7988 2.18783 20.8831 1.98434 21.0331 1.83431C21.1832 1.68429 21.3867 1.6 21.5988 1.6H26.3988C26.611 1.6 26.8145 1.68429 26.9645 1.83431C27.1145 1.98434 27.1988 2.18783 27.1988 2.4V4.8C27.1988 5.01217 27.2831 5.21566 27.4331 5.36569C27.5832 5.51571 27.7867 5.6 27.9988 5.6H29.5988C29.811 5.6 30.0145 5.68429 30.1645 5.83431C30.3145 5.98434 30.3988 6.18783 30.3988 6.4V10.4C30.3988 10.6122 30.4831 10.8157 30.6331 10.9657C30.7832 11.1157 30.9867 11.2 31.1988 11.2C31.411 11.2 31.6145 11.1157 31.7645 10.9657C31.9145 10.8157 31.9988 10.6122 31.9988 10.4V7.9096C35.1821 9.49307 37.6694 12.1951 38.9844 15.4984C39.6604 17.1839 40.0049 18.984 39.9988 20.8V21.6H36.7988C36.5867 21.6 36.3832 21.6843 36.2331 21.8343C36.0831 21.9843 35.9988 22.1878 35.9988 22.4C35.9988 22.6122 36.0831 22.8157 36.2331 22.9657C36.3832 23.1157 36.5867 23.2 36.7988 23.2H40.7988C41.011 23.2 41.2145 23.2843 41.3645 23.4343C41.5145 23.5843 41.5988 23.7878 41.5988 24V27.2Z" fill="black"/>
<path d="M33.5977 21.6004H31.9977V19.2004C31.9977 18.9882 31.9134 18.7847 31.7633 18.6347C31.6133 18.4847 31.4098 18.4004 31.1977 18.4004C30.9855 18.4004 30.782 18.4847 30.632 18.6347C30.4819 18.7847 30.3977 18.9882 30.3977 19.2004V21.6004H17.5977V19.2004C17.5977 18.9882 17.5134 18.7847 17.3633 18.6347C17.2133 18.4847 17.0098 18.4004 16.7977 18.4004C16.5855 18.4004 16.382 18.4847 16.232 18.6347C16.0819 18.7847 15.9977 18.9882 15.9977 19.2004V21.6004H14.3977C14.1855 21.6004 13.982 21.6847 13.832 21.8347C13.6819 21.9847 13.5977 22.1882 13.5977 22.4004C13.5977 22.6126 13.6819 22.816 13.832 22.9661C13.982 23.1161 14.1855 23.2004 14.3977 23.2004H33.5977C33.8098 23.2004 34.0133 23.1161 34.1633 22.9661C34.3134 22.816 34.3977 22.6126 34.3977 22.4004C34.3977 22.1882 34.3134 21.9847 34.1633 21.8347C34.0133 21.6847 33.8098 21.6004 33.5977 21.6004Z" fill="black"/>
<path d="M20.4658 13.6003H21.7162L21.085 18.5875C21.053 18.8508 21.1049 19.1175 21.2333 19.3495C21.3617 19.5816 21.56 19.7672 21.8001 19.88C22.0401 19.9927 22.3096 20.0269 22.5702 19.9775C22.8308 19.9282 23.0692 19.7979 23.2514 19.6051L28.4514 14.1163C28.6201 13.9383 28.733 13.7146 28.7758 13.473C28.8187 13.2315 28.7898 12.9826 28.6926 12.7574C28.5954 12.5321 28.4343 12.3403 28.2291 12.2057C28.024 12.0712 27.7839 11.9997 27.5386 12.0003H26.289L26.9194 7.01313C26.9517 6.74984 26.9 6.48307 26.7717 6.25088C26.6434 6.01869 26.4451 5.83295 26.205 5.72013C25.965 5.60732 25.6954 5.57321 25.4348 5.62266C25.1742 5.67212 24.9358 5.80261 24.7538 5.99553L19.5498 11.4843C19.3812 11.6627 19.2686 11.8866 19.226 12.1284C19.1835 12.3701 19.2128 12.619 19.3103 12.8443C19.4078 13.0695 19.5692 13.2612 19.7746 13.3956C19.98 13.53 20.2203 13.6012 20.4658 13.6003ZM25.1994 7.84913L24.5866 12.7003C24.5724 12.8131 24.5823 12.9275 24.6158 13.0361C24.6493 13.1447 24.7055 13.2449 24.7808 13.33C24.856 13.4152 24.9485 13.4833 25.0521 13.5299C25.1558 13.5765 25.2681 13.6005 25.3818 13.6003H26.7418L22.8058 17.7515L23.4194 12.9003C23.4336 12.7875 23.4236 12.673 23.39 12.5644C23.3565 12.4557 23.3002 12.3555 23.2249 12.2703C23.1496 12.1852 23.0569 12.117 22.9532 12.0705C22.8495 12.0239 22.737 12 22.6234 12.0003H21.2634L25.1994 7.84913Z" fill="black"/>
</svg>
