<svg width="48" height="48" viewBox="0 0 48 48" fill="none" xmlns="http://www.w3.org/2000/svg">
<g clip-path="url(#clip0_1405_1572)">
<path d="M33.5996 29.5995L42.8556 22.1835L40.8396 19.6875L34.3996 24.7995L33.5996 29.5995Z" fill="#607D8B"/>
<path d="M44.0008 22.4C45.7681 22.4 47.2008 20.9673 47.2008 19.2C47.2008 17.4327 45.7681 16 44.0008 16C42.2335 16 40.8008 17.4327 40.8008 19.2C40.8008 20.9673 42.2335 22.4 44.0008 22.4Z" fill="#FFEB3A"/>
<path d="M35.1192 35.2H31.1992V16H35.1192C35.3526 16 35.5764 16.0927 35.7415 16.2577C35.9065 16.4228 35.9992 16.6466 35.9992 16.88V34.32C35.9992 34.5534 35.9065 34.7772 35.7415 34.9423C35.5764 35.1073 35.3526 35.2 35.1192 35.2Z" fill="#607D8B"/>
<path d="M30.3998 0.799805H2.3998C1.51615 0.799805 0.799805 1.51615 0.799805 2.3998V45.5998C0.799805 46.4835 1.51615 47.1998 2.3998 47.1998H30.3998C31.2835 47.1998 31.9998 46.4835 31.9998 45.5998V2.3998C31.9998 1.51615 31.2835 0.799805 30.3998 0.799805Z" fill="#607D8B"/>
<path d="M27.9998 0.799805H2.3998C1.51615 0.799805 0.799805 1.51615 0.799805 2.3998V45.5998C0.799805 46.4835 1.51615 47.1998 2.3998 47.1998H27.9998C28.8835 47.1998 29.5998 46.4835 29.5998 45.5998V2.3998C29.5998 1.51615 28.8835 0.799805 27.9998 0.799805Z" fill="#CFD8DC"/>
<path d="M24.4805 21.32L9.8725 38.464C9.75208 38.6043 9.58677 38.6986 9.4047 38.7308C9.22262 38.763 9.03502 38.7311 8.87379 38.6406C8.71256 38.5501 8.58766 38.4065 8.52033 38.2343C8.45301 38.0621 8.44741 37.8719 8.5045 37.696L8.6645 37.216L12.4485 25.856C12.4892 25.7355 12.5006 25.607 12.4817 25.4812C12.4628 25.3554 12.4142 25.2359 12.3399 25.1327C12.2656 25.0294 12.1677 24.9454 12.0544 24.8875C11.9412 24.8297 11.8157 24.7997 11.6885 24.8H8.9685C8.85067 24.7998 8.73435 24.7736 8.62785 24.7232C8.52134 24.6728 8.42728 24.5995 8.35238 24.5086C8.27748 24.4176 8.22359 24.3112 8.19457 24.1971C8.16555 24.0829 8.16211 23.9637 8.18449 23.848L11.0805 8.648C11.1158 8.46583 11.2132 8.30158 11.3563 8.18337C11.4993 8.06515 11.6789 8.00033 11.8645 8H21.2885C21.4157 7.99967 21.5412 8.02968 21.6544 8.08754C21.7677 8.1454 21.8656 8.22944 21.9399 8.33269C22.0142 8.43593 22.0628 8.55541 22.0817 8.6812C22.1006 8.807 22.0892 8.93549 22.0485 9.056L18.7525 18.944C18.7118 19.0645 18.7004 19.193 18.7193 19.3188C18.7382 19.4446 18.7868 19.5641 18.8611 19.6673C18.9354 19.7706 19.0333 19.8546 19.1466 19.9125C19.2598 19.9703 19.3853 20.0003 19.5125 20H23.8645C24.0181 19.9984 24.1689 20.0412 24.2989 20.123C24.4289 20.2049 24.5326 20.3224 24.5975 20.4617C24.6625 20.6009 24.686 20.7558 24.6653 20.908C24.6445 21.0603 24.5804 21.2033 24.4805 21.32Z" fill="#FDD834"/>
<path d="M22.2085 21.32L8.6645 37.216L12.4485 25.856C12.4892 25.7355 12.5006 25.607 12.4817 25.4812C12.4628 25.3554 12.4142 25.2359 12.3399 25.1327C12.2656 25.0294 12.1677 24.9454 12.0544 24.8875C11.9412 24.8297 11.8157 24.7997 11.6885 24.8H8.9685C8.85067 24.7998 8.73435 24.7736 8.62785 24.7232C8.52134 24.6728 8.42728 24.5995 8.35238 24.5086C8.27748 24.4176 8.22359 24.3112 8.19457 24.1971C8.16555 24.0829 8.16211 23.9637 8.18449 23.848L11.0805 8.648C11.1158 8.46583 11.2132 8.30158 11.3563 8.18336C11.4993 8.06515 11.6789 8.00033 11.8645 8H19.0245C19.151 8.00094 19.2755 8.03187 19.3878 8.09027C19.5 8.14866 19.5968 8.23285 19.6702 8.33592C19.7436 8.43899 19.7915 8.558 19.81 8.68317C19.8285 8.80835 19.817 8.93612 19.7765 9.056L16.4805 18.944C16.4411 19.0645 16.4307 19.1926 16.4501 19.3179C16.4695 19.4432 16.5183 19.5621 16.5923 19.665C16.6664 19.7679 16.7637 19.8519 16.8763 19.9101C16.9889 19.9683 17.1137 19.9991 17.2405 20H21.6005C21.7534 20 21.9032 20.0438 22.0319 20.1263C22.1607 20.2088 22.2632 20.3264 22.3272 20.4653C22.3912 20.6042 22.414 20.7586 22.3929 20.91C22.3719 21.0615 22.3079 21.2038 22.2085 21.32Z" fill="#FFEB3A"/>
<path d="M44 15.2C42.9395 15.2013 41.9229 15.6231 41.173 16.373C40.4231 17.1228 40.0013 18.1395 40 19.2C40 19.244 40.0112 19.284 40.0128 19.3272L36.8 21.92V16.8C36.8 16.3757 36.6314 15.9687 36.3314 15.6686C36.0313 15.3686 35.6243 15.2 35.2 15.2H32.8V2.4C32.8 1.76348 32.5471 1.15303 32.0971 0.702944C31.647 0.252856 31.0365 0 30.4 0L2.4 0C1.76348 0 1.15303 0.252856 0.702944 0.702944C0.252856 1.15303 0 1.76348 0 2.4L0 45.6C0 46.2365 0.252856 46.847 0.702944 47.2971C1.15303 47.7471 1.76348 48 2.4 48H30.4C31.0365 48 31.647 47.7471 32.0971 47.2971C32.5471 46.847 32.8 46.2365 32.8 45.6V36H35.2C35.6243 36 36.0313 35.8314 36.3314 35.5314C36.6314 35.2313 36.8 34.8243 36.8 34.4V28.0944L43.0336 23.0688C43.5827 23.2065 44.1548 23.2259 44.712 23.1258C45.2691 23.0256 45.7987 22.8082 46.2654 22.4879C46.7322 22.1676 47.1256 21.7517 47.4194 21.2678C47.7133 20.784 47.9009 20.2432 47.9699 19.6813C48.0389 19.1194 47.9877 18.5493 47.8197 18.0087C47.6516 17.4681 47.3706 16.9694 46.9952 16.5457C46.6198 16.1219 46.1587 15.7828 45.6423 15.5508C45.1259 15.3188 44.5661 15.1992 44 15.2ZM31.2 45.6C31.2 45.8122 31.1157 46.0157 30.9657 46.1657C30.8157 46.3157 30.6122 46.4 30.4 46.4H2.4C2.18783 46.4 1.98434 46.3157 1.83431 46.1657C1.68429 46.0157 1.6 45.8122 1.6 45.6V2.4C1.6 2.18783 1.68429 1.98434 1.83431 1.83431C1.98434 1.68429 2.18783 1.6 2.4 1.6H30.4C30.6122 1.6 30.8157 1.68429 30.9657 1.83431C31.1157 1.98434 31.2 2.18783 31.2 2.4V45.6ZM35.2 34.4H32.8V16.8H35.2V34.4ZM36.8 26.0392V23.9744L40.46 21.0224C40.7089 21.5036 41.0529 21.9293 41.4712 22.2736L36.8 26.0392ZM44 21.6C43.3635 21.6 42.753 21.3471 42.3029 20.8971C41.8529 20.447 41.6 19.8365 41.6 19.2C41.6 18.5635 41.8529 17.953 42.3029 17.5029C42.753 17.0529 43.3635 16.8 44 16.8C44.6365 16.8 45.247 17.0529 45.6971 17.5029C46.1471 17.953 46.4 18.5635 46.4 19.2C46.4 19.8365 46.1471 20.447 45.6971 20.8971C45.247 21.3471 44.6365 21.6 44 21.6Z" fill="black"/>
<path d="M25.6004 19.2002H19.51L23.1596 8.253C23.1996 8.13273 23.2105 8.00467 23.1914 7.87936C23.1722 7.75405 23.1236 7.63509 23.0495 7.53227C22.9753 7.42945 22.8778 7.34573 22.7649 7.28799C22.6521 7.23026 22.5271 7.20016 22.4004 7.2002H11.2004C11.0142 7.20026 10.8339 7.26525 10.6905 7.38398C10.5471 7.5027 10.4496 7.66771 10.4148 7.8506L7.21478 24.6506C7.19277 24.7662 7.19654 24.8853 7.22584 24.9993C7.25514 25.1133 7.30923 25.2194 7.38426 25.3101C7.4593 25.4008 7.55342 25.4739 7.65992 25.524C7.76642 25.5741 7.88267 25.6002 8.00038 25.6002H11.6908L6.44118 41.3474C6.38267 41.5235 6.38723 41.7145 6.45406 41.8877C6.5209 42.0608 6.64585 42.2053 6.80752 42.2965C6.9692 42.3876 7.15753 42.4197 7.34027 42.3873C7.523 42.3548 7.68877 42.2598 7.80918 42.1186L26.2092 20.5186C26.3081 20.4023 26.3717 20.2601 26.3925 20.1088C26.4132 19.9575 26.3902 19.8034 26.3262 19.6648C26.2621 19.5262 26.1598 19.4088 26.0312 19.3264C25.9026 19.2441 25.7531 19.2003 25.6004 19.2002ZM9.26118 37.9474L13.5596 25.053C13.5996 24.9327 13.6105 24.8047 13.5914 24.6794C13.5722 24.5541 13.5236 24.4351 13.4495 24.3323C13.3753 24.2295 13.2778 24.1457 13.1649 24.088C13.0521 24.0303 12.9271 24.0002 12.8004 24.0002H8.96678L11.8628 8.8002H21.2908L17.6412 19.7474C17.6011 19.8677 17.5902 19.9957 17.6094 20.121C17.6285 20.2463 17.6772 20.3653 17.7513 20.4681C17.8254 20.5709 17.923 20.6547 18.0358 20.7124C18.1487 20.7701 18.2736 20.8002 18.4004 20.8002H23.8676L9.26118 37.9474Z" fill="black"/>
</g>
<defs>
<clipPath id="clip0_1405_1572">
<rect width="48" height="48" fill="white"/>
</clipPath>
</defs>
</svg>
