<svg width="26" height="26" viewBox="0 0 26 26" fill="none" xmlns="http://www.w3.org/2000/svg">
<path fill-rule="evenodd" clip-rule="evenodd" d="M5.07975 3.56714C4.21105 3.56714 3.50684 4.27135 3.50684 5.14006V20.8692C3.50684 21.7379 4.21105 22.4421 5.07975 22.4421H20.8089C21.6776 22.4421 22.3818 21.7379 22.3818 20.8692V5.14006C22.3818 4.27135 21.6776 3.56714 20.8089 3.56714H5.07975ZM9.29597 7.76444C9.30187 8.76717 8.5513 9.38503 7.66063 9.38061C6.82157 9.37618 6.09016 8.70819 6.09459 7.76591C6.09901 6.87967 6.79945 6.16743 7.70929 6.18808C8.63239 6.20873 9.30187 6.88557 9.29597 7.76444ZM13.2376 10.6576H10.5951H10.5937V19.6335H13.3865V19.4241C13.3865 19.0258 13.3862 18.6273 13.3859 18.2287C13.3851 17.1656 13.3841 16.1014 13.3896 15.0386C13.391 14.7806 13.4028 14.5122 13.4692 14.2659C13.7183 13.3458 14.5457 12.7515 15.4688 12.8976C16.0615 12.9904 16.4537 13.334 16.6189 13.8929C16.7207 14.2423 16.7664 14.6183 16.7708 14.9826C16.7828 16.0812 16.7811 17.1797 16.7794 18.2783C16.7788 18.6661 16.7782 19.0541 16.7782 19.4419V19.6321H19.5799V19.4168C19.5799 18.9428 19.5797 18.469 19.5794 17.9951C19.5789 16.8107 19.5783 15.6263 19.5814 14.4414C19.5829 13.9061 19.5254 13.3783 19.3941 12.8607C19.198 12.0909 18.7925 11.4538 18.1334 10.9938C17.6659 10.6664 17.1527 10.4556 16.5791 10.432C16.5138 10.4293 16.448 10.4257 16.3818 10.4221C16.0885 10.4063 15.7904 10.3902 15.51 10.4467C14.7078 10.6075 14.003 10.9746 13.4706 11.6219C13.4088 11.6962 13.3483 11.7716 13.258 11.8841L13.2376 11.9096V10.6576ZM6.31883 19.6365H9.09847V10.6634H6.31883V19.6365Z" fill="#353942"/>
</svg>
