<svg width="213" height="43" viewBox="0 0 213 43" fill="none" xmlns="http://www.w3.org/2000/svg">
<g clip-path="url(#clip0_1261_717)">
<path d="M213 0V42.3248H0V0H213ZM211.867 1.21391H1.21391V41.1109H211.867V1.21391Z" fill="#96AE41"/>
<path d="M136.686 15.5381L140.773 21.3632L144.859 15.5381H147.773V27.839H144.293V21.6885L141.89 24.9102L139.599 24.8856L137.252 21.6885V27.839H133.772V15.5381H136.686Z" fill="#96AE41"/>
<path d="M111.663 15.3192C115.245 14.9987 118.5 16.8248 119.101 20.5382C119.907 25.5249 115.864 28.7531 111.098 27.975C103.822 26.787 104.119 15.9945 111.663 15.3192ZM111.903 18.634C109.61 18.9447 108.701 21.8678 110.027 23.6235C111.578 25.677 115.245 24.9313 115.555 22.2866C115.835 19.9033 114.308 18.3078 111.903 18.634Z" fill="#96AE41"/>
<path d="M192.578 17.1037C193.576 18.0753 194.259 19.6274 194.377 21.0109C195.171 30.3535 180.454 30.5061 181.03 21.1586C181.383 15.4451 188.78 13.4058 192.578 17.1037ZM187.084 18.6341C183.866 19.0707 183.799 24.2273 187.072 24.7542C191.955 25.5396 192.125 17.9502 187.084 18.6341Z" fill="#96AE41"/>
<path d="M203.855 21.6885V15.5381H207.335V27.839H204.422C202.963 25.7224 201.371 23.6611 199.809 21.6076V27.839H196.329V15.5381H199.202L203.855 21.6885Z" fill="#96AE41"/>
<path d="M131.749 27.839H127.703C127.469 27.4429 126.157 24.3591 125.963 24.3591H124.627V27.839H121.147V15.5381H127.338C128.112 15.5381 129.481 16.0957 130.088 16.5918C131.768 17.9659 132.013 21.0104 130.695 22.6981C130.366 23.1197 129.882 23.3811 129.563 23.7481L131.749 27.8386L131.749 27.839ZM124.627 21.5267H126.61C126.667 21.5267 127.24 21.3215 127.326 21.2718C128.199 20.7688 128.182 19.1482 127.274 18.6772C127.201 18.6392 126.647 18.4511 126.61 18.4511H124.627V21.5263V21.5267Z" fill="#96AE41"/>
<path d="M149.148 27.8388L154.041 15.5322L157.475 15.5476L162.178 27.8388H158.496L157.816 26.1895C156.456 26.0827 155.035 26.1539 153.653 26.1523C153.449 26.2215 153.059 27.558 152.952 27.8388H149.148ZM154.328 23.4687H156.998L155.743 19.8266L154.328 23.4687Z" fill="#96AE41"/>
<path d="M104.558 15.5381V18.6942H100.026V21.1221H104.153V24.0759C104.153 24.0844 104.04 24.1973 104.032 24.1973H100.026V27.839H96.4648V15.5381H104.558Z" fill="#96AE41"/>
<path d="M173.831 15.5381V18.8561H170.028V27.839H166.548V18.8561H162.825V15.5381H173.831Z" fill="#96AE41"/>
<path d="M179.172 27.839H175.611V15.5381H179.051C179.059 15.5381 179.172 15.651 179.172 15.6595V27.839Z" fill="#96AE41"/>
<path d="M91.6906 4.04688V38.4409H5.74609V4.04688H91.6906ZM20.313 14.0818H18.6944V27.4348H20.313V14.0818ZM34.718 24.4405L34.5225 24.2718L27.3132 14.0818H25.7351V27.4348H27.3536V16.9952L27.5491 17.1639L34.8394 27.4348H36.4174V14.0818H34.718V24.4405ZM43.4581 14.0818H41.7586V27.4348H43.4581V14.0818ZM58.2678 14.0818H47.5045V15.6194H52.0364V27.4348H53.7358V15.6194H58.2678V14.0818ZM64.0136 14.0818H62.395V27.4348H64.0136V14.0818ZM67.8171 27.4348H69.5571L70.803 24.4907L70.9292 24.4344L77.3127 24.4534C77.5049 24.5194 78.4684 27.0383 78.58 27.4348H80.3604L74.8202 14.0758C74.4633 14.1518 73.4416 13.9366 73.2457 14.2101L67.8167 27.4348H67.8171Z" fill="#1C5B90"/>
<path d="M76.7184 22.8219H71.5391L74.0486 16.4287L76.7184 22.8219Z" fill="#1C5B90"/>
</g>
<defs>
<clipPath id="clip0_1261_717">
<rect width="213" height="42.3248" fill="white"/>
</clipPath>
</defs>
</svg>
