<svg width="33" height="32" viewBox="0 0 33 32" fill="none" xmlns="http://www.w3.org/2000/svg">
<g clip-path="url(#clip0_1405_1188)">
<path fill-rule="evenodd" clip-rule="evenodd" d="M6.46755 0.533203H11.8009C12.0838 0.533203 12.3551 0.645584 12.5551 0.845623C12.7552 1.04566 12.8675 1.31697 12.8675 1.59987V3.7332H5.40088V1.59987C5.40088 1.31697 5.51326 1.04566 5.7133 0.845623C5.91334 0.645584 6.18465 0.533203 6.46755 0.533203Z" fill="#607D8B"/>
<path fill-rule="evenodd" clip-rule="evenodd" d="M11.8007 0.533203H10.2007C10.4836 0.533203 10.7549 0.645584 10.9549 0.845623C11.155 1.04566 11.2674 1.31697 11.2674 1.59987V3.7332H12.8674V1.59987C12.8674 1.31697 12.755 1.04566 12.5549 0.845623C12.3549 0.645584 12.0836 0.533203 11.8007 0.533203Z" fill="#37474F"/>
<path fill-rule="evenodd" clip-rule="evenodd" d="M15.2517 31.4667H3.01596C2.48426 31.4313 1.9881 31.1873 1.63556 30.7877C1.28302 30.3881 1.10268 29.8654 1.13383 29.3334V5.86673C1.10268 5.33477 1.28302 4.81205 1.63556 4.41246C1.9881 4.01287 2.48426 3.76879 3.01596 3.7334H15.2517C15.7834 3.76879 16.2796 4.01287 16.6321 4.41246C16.9846 4.81205 17.165 5.33477 17.1338 5.86673V29.3334C17.165 29.8654 16.9846 30.3881 16.6321 30.7877C16.2796 31.1873 15.7834 31.4313 15.2517 31.4667Z" fill="#3F51B5"/>
<path fill-rule="evenodd" clip-rule="evenodd" d="M15.2519 3.7334H13.6519C14.1836 3.76879 14.6797 4.01287 15.0323 4.41246C15.3848 4.81205 15.5651 5.33477 15.534 5.86673V29.3334C15.5651 29.8654 15.3848 30.3881 15.0323 30.7877C14.6797 31.1873 14.1836 31.4313 13.6519 31.4667H15.2519C15.7836 31.4313 16.2797 31.1873 16.6323 30.7877C16.9848 30.3881 17.1651 29.8654 17.134 29.3334V5.86673C17.1651 5.33477 16.9848 4.81205 16.6323 4.41246C16.2797 4.01287 15.7836 3.76879 15.2519 3.7334Z" fill="#283593"/>
<path fill-rule="evenodd" clip-rule="evenodd" d="M28.8676 14.4004H17.1343V6.40039H23.0964C23.7054 6.40042 24.3017 6.57421 24.8154 6.90137C25.329 7.22853 25.7386 7.69546 25.9961 8.24732L28.8676 14.4004Z" fill="#00BCD4"/>
<path fill-rule="evenodd" clip-rule="evenodd" d="M25.9953 8.24732C25.7378 7.69546 25.3282 7.22853 24.8146 6.90137C24.3009 6.57421 23.7046 6.40042 23.0956 6.40039H21.4956C22.1046 6.40042 22.7009 6.57421 23.2146 6.90137C23.7282 7.22853 24.1378 7.69546 24.3953 8.24732L27.2668 14.4004H28.8668L25.9953 8.24732Z" fill="#00838F"/>
<path fill-rule="evenodd" clip-rule="evenodd" d="M31.0009 17.6004V24.5337C30.9979 25.3815 30.6597 26.1936 30.0603 26.7931C29.4608 27.3925 28.6487 27.7306 27.8009 27.7337H23.0009L21.4009 25.0671H17.1343V14.4004H28.8676C28.8676 14.4004 31.0009 16.0004 31.0009 17.6004Z" fill="#F44335"/>
<path fill-rule="evenodd" clip-rule="evenodd" d="M28.8674 14.4002H27.2674C27.2674 14.4002 29.4007 16.0002 29.4007 17.6002V24.5335C29.3976 25.3813 29.0595 26.1934 28.46 26.7929C27.8606 27.3923 27.0484 27.7304 26.2007 27.7335H27.8007C28.6484 27.7304 29.4606 27.3923 30.06 26.7929C30.6595 26.1934 30.9976 25.3813 31.0007 24.5335V17.6002C31.0007 16.0002 28.8674 14.4002 28.8674 14.4002ZM27.374 11.2002H30.622C30.9851 11.1989 31.3354 11.3344 31.6032 11.5797C31.8709 11.825 32.0363 12.1622 32.0666 12.5241C32.0969 12.8859 31.9897 13.2459 31.7665 13.5323C31.5432 13.8187 31.2203 14.0105 30.862 14.0695L28.8674 14.4002L27.374 11.2002Z" fill="#C81E1E"/>
<path fill-rule="evenodd" clip-rule="evenodd" d="M27.8008 17.5996H31.0008V20.7996H26.2008C26.0594 20.7996 25.9237 20.7434 25.8237 20.6434C25.7237 20.5434 25.6675 20.4077 25.6675 20.2663V19.7329C25.6675 19.1671 25.8922 18.6245 26.2923 18.2244C26.6924 17.8244 27.235 17.5996 27.8008 17.5996Z" fill="#FFDC00"/>
<path fill-rule="evenodd" clip-rule="evenodd" d="M29.4009 17.5996H31.0009V20.7996H29.4009V17.5996Z" fill="#FEC108"/>
<path d="M26.7341 25.0669C27.3233 25.0669 27.8008 24.5894 27.8008 24.0003C27.8008 23.4112 27.3233 22.9336 26.7341 22.9336C26.145 22.9336 25.6675 23.4112 25.6675 24.0003C25.6675 24.5894 26.145 25.0669 26.7341 25.0669Z" fill="#FF9801"/>
<path fill-rule="evenodd" clip-rule="evenodd" d="M23.0009 27.7331H17.1343V25.0664H21.4009L23.0009 27.7331Z" fill="#7F8E94"/>
<path fill-rule="evenodd" clip-rule="evenodd" d="M29.9334 26.9121V30.4001C29.9326 30.6827 29.8199 30.9536 29.6201 31.1534C29.4202 31.3533 29.1494 31.4659 28.8668 31.4668H25.6668C25.3841 31.4659 25.1133 31.3533 24.9135 31.1534C24.7136 30.9536 24.6009 30.6827 24.6001 30.4001V27.7334H27.8001C28.5887 27.7352 29.3496 27.4423 29.9334 26.9121Z" fill="#607D8B"/>
<path fill-rule="evenodd" clip-rule="evenodd" d="M28.3338 27.6833V30.4001C28.3329 30.6827 28.2203 30.9536 28.0204 31.1534C27.8205 31.3533 27.5497 31.4659 27.2671 31.4668H28.8671C29.1497 31.4659 29.4205 31.3533 29.6204 31.1534C29.8203 30.9536 29.9329 30.6827 29.9338 30.4001V26.9121C29.4851 27.3169 28.9299 27.5845 28.3338 27.6833Z" fill="#37474F"/>
<path fill-rule="evenodd" clip-rule="evenodd" d="M4.50723 16.3501L11.096 9.25036C11.528 8.78422 12.2342 9.27756 12.0395 9.90956L10.424 15.1554C10.3796 15.2924 10.3808 15.44 10.4273 15.5763C10.4738 15.7125 10.5632 15.83 10.6822 15.9112L13.6448 17.7842C13.7223 17.8381 13.7876 17.9076 13.8365 17.9883C13.8854 18.0689 13.9169 18.159 13.9288 18.2526C13.9408 18.3462 13.933 18.4412 13.9059 18.5316C13.8789 18.622 13.8332 18.7057 13.7718 18.7773L7.48376 25.9373C7.39038 26.0327 7.2671 26.0931 7.13452 26.1085C7.00194 26.1239 6.86809 26.0933 6.75534 26.0219C6.64259 25.9505 6.55776 25.8425 6.51503 25.7161C6.4723 25.5896 6.47425 25.4523 6.52056 25.3272L7.85923 19.9357C7.89458 19.8025 7.88759 19.6616 7.83923 19.5326C7.79087 19.4036 7.70354 19.2928 7.58936 19.2157L4.62456 17.357C4.54564 17.3025 4.47926 17.2317 4.42985 17.1495C4.38044 17.0672 4.34913 16.9754 4.33803 16.8801C4.32693 16.7848 4.33627 16.6882 4.36545 16.5968C4.39463 16.5055 4.44296 16.4213 4.50723 16.3501Z" fill="#FFDC00"/>
<path d="M30.6221 10.6667H27.7139L26.4792 8.02133C26.1774 7.37856 25.6992 6.83476 25.1003 6.45329C24.5014 6.07182 23.8064 5.86838 23.0963 5.86667H17.6675C17.6983 5.19338 17.4616 4.53521 17.0092 4.03568C16.5567 3.53615 15.9251 3.23576 15.252 3.2H13.4008V1.6C13.4008 1.17565 13.2322 0.768687 12.9322 0.468629C12.6321 0.168571 12.2252 0 11.8008 0L6.46748 0C6.04313 0 5.63617 0.168571 5.33611 0.468629C5.03605 0.768687 4.86748 1.17565 4.86748 1.6V3.2H3.01628C2.34323 3.23576 1.71162 3.53615 1.25914 4.03568C0.806662 4.53521 0.570022 5.19338 0.600813 5.86667V29.3333C0.570022 30.0066 0.806662 30.6648 1.25914 31.1643C1.71162 31.6639 2.34323 31.9642 3.01628 32H15.252C15.9251 31.9642 16.5567 31.6639 17.0092 31.1643C17.4616 30.6648 17.6983 30.0066 17.6675 29.3333V28.2667H24.0675V30.4C24.0675 30.8243 24.2361 31.2313 24.5361 31.5314C24.8362 31.8314 25.2431 32 25.6675 32H28.8675C29.2918 32 29.6988 31.8314 29.9989 31.5314C30.2989 31.2313 30.4675 30.8243 30.4675 30.4V27.1408C31.1512 26.4452 31.5343 25.5087 31.5341 24.5333V17.6C31.5341 16.48 30.7283 15.4261 30.0563 14.7435L30.9517 14.5952C31.4407 14.5124 31.8808 14.2491 32.1847 13.8572C32.4887 13.4653 32.6343 12.9736 32.5929 12.4794C32.5514 11.9852 32.3258 11.5246 31.9609 11.1889C31.5959 10.8532 31.1181 10.6668 30.6221 10.6667ZM23.0963 6.93333C23.6035 6.93457 24.1 7.0799 24.5278 7.35241C24.9556 7.62491 25.2972 8.01337 25.5128 8.47253L28.0301 13.8667H17.6675V6.93333H23.0963ZM5.93415 1.6C5.93415 1.45855 5.99034 1.3229 6.09036 1.22288C6.19038 1.12286 6.32603 1.06667 6.46748 1.06667H11.8008C11.9423 1.06667 12.0779 1.12286 12.1779 1.22288C12.278 1.3229 12.3341 1.45855 12.3341 1.6V3.2H5.93415V1.6ZM16.6008 29.3333C16.6305 29.7236 16.5058 30.1099 16.2535 30.4091C16.0013 30.7083 15.6417 30.8966 15.252 30.9333H3.01628C2.62664 30.8966 2.267 30.7083 2.01475 30.4091C1.7625 30.1099 1.6378 29.7236 1.66748 29.3333V5.86667C1.6378 5.47642 1.7625 5.09013 2.01475 4.79089C2.267 4.49166 2.62664 4.30342 3.01628 4.26667H15.252C15.6417 4.30342 16.0013 4.49166 16.2535 4.79089C16.5058 5.09013 16.6305 5.47642 16.6008 5.86667V29.3333ZM17.6675 25.6H21.0989L22.0589 27.2H17.6675V25.6ZM28.8675 30.9333H25.6675C25.526 30.9333 25.3904 30.8771 25.2904 30.7771C25.1903 30.6771 25.1341 30.5415 25.1341 30.4V28.2667H27.8008C28.3547 28.2659 28.9014 28.1411 29.4008 27.9013V30.4C29.4008 30.5415 29.3446 30.6771 29.2446 30.7771C29.1446 30.8771 29.0089 30.9333 28.8675 30.9333ZM27.8008 27.2H23.3027L21.8579 24.792C21.8105 24.7131 21.7435 24.6478 21.6634 24.6025C21.5833 24.5572 21.4928 24.5334 21.4008 24.5333H17.6675V21.3333H21.9341C22.0756 21.3333 22.2113 21.2771 22.3113 21.1771C22.4113 21.0771 22.4675 20.9415 22.4675 20.8C22.4675 20.6586 22.4113 20.5229 22.3113 20.4229C22.2113 20.3229 22.0756 20.2667 21.9341 20.2667H17.6675V14.9333H28.6829C29.407 15.4978 29.9828 16.23 30.3608 17.0667H27.8008C27.0938 17.0675 26.416 17.3487 25.9161 17.8487C25.4162 18.3486 25.135 19.0264 25.1341 19.7333V20.2667C25.1341 20.5496 25.2465 20.8209 25.4466 21.0209C25.6466 21.221 25.9179 21.3333 26.2008 21.3333H30.4675V24.5333C30.4666 25.2403 30.1854 25.9181 29.6855 26.418C29.1856 26.9179 28.5078 27.1992 27.8008 27.2ZM30.4675 20.2667H26.2008V19.7333C26.2008 19.309 26.3694 18.902 26.6694 18.602C26.9695 18.3019 27.3765 18.1333 27.8008 18.1333H30.4675V20.2667ZM31.3208 13.2331C31.1805 13.3968 30.9876 13.5065 30.7752 13.5435L29.1795 13.8101L28.2115 11.7333H30.6221C30.7958 11.7335 30.9659 11.7832 31.1123 11.8767C31.2587 11.9701 31.3755 12.1034 31.4488 12.2608C31.5222 12.4183 31.5491 12.5934 31.5264 12.7656C31.5037 12.9378 31.4324 13.1 31.3208 13.2331Z" fill="black"/>
<path d="M26.7345 22.4004C26.3101 22.4004 25.9032 22.569 25.6031 22.869C25.303 23.1691 25.1345 23.576 25.1345 24.0004C25.1345 24.4247 25.303 24.8317 25.6031 25.1318C25.9032 25.4318 26.3101 25.6004 26.7345 25.6004C27.1588 25.6004 27.5658 25.4318 27.8658 25.1318C28.1659 24.8317 28.3345 24.4247 28.3345 24.0004C28.3345 23.576 28.1659 23.1691 27.8658 22.869C27.5658 22.569 27.1588 22.4004 26.7345 22.4004ZM26.7345 24.5337C26.593 24.5337 26.4574 24.4775 26.3573 24.3775C26.2573 24.2775 26.2011 24.1418 26.2011 24.0004C26.2011 23.8589 26.2573 23.7233 26.3573 23.6233C26.4574 23.5232 26.593 23.4671 26.7345 23.4671C26.8759 23.4671 27.0116 23.5232 27.1116 23.6233C27.2116 23.7233 27.2678 23.8589 27.2678 24.0004C27.2678 24.1418 27.2116 24.2775 27.1116 24.3775C27.0116 24.4775 26.8759 24.5337 26.7345 24.5337ZM13.9302 17.3337L10.9675 15.4607C10.9485 15.4417 10.9353 15.4178 10.9295 15.3916C10.9236 15.3654 10.9253 15.3381 10.9345 15.3129L12.5478 10.0671C12.6312 9.81082 12.6247 9.53382 12.5295 9.28174C12.4343 9.02966 12.256 8.81755 12.0241 8.68039C11.8136 8.55739 11.567 8.51101 11.3262 8.54912C11.0854 8.58722 10.8652 8.70747 10.703 8.88946L4.11686 15.9881C3.997 16.1186 3.90748 16.2739 3.85474 16.443C3.802 16.6121 3.78733 16.7908 3.8118 16.9663C3.8534 17.3124 4.04806 17.6217 4.34193 17.8089L7.3046 19.6681C7.34193 19.7039 7.3558 19.7577 7.34086 19.8073L6.00166 25.1993C5.93331 25.456 5.95338 25.7282 6.05866 25.972C6.16393 26.2158 6.34826 26.4171 6.58193 26.5433C6.7954 26.6562 7.04106 26.6926 7.27809 26.6465C7.51511 26.6004 7.72923 26.4746 7.88486 26.29L14.1723 19.13C14.2869 18.9984 14.3716 18.8435 14.4205 18.676C14.4694 18.5085 14.4814 18.3324 14.4555 18.1599C14.4328 17.9924 14.3741 17.8318 14.2834 17.6892C14.1927 17.5466 14.0722 17.4253 13.9302 17.3337ZM13.3713 18.426L7.04646 25.5684C7.03744 25.5513 7.03193 25.5326 7.03028 25.5134C7.02863 25.4941 7.03087 25.4748 7.03686 25.4564L8.37606 20.0649C8.4378 19.8227 8.42237 19.5673 8.33192 19.3343C8.24147 19.1013 8.08052 18.9023 7.87153 18.7652L4.90886 16.9071C4.89695 16.8973 4.88716 16.8853 4.8801 16.8716C4.87303 16.8579 4.86885 16.8429 4.8678 16.8276C4.86437 16.8076 4.86527 16.7872 4.87042 16.7676C4.87557 16.748 4.88486 16.7297 4.89766 16.714L11.4865 9.60039C11.5035 9.60786 11.5169 9.62173 11.5254 9.63773C11.5343 9.6557 11.5393 9.67533 11.5401 9.69535C11.5409 9.71538 11.5376 9.73535 11.5302 9.75399L9.91526 14.9988C9.74993 15.5108 9.94726 16.0697 10.3979 16.3636L13.3606 18.2361C13.383 18.2555 13.397 18.2829 13.3995 18.3124C13.4028 18.3323 13.4019 18.3526 13.3971 18.3721C13.3922 18.3916 13.3834 18.41 13.3713 18.426Z" fill="black"/>
<path fill-rule="evenodd" clip-rule="evenodd" d="M23.5339 9.60028C23.3925 9.60025 23.2568 9.54404 23.1568 9.44402L22.6235 8.91068C22.5264 8.81009 22.4726 8.67537 22.4738 8.53554C22.475 8.3957 22.5311 8.26193 22.63 8.16305C22.7289 8.06416 22.8627 8.00807 23.0025 8.00686C23.1423 8.00564 23.2771 8.0594 23.3776 8.15655L23.911 8.68988C23.9855 8.76447 24.0363 8.85949 24.0569 8.96293C24.0775 9.06637 24.0669 9.17359 24.0265 9.27103C23.9862 9.36847 23.9178 9.45176 23.8302 9.51036C23.7425 9.56897 23.6394 9.60026 23.5339 9.60028ZM23.5339 12.2669C23.3925 12.2669 23.2568 12.2107 23.1568 12.1107L19.9568 8.91068C19.8597 8.81009 19.8059 8.67537 19.8071 8.53554C19.8084 8.3957 19.8645 8.26193 19.9633 8.16305C20.0622 8.06416 20.196 8.00807 20.3358 8.00686C20.4757 8.00564 20.6104 8.0594 20.711 8.15655L23.911 11.3565C23.9855 11.4311 24.0363 11.5262 24.0569 11.6296C24.0775 11.733 24.0669 11.8403 24.0265 11.9377C23.9862 12.0351 23.9178 12.1184 23.8302 12.177C23.7425 12.2356 23.6394 12.2669 23.5339 12.2669Z" fill="#F5F5F5"/>
</g>
<defs>
<clipPath id="clip0_1405_1188">
<rect width="32" height="32" fill="white" transform="translate(0.600098)"/>
</clipPath>
</defs>
</svg>
