<svg width="32" height="32" viewBox="0 0 32 32" fill="none" xmlns="http://www.w3.org/2000/svg">
<g clip-path="url(#clip0_1405_1265)">
<path d="M31.4668 11.1574V27.7334C31.4659 26.8236 31.1335 25.9453 30.5317 25.263C29.9299 24.5807 29.1 24.1412 28.1974 24.0267C28.0694 24.0118 27.9513 23.9503 27.8658 23.8539C27.7802 23.7575 27.7331 23.633 27.7334 23.5041V8.00539C27.7327 7.9286 27.7485 7.85255 27.7798 7.78245C27.8112 7.71234 27.8573 7.64983 27.915 7.59919C27.9728 7.54855 28.0407 7.51098 28.1143 7.48903C28.1879 7.46709 28.2654 7.4613 28.3414 7.47205C29.2142 7.6172 30.0072 8.06717 30.5795 8.74196C31.1517 9.41675 31.4661 10.2726 31.4668 11.1574Z" fill="#4B5918"/>
<path d="M31.467 27.7335C31.467 28.2238 31.3704 28.7093 31.1828 29.1622C30.9952 29.6152 30.7202 30.0267 30.3735 30.3734C30.0268 30.7201 29.6153 30.9951 29.1623 31.1827C28.7094 31.3703 28.2239 31.4669 27.7336 31.4669H4.26697C3.31379 31.4717 2.39485 31.1118 1.69853 30.4609C1.0022 29.8099 0.581224 28.9173 0.521893 27.966C0.462562 27.0146 0.769368 26.0766 1.37942 25.3442C1.98948 24.6118 2.85657 24.1405 3.80297 24.0269C3.931 24.0119 4.04906 23.9504 4.13463 23.854C4.22021 23.7576 4.26731 23.6331 4.26697 23.5042V11.2002H27.7336V23.5042C27.7331 23.7709 27.9326 23.9959 28.1976 24.0269C29.1002 24.1413 29.9301 24.5808 30.5319 25.2631C31.1337 25.9454 31.4662 26.8237 31.467 27.7335Z" fill="#96AE41"/>
<path d="M28.1978 24.0269C28.0698 24.0119 27.9517 23.9504 27.8661 23.854C27.7806 23.7576 27.7334 23.6331 27.7338 23.5042V11.2002H26.1338V23.5042C26.1333 23.7709 26.3327 23.9959 26.5978 24.0269C27.5442 24.1405 28.4113 24.6118 29.0213 25.3442C29.6314 26.0766 29.9382 27.0146 29.8789 27.966C29.8195 28.9173 29.3986 29.8099 28.7022 30.4609C28.0059 31.1118 27.087 31.4717 26.1338 31.4669H27.7338C28.687 31.4717 29.6059 31.1118 30.3022 30.4609C30.9986 29.8099 31.4195 28.9173 31.4789 27.966C31.5382 27.0146 31.2314 26.0766 30.6213 25.3442C30.0113 24.6118 29.1442 24.1405 28.1978 24.0269Z" fill="#BCD26E"/>
<path d="M4.26678 8.00539V23.5041C4.26712 23.633 4.22002 23.7575 4.13444 23.8539C4.04887 23.9503 3.93081 24.0118 3.80278 24.0267C2.90022 24.1412 2.07032 24.5807 1.46851 25.263C0.866708 25.9453 0.534266 26.8236 0.533447 27.7334V11.1574C0.534082 10.2726 0.848477 9.41675 1.42073 8.74196C1.99298 8.06717 2.786 7.6172 3.65878 7.47205C3.73482 7.4613 3.81228 7.46709 3.88587 7.48903C3.95946 7.51098 4.02744 7.54855 4.08517 7.59919C4.1429 7.64983 4.18902 7.71234 4.22036 7.78245C4.2517 7.85255 4.26754 7.9286 4.26678 8.00539Z" fill="#4B5918"/>
<path d="M18.8267 23.9996H17.1013L17.6971 19.0929C17.7091 19.015 17.6957 18.9354 17.6591 18.8657C17.6224 18.796 17.5644 18.7399 17.4935 18.7056C17.4225 18.6713 17.3425 18.6607 17.2651 18.6753C17.1877 18.6899 17.117 18.729 17.0635 18.7868L12.9003 23.3596C12.8502 23.413 12.8167 23.4798 12.8037 23.5518C12.7906 23.6239 12.7987 23.6981 12.8269 23.7657C12.855 23.8333 12.9021 23.8913 12.9624 23.9328C13.0227 23.9743 13.0938 23.9975 13.1669 23.9996H14.8928L14.2976 28.9062C14.2847 28.9846 14.2975 29.0651 14.3342 29.1356C14.3708 29.2061 14.4294 29.2628 14.501 29.2972C14.5726 29.3317 14.6534 29.3419 14.7314 29.3265C14.8093 29.3112 14.8802 29.2709 14.9333 29.2118L19.0933 24.6396C19.1434 24.5861 19.1769 24.5194 19.19 24.4473C19.203 24.3753 19.1949 24.301 19.1668 24.2334C19.1386 24.1658 19.0915 24.1078 19.0312 24.0663C18.9709 24.0249 18.8999 24.0017 18.8267 23.9996Z" fill="#FFDC00"/>
<path d="M15.0619 11.7333L8.96586 25.9573C8.93802 26.0219 8.89769 26.0803 8.84718 26.1293C8.79667 26.1782 8.73699 26.2167 8.67155 26.2425C8.60612 26.2682 8.53624 26.2808 8.46593 26.2795C8.39561 26.2781 8.32626 26.2629 8.26186 26.2347C7.7422 26.0117 7.33232 25.5915 7.12231 25.0665C6.9123 24.5414 6.91933 23.9545 7.14186 23.4347L12.1605 11.7227C12.1957 11.7291 12.2315 11.7328 12.2672 11.7333H15.0619Z" fill="#EDFCB8"/>
<path d="M20.2667 7.46649V11.1998C20.2673 11.3169 20.2287 11.4308 20.1573 11.5235C20.0858 11.6163 19.9854 11.6825 19.8721 11.7118C19.8275 11.7271 19.7805 11.7343 19.7334 11.7332H12.2667C12.1253 11.7332 11.9896 11.677 11.8896 11.5769C11.7896 11.4769 11.7334 11.3413 11.7334 11.1998V7.46649C11.7334 6.75924 12.0144 6.08097 12.5144 5.58087C13.0145 5.08077 13.6928 4.79982 14.4001 4.79982V2.22382C14.3912 1.80824 14.5386 1.40446 14.8131 1.09237C15.0877 0.780284 15.4694 0.582619 15.8827 0.538488C16.1021 0.522361 16.3223 0.551619 16.5299 0.624437C16.7374 0.697255 16.9276 0.812069 17.0888 0.96171C17.2499 1.11135 17.3785 1.29261 17.4665 1.49416C17.5545 1.69572 17.5999 1.91324 17.6001 2.13315V4.79982C18.3073 4.79982 18.9856 5.08077 19.4857 5.58087C19.9858 6.08097 20.2667 6.75924 20.2667 7.46649Z" fill="#EDFCB8"/>
<path d="M17.6004 4.79982V2.13315C17.6002 1.91324 17.5547 1.69572 17.4668 1.49416C17.3788 1.29261 17.2502 1.11135 17.0891 0.96171C16.9279 0.812069 16.7377 0.697255 16.5302 0.624437C16.3226 0.551619 16.1024 0.522361 15.883 0.538488C15.6441 0.557155 15.4137 0.632888 15.21 0.759821C15.3262 0.827021 15.434 0.909155 15.53 1.00249C15.8308 1.30169 16.0004 1.70862 16.0004 2.13315V4.79982C16.7076 4.79982 17.3859 5.08077 17.886 5.58087C18.3861 6.08097 18.667 6.75924 18.667 7.46649V11.1998C18.6676 11.3169 18.629 11.4308 18.5575 11.5235C18.4861 11.6163 18.3857 11.6825 18.2724 11.7118C18.2278 11.7271 18.1808 11.7343 18.1337 11.7332H19.7337C19.7808 11.7343 19.8278 11.7271 19.8724 11.7118C19.9857 11.6825 20.0861 11.6163 20.1575 11.5235C20.229 11.4308 20.2676 11.3169 20.267 11.1998V7.46649C20.267 6.75924 19.9861 6.08097 19.486 5.58087C18.9859 5.08077 18.3076 4.79982 17.6004 4.79982Z" fill="#BCD26E"/>
<path d="M23.7703 26.2346C23.7062 26.2624 23.6373 26.2774 23.5674 26.2785C23.4976 26.2796 23.4282 26.2669 23.3633 26.2412C23.2983 26.2154 23.2392 26.177 23.1891 26.1283C23.139 26.0796 23.0991 26.0215 23.0716 25.9572L16.9756 11.7332H19.7329C19.78 11.7344 19.827 11.7272 19.8716 11.7119L24.8956 23.4346C25.0056 23.6923 25.0638 23.9692 25.0668 24.2494C25.0698 24.5296 25.0175 24.8077 24.913 25.0677C24.8085 25.3277 24.6538 25.5646 24.4577 25.7648C24.2616 25.9651 24.028 26.1247 23.7703 26.2346Z" fill="#EDFCB8"/>
<path d="M24.8962 23.4346L19.8722 11.7119C19.8276 11.7272 19.7806 11.7344 19.7335 11.7332H18.2812L23.2946 23.4346C23.4501 23.801 23.4996 24.2038 23.4374 24.597C23.3752 24.9903 23.2037 25.3581 22.9426 25.6586L23.0706 25.9572C23.0981 26.0215 23.138 26.0796 23.1881 26.1283C23.2381 26.177 23.2973 26.2154 23.3623 26.2412C23.4272 26.2669 23.4966 26.2796 23.5664 26.2785C23.6363 26.2774 23.7052 26.2624 23.7693 26.2346C24.0272 26.1248 24.2609 25.9653 24.4572 25.7652C24.6534 25.565 24.8083 25.3282 24.913 25.0681C25.0176 24.8081 25.07 24.53 25.0671 24.2497C25.0643 23.9694 25.0062 23.6924 24.8962 23.4346Z" fill="#BCD26E"/>
<path d="M16.0003 9.60013C16.5894 9.60013 17.0669 9.12257 17.0669 8.53346C17.0669 7.94436 16.5894 7.4668 16.0003 7.4668C15.4112 7.4668 14.9336 7.94436 14.9336 8.53346C14.9336 9.12257 15.4112 9.60013 16.0003 9.60013Z" fill="#9E9E9E"/>
<path d="M28.4267 6.94665C28.277 6.92279 28.1239 6.93171 27.9779 6.97277C27.832 7.01384 27.6967 7.08608 27.5814 7.18452C27.462 7.28518 27.366 7.41068 27.3002 7.55226C27.2343 7.69385 27.2001 7.8481 27.2 8.00425V10.6667H22.4C22.2586 10.6667 22.1229 10.7228 22.0229 10.8229C21.9229 10.9229 21.8667 11.0585 21.8667 11.2C21.8667 11.3414 21.9229 11.4771 22.0229 11.5771C22.1229 11.6771 22.2586 11.7333 22.4 11.7333H27.2V23.5029C27.2 24.0389 27.599 24.4912 28.1307 24.5579C28.939 24.6585 29.6785 25.0637 30.1985 25.6907C30.7184 26.3177 30.9797 27.1194 30.929 27.9324C30.8784 28.7453 30.5196 29.5084 29.9258 30.066C29.332 30.6236 28.5479 30.9338 27.7334 30.9333H4.26671C3.45215 30.9338 2.66808 30.6236 2.07429 30.066C1.48051 29.5084 1.12172 28.7453 1.07106 27.9324C1.02039 27.1194 1.28166 26.3177 1.80161 25.6907C2.32157 25.0637 3.06106 24.6585 3.86938 24.5579C4.12636 24.5255 4.36271 24.4005 4.53406 24.2063C4.70541 24.012 4.79999 23.7619 4.80004 23.5029V11.7333H9.60004C9.74149 11.7333 9.87715 11.6771 9.97717 11.5771C10.0772 11.4771 10.1334 11.3414 10.1334 11.2C10.1334 11.0585 10.0772 10.9229 9.97717 10.8229C9.87715 10.7228 9.74149 10.6667 9.60004 10.6667H4.80004V8.00425C4.80004 7.68852 4.66138 7.38878 4.42031 7.18452C4.30457 7.08626 4.16899 7.01414 4.02282 6.97309C3.87665 6.93204 3.72335 6.92302 3.57338 6.94665C2.57326 7.10763 1.66358 7.62066 1.00837 8.39321C0.353169 9.16577 -0.00443846 10.147 4.15885e-05 11.16V27.7333C0.00131205 28.8645 0.451243 29.949 1.25112 30.7489C2.051 31.5488 3.13551 31.9987 4.26671 32H27.7334C28.8646 31.9987 29.9491 31.5488 30.749 30.7489C31.5488 29.949 31.9988 28.8645 32 27.7333V11.1579C32.004 10.1452 31.6462 9.16451 30.991 8.3924C30.3359 7.62029 29.4265 7.10757 28.4267 6.94665ZM1.06671 11.1579C1.06269 10.4007 1.3291 9.66702 1.81798 9.08887C2.30687 8.51071 2.9861 8.12609 3.73338 8.00425V11.2053L3.73871 23.4997C2.70491 23.627 1.75396 24.1298 1.06671 24.9125V11.1579ZM30.9334 24.9125C30.2478 24.131 29.2986 23.6293 28.2667 23.5029L28.256 11.2533C28.2608 11.2358 28.2644 11.218 28.2667 11.2C28.2643 11.182 28.2607 11.1642 28.256 11.1467V7.99998C29.0054 8.12098 29.6869 8.50561 30.1778 9.08458C30.6686 9.66356 30.9366 10.3988 30.9334 11.1579V24.9125Z" fill="black"/>
<path d="M15.3267 29.571L19.4899 24.9966C19.7352 24.7273 19.7976 24.3385 19.6499 24.0057C19.5808 23.8448 19.4658 23.7079 19.3194 23.612C19.1729 23.5161 19.0014 23.4655 18.8264 23.4665H17.7032L18.2259 19.1582C18.2505 18.9658 18.213 18.7705 18.1189 18.6009C18.0248 18.4313 17.8789 18.2962 17.7027 18.2153C17.5301 18.1359 17.3366 18.1138 17.1506 18.1522C16.9645 18.1905 16.7956 18.2874 16.6685 18.4286L12.5053 23.003C12.3856 23.135 12.3068 23.2988 12.2784 23.4747C12.25 23.6506 12.2732 23.831 12.3453 23.9939C12.4144 24.1547 12.5293 24.2915 12.6756 24.3874C12.822 24.4833 12.9933 24.5339 13.1683 24.5331H14.2931L13.7704 28.8419C13.7453 29.0318 13.7813 29.2247 13.8732 29.3927C13.9651 29.5607 14.1082 29.695 14.2816 29.7763C14.455 29.8575 14.6498 29.8814 14.8377 29.8445C15.0256 29.8076 15.1969 29.7118 15.3267 29.571ZM13.5256 23.4665L17.1059 19.5326L16.5725 23.9358C16.5635 24.0106 16.5704 24.0865 16.5928 24.1584C16.6152 24.2304 16.6526 24.2968 16.7026 24.3532C16.7525 24.4097 16.8138 24.4549 16.8825 24.4859C16.9512 24.5169 17.0257 24.533 17.1011 24.5331H18.4696L14.8893 28.467L15.4227 24.0638C15.4317 23.989 15.4248 23.9131 15.4024 23.8411C15.3799 23.7692 15.3425 23.7028 15.2926 23.6464C15.2427 23.5899 15.1813 23.5447 15.1126 23.5137C15.044 23.4827 14.9695 23.4666 14.8941 23.4665H13.5256Z" fill="black"/>
<path d="M6.62663 25.2644C6.82832 25.7693 7.18089 26.1997 7.63623 26.4969L6.97597 28.0585C6.9208 28.1888 6.91965 28.3356 6.97276 28.4667C7.02587 28.5979 7.12889 28.7025 7.25917 28.7577C7.38944 28.8129 7.53629 28.814 7.66742 28.7609C7.79854 28.7078 7.9032 28.6048 7.95837 28.4745L8.67303 26.7828C8.84409 26.7523 9.00502 26.6802 9.14157 26.5727C9.27813 26.4653 9.38611 26.3259 9.45597 26.1668L13.585 16.5332H15.4672V17.5998C15.4672 17.7413 15.5234 17.8769 15.6234 17.9769C15.7234 18.077 15.859 18.1332 16.0005 18.1332C16.1419 18.1332 16.2776 18.077 16.3776 17.9769C16.4776 17.8769 16.5338 17.7413 16.5338 17.5998V16.5332H18.4538L22.5834 26.1684C22.6944 26.4297 22.9061 26.635 23.1701 26.7385C23.232 26.762 23.296 26.7796 23.361 26.7918L24.0378 28.4644C24.0638 28.5297 24.1024 28.5894 24.1515 28.6398C24.2005 28.6902 24.2591 28.7304 24.3237 28.758C24.3884 28.7857 24.4579 28.8003 24.5283 28.801C24.5986 28.8017 24.6684 28.7885 24.7336 28.7621C24.7988 28.7357 24.8581 28.6967 24.9082 28.6473C24.9583 28.5979 24.9981 28.5391 25.0253 28.4742C25.0526 28.4094 25.0667 28.3398 25.0669 28.2694C25.0671 28.1991 25.0535 28.1294 25.0266 28.0644L24.392 26.4948C24.9146 26.1526 25.3004 25.6378 25.4823 25.0402C25.6642 24.4427 25.6305 23.8002 25.3872 23.2249L20.5338 11.899C20.705 11.7065 20.8 11.4574 20.8005 11.1998V7.46649C20.7996 6.71047 20.5314 5.97912 20.0434 5.40166C19.5555 4.8242 18.8791 4.43781 18.1338 4.31076V2.13316C18.1338 1.8399 18.0733 1.54979 17.9561 1.28096C17.839 1.01212 17.6676 0.770334 17.4528 0.570689C17.238 0.371044 16.9844 0.217832 16.7077 0.12062C16.431 0.0234077 16.1372 -0.0157159 15.8448 0.00569204C15.2967 0.0589849 14.7888 0.316802 14.4223 0.727778C14.0558 1.13875 13.8576 1.67272 13.8672 2.22329V4.31076C13.1219 4.43781 12.4455 4.8242 11.9576 5.40166C11.4696 5.97912 11.2014 6.71047 11.2005 7.46649V11.1998C11.2005 11.4713 11.3056 11.7316 11.4922 11.9284L6.6517 23.2244C6.51281 23.5458 6.43907 23.8917 6.43477 24.2418C6.43047 24.592 6.49568 24.9396 6.62663 25.2644ZM16.5338 15.4665V14.3998C16.5338 14.2584 16.4776 14.1227 16.3776 14.0227C16.2776 13.9227 16.1419 13.8665 16.0005 13.8665C15.859 13.8665 15.7234 13.9227 15.6234 14.0227C15.5234 14.1227 15.4672 14.2584 15.4672 14.3998V15.4665H14.0421L15.4138 12.2665H16.6256L17.9968 15.4665H16.5338ZM23.5626 25.747L17.785 12.2665H19.5301L24.4064 23.6446C24.5719 24.0355 24.5761 24.4759 24.418 24.8698C24.2599 25.2637 23.9524 25.5791 23.5626 25.747ZM12.2672 7.46649C12.2672 6.9007 12.4919 6.35808 12.892 5.958C13.2921 5.55792 13.8347 5.33316 14.4005 5.33316C14.5419 5.33316 14.6776 5.27697 14.7776 5.17695C14.8776 5.07693 14.9338 4.94127 14.9338 4.79983V2.22329C14.927 1.94292 15.0241 1.66992 15.2064 1.45684C15.3888 1.24377 15.6435 1.10568 15.9216 1.06916C15.9472 1.06649 15.9722 1.06649 16.0005 1.06649C16.2834 1.06649 16.5547 1.17887 16.7547 1.37891C16.9548 1.57895 17.0672 1.85026 17.0672 2.13316V4.79983C17.0672 4.94127 17.1234 5.07693 17.2234 5.17695C17.3234 5.27697 17.4591 5.33316 17.6005 5.33316C18.1663 5.33316 18.7089 5.55792 19.109 5.958C19.5091 6.35808 19.7338 6.9007 19.7338 7.46649V11.1998H12.2672V7.46649ZM7.63197 23.6446L12.5077 12.2665H14.2533L8.47197 25.7444C8.08229 25.5771 7.77493 25.262 7.61743 24.8683C7.45992 24.4746 7.46515 24.0345 7.63197 23.6446Z" fill="black"/>
<path d="M16.0004 6.93359C15.576 6.93359 15.1691 7.10216 14.869 7.40222C14.569 7.70228 14.4004 8.10925 14.4004 8.53359C14.4004 8.95794 14.569 9.36491 14.869 9.66496C15.1691 9.96502 15.576 10.1336 16.0004 10.1336C16.4247 10.1336 16.8317 9.96502 17.1318 9.66496C17.4318 9.36491 17.6004 8.95794 17.6004 8.53359C17.6004 8.10925 17.4318 7.70228 17.1318 7.40222C16.8317 7.10216 16.4247 6.93359 16.0004 6.93359ZM16.0004 9.06693C15.8589 9.06693 15.7233 9.01074 15.6233 8.91072C15.5232 8.8107 15.4671 8.67504 15.4671 8.53359C15.4671 8.39215 15.5232 8.25649 15.6233 8.15647C15.7233 8.05645 15.8589 8.00026 16.0004 8.00026C16.1418 8.00026 16.2775 8.05645 16.3775 8.15647C16.4775 8.25649 16.5337 8.39215 16.5337 8.53359C16.5337 8.67504 16.4775 8.8107 16.3775 8.91072C16.2775 9.01074 16.1418 9.06693 16.0004 9.06693Z" fill="black"/>
</g>
<defs>
<clipPath id="clip0_1405_1265">
<rect width="32" height="32" fill="white"/>
</clipPath>
</defs>
</svg>
