<svg width="32" height="32" viewBox="0 0 32 32" fill="none" xmlns="http://www.w3.org/2000/svg">
<path d="M21.0535 7.72414C21.3601 7.02885 21.5179 6.27713 21.5169 5.51724C21.5169 2.47007 19.0468 0 15.9997 0C12.9525 0 10.4824 2.47007 10.4824 5.51724C10.4814 6.27713 10.6393 7.02885 10.9459 7.72414L15.9997 8.82759L21.0535 7.72414Z" fill="#F3D55B"/>
<path d="M14.3447 25.9307H17.6551V29.241H14.3447V25.9307Z" fill="#7F8C8D"/>
<path d="M30.8966 23.7245V25.3797C30.8957 25.6721 30.7792 25.9522 30.5725 26.159C30.3657 26.3657 30.0856 26.4823 29.7932 26.4831H2.20696C1.91458 26.4823 1.63442 26.3657 1.42767 26.159C1.22093 25.9522 1.10439 25.6721 1.10352 25.3797V23.7245L16.0001 22.0693L30.8966 23.7245Z" fill="#BDC3C7"/>
<path d="M30.8966 23.7246H1.10352L2.12972 18.7591L2.36145 17.6556L3.27179 13.2419L3.498 12.1384L4.23179 8.60185C4.28378 8.35363 4.41969 8.13089 4.61664 7.97112C4.81359 7.81135 5.05956 7.7243 5.31317 7.72461H26.687C26.9406 7.7243 27.1865 7.81135 27.3835 7.97112C27.5805 8.13089 27.7164 8.35363 27.7683 8.60185L28.5021 12.1384L28.7283 13.2419L29.6387 17.6556L29.8704 18.7591L30.8966 23.7246Z" fill="#E4E3E3"/>
<path d="M11.5868 28.6895H20.4144C20.9997 28.6895 21.561 28.922 21.9749 29.3358C22.3888 29.7497 22.6213 30.311 22.6213 30.8963V31.4481C22.6213 31.5944 22.5631 31.7347 22.4597 31.8382C22.3562 31.9417 22.2159 31.9998 22.0695 31.9998H9.93161C9.78528 31.9998 9.64495 31.9417 9.54148 31.8382C9.43801 31.7347 9.37988 31.5944 9.37988 31.4481V30.8963C9.37988 30.311 9.61239 29.7497 10.0263 29.3358C10.4401 28.922 11.0015 28.6895 11.5868 28.6895Z" fill="#BDC3C7"/>
<path d="M29.8706 18.7591L29.6388 17.6556H21.7878L21.1809 13.2419H28.7285L28.5023 12.1384H21.0264L20.4195 7.72461H19.3051L19.912 12.1384H12.0885L12.6954 7.72461H11.5809L10.974 12.1384H3.49816L3.27195 13.2419H10.8195L10.2126 17.6556H2.36161L2.12988 18.7591H10.0582L9.37402 23.7246H10.4885L11.1726 18.7591H20.8278L21.512 23.7246H22.6264L21.9423 18.7591H29.8706ZM11.3271 17.6556L11.934 13.2419H20.0664L20.6733 17.6556H11.3271Z" fill="white"/>
<path d="M8.27529 6.06888H7.17184C7.02551 6.06888 6.88518 6.01075 6.78171 5.90728C6.67825 5.80381 6.62012 5.66348 6.62012 5.51715C6.62012 5.37083 6.67825 5.23049 6.78171 5.12702C6.88518 5.02356 7.02551 4.96543 7.17184 4.96543H8.27529C8.42162 4.96543 8.56195 5.02356 8.66542 5.12702C8.76889 5.23049 8.82701 5.37083 8.82701 5.51715C8.82701 5.66348 8.76889 5.80381 8.66542 5.90728C8.56195 6.01075 8.42162 6.06888 8.27529 6.06888ZM9.30977 2.20681C9.21292 2.2068 9.11778 2.1813 9.03391 2.13288L8.07888 1.58115C8.01562 1.54519 7.96011 1.49707 7.91553 1.43957C7.87095 1.38206 7.83818 1.31631 7.81912 1.24609C7.80005 1.17587 7.79507 1.10257 7.80445 1.03041C7.81383 0.95826 7.83738 0.888673 7.87377 0.825661C7.91015 0.762648 7.95863 0.707454 8.01643 0.663256C8.07423 0.619058 8.1402 0.58673 8.21055 0.568132C8.28089 0.549534 8.35422 0.545034 8.42631 0.554891C8.4984 0.564748 8.56783 0.588767 8.6306 0.625566L9.58563 1.17729C9.69081 1.23802 9.77301 1.33176 9.81948 1.44396C9.86595 1.55617 9.87411 1.68057 9.84267 1.79788C9.81124 1.91519 9.74198 2.01885 9.64563 2.09279C9.54927 2.16672 9.43122 2.2068 9.30977 2.20681ZM22.6891 2.20681C22.5676 2.2068 22.4496 2.16672 22.3532 2.09279C22.2569 2.01885 22.1876 1.91519 22.1562 1.79788C22.1247 1.68057 22.1329 1.55617 22.1794 1.44396C22.2258 1.33176 22.308 1.23802 22.4132 1.17729L23.3683 0.625566C23.431 0.588767 23.5005 0.564748 23.5725 0.554891C23.6446 0.545034 23.718 0.549534 23.7883 0.568132C23.8587 0.58673 23.9246 0.619058 23.9824 0.663256C24.0402 0.707454 24.0887 0.762648 24.1251 0.825661C24.1615 0.888673 24.185 0.95826 24.1944 1.03041C24.2038 1.10257 24.1988 1.17587 24.1797 1.24609C24.1607 1.31631 24.1279 1.38206 24.0833 1.43957C24.0387 1.49707 23.9832 1.54519 23.92 1.58115L22.9649 2.13288C22.8811 2.1813 22.7859 2.2068 22.6891 2.20681ZM24.827 6.06888H23.7236C23.5772 6.06888 23.4369 6.01075 23.3334 5.90728C23.23 5.80381 23.1718 5.66348 23.1718 5.51715C23.1718 5.37083 23.23 5.23049 23.3334 5.12702C23.4369 5.02356 23.5772 4.96543 23.7236 4.96543H24.827C24.9733 4.96543 25.1137 5.02356 25.2171 5.12702C25.3206 5.23049 25.3787 5.37083 25.3787 5.51715C25.3787 5.66348 25.3206 5.80381 25.2171 5.90728C25.1137 6.01075 24.9733 6.06888 24.827 6.06888Z" fill="#F0C419"/>
</svg>
