<svg width="33" height="32" viewBox="0 0 33 32" fill="none" xmlns="http://www.w3.org/2000/svg">
<g clip-path="url(#clip0_1405_1232)">
<path d="M23.1992 19.733L29.3699 14.789L28.0259 13.125L23.7326 16.533L23.1992 19.733Z" fill="#607D8B"/>
<path d="M30.1333 14.9327C31.3115 14.9327 32.2667 13.9776 32.2667 12.7993C32.2667 11.6211 31.3115 10.666 30.1333 10.666C28.9551 10.666 28 11.6211 28 12.7993C28 13.9776 28.9551 14.9327 30.1333 14.9327Z" fill="#FFEB3A"/>
<path d="M24.2129 23.467H21.5996V10.667H24.2129C24.3685 10.667 24.5178 10.7288 24.6278 10.8388C24.7378 10.9488 24.7996 11.0981 24.7996 11.2537V22.8803C24.7996 23.0359 24.7378 23.1851 24.6278 23.2952C24.5178 23.4052 24.3685 23.467 24.2129 23.467Z" fill="#607D8B"/>
<path d="M21.0663 0.533203H2.39967C1.81057 0.533203 1.33301 1.01077 1.33301 1.59987V30.3999C1.33301 30.989 1.81057 31.4665 2.39967 31.4665H21.0663C21.6554 31.4665 22.133 30.989 22.133 30.3999V1.59987C22.133 1.01077 21.6554 0.533203 21.0663 0.533203Z" fill="#607D8B"/>
<path d="M19.4663 0.533203H2.39967C1.81057 0.533203 1.33301 1.01077 1.33301 1.59987V30.3999C1.33301 30.989 1.81057 31.4665 2.39967 31.4665H19.4663C20.0554 31.4665 20.533 30.989 20.533 30.3999V1.59987C20.533 1.01077 20.0554 0.533203 19.4663 0.533203Z" fill="#CFD8DC"/>
<path d="M17.1198 14.213L7.38114 25.6423C7.30086 25.7359 7.19066 25.7987 7.06928 25.8202C6.94789 25.8417 6.82282 25.8204 6.71534 25.7601C6.60785 25.6997 6.52458 25.604 6.4797 25.4892C6.43482 25.3744 6.43109 25.2476 6.46914 25.1303L6.57581 24.8103L9.09848 17.237C9.12561 17.1567 9.1332 17.071 9.12061 16.9871C9.10801 16.9033 9.07561 16.8236 9.02607 16.7548C8.97653 16.686 8.91129 16.6299 8.83577 16.5914C8.76025 16.5528 8.67661 16.5328 8.59181 16.533H6.77848C6.69993 16.5329 6.62238 16.5154 6.55138 16.4818C6.48037 16.4482 6.41766 16.3994 6.36773 16.3387C6.3178 16.2781 6.28187 16.2072 6.26253 16.131C6.24318 16.0549 6.24088 15.9755 6.25581 15.8983L8.18648 5.76501C8.20998 5.64356 8.27497 5.53406 8.37032 5.45525C8.46566 5.37644 8.58544 5.33323 8.70914 5.33301H14.9918C15.0766 5.33279 15.1602 5.3528 15.2358 5.39137C15.3113 5.42994 15.3765 5.48597 15.4261 5.5548C15.4756 5.62363 15.508 5.70328 15.5206 5.78714C15.5332 5.87101 15.5256 5.95667 15.4985 6.03701L13.3011 12.629C13.274 12.7094 13.2664 12.795 13.279 12.8789C13.2916 12.9627 13.324 13.0424 13.3736 13.1112C13.4231 13.1801 13.4883 13.2361 13.5638 13.2747C13.6394 13.3132 13.723 13.3332 13.8078 13.333H16.7091C16.8116 13.332 16.9121 13.3604 16.9988 13.415C17.0854 13.4696 17.1545 13.548 17.1978 13.6408C17.2411 13.7336 17.2568 13.8369 17.243 13.9384C17.2291 14.0398 17.1864 14.1352 17.1198 14.213Z" fill="#FDD834"/>
<path d="M15.6051 14.213L6.57581 24.8103L9.09848 17.237C9.12561 17.1567 9.1332 17.071 9.12061 16.9871C9.10801 16.9033 9.07561 16.8236 9.02607 16.7548C8.97653 16.686 8.91129 16.6299 8.83577 16.5914C8.76025 16.5528 8.67661 16.5328 8.59181 16.533H6.77848C6.69993 16.5329 6.62238 16.5154 6.55138 16.4818C6.48037 16.4482 6.41766 16.3994 6.36773 16.3387C6.3178 16.2781 6.28187 16.2072 6.26253 16.131C6.24318 16.0549 6.24088 15.9755 6.25581 15.8983L8.18648 5.76501C8.20998 5.64356 8.27497 5.53406 8.37032 5.45525C8.46566 5.37644 8.58544 5.33323 8.70914 5.33301H13.4825C13.5668 5.33363 13.6498 5.35426 13.7247 5.39319C13.7995 5.43212 13.864 5.48824 13.913 5.55696C13.9619 5.62567 13.9938 5.70501 14.0061 5.78846C14.0185 5.87191 14.0108 5.95709 13.9838 6.03701L11.7865 12.629C11.7602 12.7093 11.7533 12.7947 11.7662 12.8783C11.7792 12.9618 11.8117 13.0411 11.861 13.1097C11.9104 13.1783 11.9753 13.2343 12.0504 13.2731C12.1254 13.3119 12.2086 13.3324 12.2931 13.333H15.1998C15.3018 13.333 15.4016 13.3622 15.4874 13.4172C15.5733 13.4722 15.6416 13.5506 15.6843 13.6432C15.7269 13.7358 15.7421 13.8387 15.7281 13.9397C15.7141 14.0407 15.6714 14.1355 15.6051 14.213Z" fill="#FFEB3A"/>
<path d="M30.1331 10.1333C29.4262 10.1342 28.7484 10.4154 28.2485 10.9153C27.7485 11.4152 27.4673 12.093 27.4665 12.8C27.4665 12.8293 27.4739 12.856 27.475 12.8848L25.3331 14.6133V11.2C25.3331 10.9171 25.2208 10.6458 25.0207 10.4458C24.8207 10.2457 24.5494 10.1333 24.2665 10.1333H22.6665V1.6C22.6665 1.17565 22.4979 0.768687 22.1978 0.468629C21.8978 0.168571 21.4908 0 21.0665 0L2.3998 0C1.97546 0 1.56849 0.168571 1.26843 0.468629C0.968376 0.768687 0.799805 1.17565 0.799805 1.6L0.799805 30.4C0.799805 30.8243 0.968376 31.2313 1.26843 31.5314C1.56849 31.8314 1.97546 32 2.3998 32H21.0665C21.4908 32 21.8978 31.8314 22.1978 31.5314C22.4979 31.2313 22.6665 30.8243 22.6665 30.4V24H24.2665C24.5494 24 24.8207 23.8876 25.0207 23.6876C25.2208 23.4875 25.3331 23.2162 25.3331 22.9333V18.7296L29.4889 15.3792C29.8549 15.471 30.2363 15.484 30.6078 15.4172C30.9792 15.3504 31.3322 15.2055 31.6434 14.9919C31.9546 14.7784 32.2168 14.5011 32.4127 14.1786C32.6087 13.856 32.7338 13.4955 32.7798 13.1209C32.8258 12.7463 32.7916 12.3662 32.6796 12.0058C32.5676 11.6454 32.3802 11.313 32.13 11.0305C31.8797 10.748 31.5722 10.5219 31.228 10.3672C30.8837 10.2126 30.5105 10.1328 30.1331 10.1333ZM21.5998 30.4C21.5998 30.5415 21.5436 30.6771 21.4436 30.7771C21.3436 30.8771 21.2079 30.9333 21.0665 30.9333H2.3998C2.25836 30.9333 2.1227 30.8771 2.02268 30.7771C1.92266 30.6771 1.86647 30.5415 1.86647 30.4V1.6C1.86647 1.45855 1.92266 1.3229 2.02268 1.22288C2.1227 1.12286 2.25836 1.06667 2.3998 1.06667H21.0665C21.2079 1.06667 21.3436 1.12286 21.4436 1.22288C21.5436 1.3229 21.5998 1.45855 21.5998 1.6V30.4ZM24.2665 22.9333H22.6665V11.2H24.2665V22.9333ZM25.3331 17.3595V15.9829L27.7731 14.0149C27.939 14.3358 28.1684 14.6195 28.4473 14.8491L25.3331 17.3595ZM30.1331 14.4C29.7088 14.4 29.3018 14.2314 29.0018 13.9314C28.7017 13.6313 28.5331 13.2243 28.5331 12.8C28.5331 12.3757 28.7017 11.9687 29.0018 11.6686C29.3018 11.3686 29.7088 11.2 30.1331 11.2C30.5575 11.2 30.9645 11.3686 31.2645 11.6686C31.5646 11.9687 31.7331 12.3757 31.7331 12.8C31.7331 13.2243 31.5646 13.6313 31.2645 13.9314C30.9645 14.2314 30.5575 14.4 30.1331 14.4Z" fill="black"/>
<path d="M17.8664 12.7998H13.8061L16.2392 5.50167C16.2659 5.42149 16.2732 5.33612 16.2604 5.25258C16.2476 5.16904 16.2152 5.08973 16.1658 5.02119C16.1164 4.95264 16.0513 4.89683 15.9761 4.85834C15.9009 4.81985 15.8176 4.79978 15.7331 4.7998H8.2664C8.14229 4.79985 8.02208 4.84318 7.92648 4.92232C7.83088 5.00147 7.76587 5.11148 7.74266 5.2334L5.60933 16.4334C5.59466 16.5105 5.59718 16.5899 5.61671 16.6659C5.63624 16.7419 5.6723 16.8126 5.72232 16.8731C5.77234 16.9336 5.83509 16.9822 5.90609 17.0157C5.97709 17.0491 6.05459 17.0664 6.13306 17.0665H8.59333L5.0936 27.5646C5.05459 27.682 5.05763 27.8094 5.10219 27.9248C5.14674 28.0402 5.23005 28.1366 5.33783 28.1973C5.44561 28.2581 5.57117 28.2795 5.69299 28.2578C5.81481 28.2362 5.92533 28.1729 6.0056 28.0787L18.2723 13.6787C18.3382 13.6012 18.3806 13.5064 18.3945 13.4055C18.4083 13.3047 18.3929 13.202 18.3503 13.1095C18.3076 13.0171 18.2393 12.9388 18.1536 12.884C18.0679 12.8291 17.9682 12.7999 17.8664 12.7998ZM6.9736 25.2979L9.8392 16.7017C9.8659 16.6215 9.87317 16.5361 9.86041 16.4526C9.84764 16.369 9.81521 16.2897 9.76578 16.2212C9.71635 16.1526 9.65134 16.0968 9.57611 16.0583C9.50088 16.0198 9.41757 15.9998 9.33307 15.9998H6.77733L8.708 5.86647H14.9933L12.5603 13.1646C12.5336 13.2448 12.5263 13.3302 12.5391 13.4137C12.5518 13.4972 12.5843 13.5765 12.6337 13.6451C12.6831 13.7136 12.7481 13.7694 12.8234 13.8079C12.8986 13.8464 12.9819 13.8665 13.0664 13.8665H16.7112L6.9736 25.2979Z" fill="black"/>
</g>
<defs>
<clipPath id="clip0_1405_1232">
<rect width="32" height="32" fill="white" transform="translate(0.799805)"/>
</clipPath>
</defs>
</svg>
