<svg width="33" height="32" viewBox="0 0 33 32" fill="none" xmlns="http://www.w3.org/2000/svg">
<path d="M27.4 18.667V20.267C27.4 21.739 26.4453 22.9337 25.2667 22.9337H7.13333C5.95467 22.9337 5 21.739 5 20.267V18.667H27.4Z" fill="#DFC49C"/>
<path d="M27.4 14.9331V13.8664C27.4031 12.5877 27.1605 11.3202 26.6853 10.133C26.175 8.84741 25.4076 7.67953 24.4299 6.70099C23.4523 5.72246 22.2852 4.95388 21 4.44238L11.4 4.45305C9.51281 5.20016 7.89363 6.49705 6.75245 8.17554C5.61126 9.85404 5.00072 11.8367 5 13.8664V14.9331H27.4Z" fill="#FEC108"/>
<path d="M11.4004 14.9332V4.26654C11.4012 3.9839 11.5139 3.71308 11.7137 3.51322C11.9136 3.31337 12.1844 3.20071 12.4671 3.19987H13.5337V1.59987C13.5346 1.31723 13.6472 1.04641 13.8471 0.846555C14.0469 0.646699 14.3178 0.534047 14.6004 0.533203H17.8004C18.083 0.534047 18.3538 0.646699 18.5537 0.846555C18.7536 1.04641 18.8662 1.31723 18.8671 1.59987V3.19987H19.9337C20.2164 3.20071 20.4872 3.31337 20.687 3.51322C20.8869 3.71308 20.9995 3.9839 21.0004 4.26654V4.44254L20.4671 14.9332H11.4004Z" fill="#FFDC00"/>
<path d="M19.9335 3.19987H18.8669V1.59987C18.866 1.31723 18.7534 1.04641 18.5535 0.846555C18.3537 0.646699 18.0828 0.534047 17.8002 0.533203H16.2002C16.4828 0.534047 16.7537 0.646699 16.9535 0.846555C17.1534 1.04641 17.266 1.31723 17.2669 1.59987V2.1332C17.2669 2.4161 17.3792 2.68741 17.5793 2.88745C17.7793 3.08749 18.0506 3.19987 18.3335 3.19987C18.6162 3.20071 18.887 3.31337 19.0868 3.51322C19.2867 3.71308 19.3994 3.9839 19.4002 4.26654V14.9332H21.0002V4.26654C20.9994 3.9839 20.8867 3.71308 20.6868 3.51322C20.487 3.31337 20.2162 3.20071 19.9335 3.19987Z" fill="#FEC108"/>
<path d="M25.2618 18.667V23.8243C25.261 24.632 24.9991 25.4177 24.5151 26.0643L21.5818 29.9737C21.2338 30.437 20.7828 30.8132 20.2645 31.0723C19.7461 31.3315 19.1746 31.4666 18.5951 31.467H13.8005C13.2209 31.4666 12.6494 31.3315 12.1311 31.0723C11.6128 30.8132 11.1618 30.437 10.8138 29.9737L7.88046 26.0643C7.39647 25.4177 7.13456 24.632 7.13379 23.8243V18.667" fill="#FFE0B2"/>
<path d="M23.6618 18.667V23.8243C23.661 24.632 23.3991 25.4177 22.9151 26.0643L19.9818 29.9737C19.6338 30.437 19.1828 30.8132 18.6645 31.0723C18.1461 31.3315 17.5746 31.4666 16.9951 31.467H18.5951C19.1746 31.4666 19.7461 31.3315 20.2645 31.0723C20.7828 30.8132 21.2338 30.437 21.5818 29.9737L24.5151 26.0643C24.9991 25.4177 25.261 24.632 25.2618 23.8243V18.667H23.6618Z" fill="#DFC49C"/>
<path d="M22.6003 14.9336H5.00026C4.71762 14.9344 4.4468 15.0471 4.24695 15.2469C4.04709 15.4468 3.93444 15.7176 3.93359 16.0003V18.1336C3.93359 18.275 3.98978 18.4107 4.0898 18.5107C4.18982 18.6107 4.32548 18.6669 4.46693 18.6669H27.9336C28.075 18.6669 28.2107 18.6107 28.3107 18.5107C28.4107 18.4107 28.4669 18.275 28.4669 18.1336V16.0003C28.4661 15.7176 28.3534 15.4468 28.1536 15.2469C27.9537 15.0471 27.6829 14.9344 27.4003 14.9336H22.6003Z" fill="#FFEB3A"/>
<path d="M27.4008 14.9336H25.8008C26.0834 14.9344 26.3542 15.0471 26.5541 15.2469C26.754 15.4468 26.8666 15.7176 26.8674 16.0003V18.1336C26.8674 18.275 26.8113 18.4107 26.7112 18.5107C26.6112 18.6107 26.4756 18.6669 26.3341 18.6669H27.9341C28.0756 18.6669 28.2112 18.6107 28.3112 18.5107C28.4113 18.4107 28.4674 18.275 28.4674 18.1336V16.0003C28.4666 15.7176 28.354 15.4468 28.1541 15.2469C27.9542 15.0471 27.6834 14.9344 27.4008 14.9336Z" fill="#FDD834"/>
<path d="M18.5594 8.53361H17.1194L17.6154 4.60881C17.6227 4.54489 17.6096 4.48031 17.5781 4.4242C17.5467 4.3681 17.4984 4.32331 17.44 4.29618C17.3817 4.26905 17.3163 4.26095 17.2531 4.27303C17.1899 4.28511 17.1322 4.31675 17.0879 4.36347L13.6213 8.02321C13.5806 8.06648 13.5535 8.12076 13.5435 8.1793C13.5334 8.23784 13.5407 8.29804 13.5646 8.35243C13.5885 8.40682 13.6278 8.45299 13.6777 8.4852C13.7276 8.51742 13.7859 8.53425 13.8453 8.53361H15.2853L14.7893 12.4584C14.782 12.5223 14.7951 12.5869 14.8265 12.643C14.858 12.6991 14.9063 12.7439 14.9647 12.771C15.023 12.7982 15.0884 12.8063 15.1516 12.7942C15.2147 12.7821 15.2725 12.7505 15.3167 12.7037L18.7834 9.04401C18.8243 9.00082 18.8516 8.94651 18.8618 8.88789C18.8721 8.82927 18.8648 8.76894 18.8408 8.71445C18.8169 8.65996 18.7775 8.61373 18.7274 8.58156C18.6773 8.5494 18.6189 8.53271 18.5594 8.53361Z" fill="#00BCD4"/>
<path d="M27.9337 14.4981V13.8667C27.9379 12.5208 27.6826 11.1868 27.1817 9.9376C26.1374 7.31874 24.1012 5.21816 21.5161 4.0928C21.4741 3.70201 21.2895 3.34044 20.9975 3.0773C20.7055 2.81417 20.3268 2.66796 19.9337 2.66667H19.4004V1.6C19.4004 1.17565 19.2318 0.768687 18.9318 0.468629C18.6317 0.168571 18.2247 0 17.8004 0L14.6004 0C14.176 0 13.7691 0.168571 13.469 0.468629C13.169 0.768687 13.0004 1.17565 13.0004 1.6V2.66667H12.4671C12.0723 2.66795 11.6921 2.81538 11.3997 3.08052C11.1073 3.34565 10.9234 3.70969 10.8836 4.1024C8.97772 4.92597 7.35458 6.28938 6.21437 8.02448C5.07416 9.75957 4.46675 11.7905 4.46706 13.8667V14.4981C4.15617 14.608 3.88684 14.8113 3.6959 15.0802C3.50497 15.349 3.40176 15.6703 3.40039 16L3.40039 18.1333C3.40039 18.4162 3.51277 18.6875 3.71281 18.8876C3.91285 19.0876 4.18416 19.2 4.46706 19.2V20.2667C4.46706 21.8133 5.38279 23.1024 6.60039 23.4016V23.824C6.59958 24.7473 6.89909 25.6458 7.45372 26.384L10.3871 30.2933C10.7857 30.822 11.3012 31.2512 11.8934 31.5473C12.4856 31.8434 13.1383 31.9983 13.8004 32H18.5951C19.2572 31.9984 19.9099 31.8435 20.5021 31.5474C21.0943 31.2513 21.6098 30.822 22.0084 30.2933L24.9417 26.3824C25.4967 25.6444 25.7963 24.7458 25.7951 23.8224V23.4667H25.8004C25.8832 23.4667 25.9648 23.4474 26.0389 23.4104C26.113 23.3733 26.1774 23.3196 26.2271 23.2533C26.7628 22.9654 27.2069 22.5328 27.5087 22.0047C27.8104 21.4766 27.9577 20.8744 27.9337 20.2667V19.2C28.2166 19.2 28.4879 19.0876 28.688 18.8876C28.888 18.6875 29.0004 18.4162 29.0004 18.1333V16C28.999 15.6703 28.8958 15.349 28.7049 15.0802C28.5139 14.8113 28.2446 14.608 27.9337 14.4981ZM5.53372 20.2667V19.2H6.60039V22.2688C6.25587 22.0652 5.97407 21.7707 5.78591 21.4175C5.59775 21.0643 5.5105 20.6662 5.53372 20.2667ZM24.0884 25.744L21.1551 29.6533C20.8562 30.0499 20.4695 30.3718 20.0253 30.5939C19.5812 30.816 19.0916 30.9321 18.5951 30.9333H13.8004C13.3038 30.9321 12.8143 30.816 12.3701 30.5939C11.926 30.3718 11.5393 30.0499 11.2404 29.6533L8.30706 25.7451C7.89104 25.1915 7.6664 24.5176 7.66706 23.8251V22.9461C7.66706 22.9419 7.66972 22.9381 7.66972 22.9333C7.66972 22.9285 7.66706 22.9248 7.66706 22.9205V19.2H24.7284V23.824C24.7293 24.5165 24.5046 25.1905 24.0884 25.744ZM26.8671 20.2667C26.8906 20.6671 26.803 21.0663 26.6138 21.42C26.4246 21.7738 26.1412 22.0683 25.7951 22.2709V19.2H26.8671V20.2667ZM27.9337 18.1333H4.46706V16C4.46706 15.8586 4.52325 15.7229 4.62327 15.6229C4.72329 15.5229 4.85894 15.4667 5.00039 15.4667H7.66706C7.80851 15.4667 7.94416 15.4105 8.04418 15.3105C8.1442 15.2104 8.20039 15.0748 8.20039 14.9333C8.20039 14.7919 8.1442 14.6562 8.04418 14.5562C7.94416 14.4562 7.80851 14.4 7.66706 14.4H5.53372V13.8667C5.52984 12.6549 5.75982 11.4537 6.21106 10.3291C6.6943 9.11134 7.42198 8.00557 8.34919 7.08C9.0843 6.34623 9.9349 5.73814 10.8671 5.28V6.93333C10.8671 7.07478 10.9232 7.21044 11.0233 7.31046C11.1233 7.41048 11.2589 7.46667 11.4004 7.46667C11.5418 7.46667 11.6775 7.41048 11.7775 7.31046C11.8775 7.21044 11.9337 7.07478 11.9337 6.93333V4.26667C11.9337 4.12522 11.9899 3.98956 12.0899 3.88954C12.19 3.78952 12.3256 3.73333 12.4671 3.73333H13.5337C13.6752 3.73333 13.8108 3.67714 13.9108 3.57712C14.0109 3.4771 14.0671 3.34145 14.0671 3.2V1.6C14.0671 1.45855 14.1232 1.3229 14.2233 1.22288C14.3233 1.12286 14.4589 1.06667 14.6004 1.06667H17.8004C17.9418 1.06667 18.0775 1.12286 18.1775 1.22288C18.2775 1.3229 18.3337 1.45855 18.3337 1.6V3.2C18.3337 3.34145 18.3899 3.4771 18.4899 3.57712C18.59 3.67714 18.7256 3.73333 18.8671 3.73333H19.9337C20.0752 3.73333 20.2108 3.78952 20.3108 3.88954C20.4109 3.98956 20.4671 4.12522 20.4671 4.26667V6.93333C20.4671 7.07478 20.5232 7.21044 20.6233 7.31046C20.7233 7.41048 20.8589 7.46667 21.0004 7.46667C21.1418 7.46667 21.2775 7.41048 21.3775 7.31046C21.4775 7.21044 21.5337 7.07478 21.5337 6.93333V5.27307C23.6559 6.32871 25.3141 8.1301 26.1908 10.3323C26.6415 11.4559 26.8711 12.656 26.8671 13.8667V14.4H24.7337C24.5923 14.4 24.4566 14.4562 24.3566 14.5562C24.2566 14.6562 24.2004 14.7919 24.2004 14.9333C24.2004 15.0748 24.2566 15.2104 24.3566 15.3105C24.4566 15.4105 24.5923 15.4667 24.7337 15.4667H27.4004C27.5418 15.4667 27.6775 15.5229 27.7775 15.6229C27.8775 15.7229 27.9337 15.8586 27.9337 16V18.1333Z" fill="black"/>
<path d="M22.5999 14.3999H21.5333V12.7999C21.5333 12.6585 21.4771 12.5228 21.3771 12.4228C21.277 12.3228 21.1414 12.2666 20.9999 12.2666C20.8585 12.2666 20.7228 12.3228 20.6228 12.4228C20.5228 12.5228 20.4666 12.6585 20.4666 12.7999V14.3999H11.9333V12.7999C11.9333 12.6585 11.8771 12.5228 11.7771 12.4228C11.677 12.3228 11.5414 12.2666 11.3999 12.2666C11.2585 12.2666 11.1228 12.3228 11.0228 12.4228C10.9228 12.5228 10.8666 12.6585 10.8666 12.7999V14.3999H9.79993C9.65849 14.3999 9.52283 14.4561 9.42281 14.5561C9.32279 14.6562 9.2666 14.7918 9.2666 14.9333C9.2666 15.0747 9.32279 15.2104 9.42281 15.3104C9.52283 15.4104 9.65849 15.4666 9.79993 15.4666H22.5999C22.7414 15.4666 22.877 15.4104 22.9771 15.3104C23.0771 15.2104 23.1333 15.0747 23.1333 14.9333C23.1333 14.7918 23.0771 14.6562 22.9771 14.5561C22.877 14.4561 22.7414 14.3999 22.5999 14.3999Z" fill="black"/>
<path d="M13.845 9.06656H14.6786L14.2578 12.3914C14.2365 12.5669 14.2711 12.7446 14.3567 12.8994C14.4423 13.0541 14.5745 13.1778 14.7345 13.253C14.8946 13.3282 15.0743 13.3509 15.248 13.318C15.4217 13.2851 15.5806 13.1982 15.7021 13.0698L19.1687 9.41056C19.2813 9.29185 19.3565 9.14274 19.3851 8.9817C19.4137 8.82066 19.3944 8.65477 19.3296 8.50459C19.2648 8.35441 19.1574 8.22654 19.0206 8.13683C18.8838 8.04712 18.7238 7.9995 18.5602 7.99989H17.7271L18.1474 4.67509C18.1689 4.49957 18.1345 4.32172 18.049 4.16693C17.9635 4.01214 17.8313 3.88831 17.6712 3.8131C17.5111 3.73789 17.3314 3.71515 17.1577 3.74812C16.9839 3.78109 16.8251 3.86808 16.7037 3.99669L13.2343 7.65589C13.1219 7.77482 13.0469 7.9241 13.0185 8.08526C12.9902 8.24641 13.0097 8.41235 13.0747 8.56252C13.1397 8.71269 13.2473 8.84048 13.3842 8.93007C13.5212 9.01967 13.6814 9.06712 13.845 9.06656ZM17.0007 5.23242L16.5922 8.46656C16.5827 8.54171 16.5894 8.61802 16.6117 8.69041C16.634 8.7628 16.6715 8.8296 16.7217 8.88636C16.7718 8.94313 16.8335 8.98856 16.9026 9.01963C16.9717 9.0507 17.0466 9.0667 17.1223 9.06656H18.029L15.405 11.834L15.8141 8.59989C15.8236 8.52469 15.8169 8.44834 15.7945 8.37591C15.7722 8.30349 15.7346 8.23666 15.6844 8.17989C15.6342 8.12311 15.5725 8.07769 15.5033 8.04666C15.4342 8.01562 15.3592 7.99968 15.2834 7.99989H14.3767L17.0007 5.23242Z" fill="black"/>
</svg>
