<svg width="32" height="32" viewBox="0 0 32 32" fill="none" xmlns="http://www.w3.org/2000/svg">
<g clip-path="url(#clip0_1351_7369)">
<path d="M16.0002 31.6663C7.3335 31.6663 0.333496 24.6663 0.333496 15.9997C0.333496 7.33301 7.3335 0.333008 16.0002 0.333008C24.6668 0.333008 31.6668 7.33301 31.6668 15.9997C31.6668 24.6663 24.6668 31.6663 16.0002 31.6663ZM16.0002 2.93301C8.80016 2.93301 2.9335 8.79967 2.9335 15.9997C2.9335 23.1997 8.80016 29.0663 16.0002 29.0663C23.2002 29.0663 29.0668 23.1997 29.0668 15.9997C29.0668 8.79967 23.2002 2.93301 16.0002 2.93301Z" fill="#353942"/>
<path d="M20.8666 10.6001C21.7333 11.3335 22.1333 12.4668 22.1333 14.0001C22.1333 15.5335 21.6666 16.6001 20.7999 17.3335C19.9333 18.0668 18.5333 18.4001 16.7333 18.4001H15.0666V22.5335C15.0666 23.2668 14.4666 23.9335 13.6666 23.9335C12.9333 23.9335 12.2666 23.3335 12.2666 22.5335V10.7335C12.2666 10.0001 12.8666 9.4668 13.5333 9.4668H16.5999C18.6666 9.4668 20.0666 9.8668 20.8666 10.6001ZM18.8666 15.4001C19.1999 15.0001 19.3333 14.4668 19.3333 13.8001C19.3333 13.1335 19.1333 12.6001 18.6666 12.2668C18.2666 12.0001 17.5999 11.8001 16.6666 11.8001H15.0666V16.0001H16.9333C17.9333 16.0001 18.5333 15.8001 18.8666 15.4001Z" fill="#353942"/>
</g>
<defs>
<clipPath id="clip0_1351_7369">
<rect width="32" height="32" fill="white"/>
</clipPath>
</defs>
</svg>
