<svg width="64" height="64" viewBox="0 0 64 64" fill="none" xmlns="http://www.w3.org/2000/svg">
<circle cx="32" cy="32" r="32" fill="#1C5B90"/>
<path fill-rule="evenodd" clip-rule="evenodd" d="M23 38V26C23 23.7909 24.7909 22 27 22H37C39.2091 22 41 23.7909 41 26V32.3431C41 32.6509 40.9645 32.955 40.8959 33.25H37C34.3766 33.25 32.25 35.3766 32.25 38V41.8959C31.955 41.9645 31.6509 42 31.3431 42H27C24.7909 42 23 40.2091 23 38ZM33.75 41.1949C33.898 41.0833 34.039 40.961 34.1716 40.8284L39.8284 35.1716C39.961 35.039 40.0833 34.898 40.1949 34.75H37C35.2051 34.75 33.75 36.2051 33.75 38V41.1949ZM27.25 27C27.25 26.5858 27.5858 26.25 28 26.25H36C36.4142 26.25 36.75 26.5858 36.75 27C36.75 27.4142 36.4142 27.75 36 27.75H28C27.5858 27.75 27.25 27.4142 27.25 27ZM28 30.25C27.5858 30.25 27.25 30.5858 27.25 31C27.25 31.4142 27.5858 31.75 28 31.75H32C32.4142 31.75 32.75 31.4142 32.75 31C32.75 30.5858 32.4142 30.25 32 30.25H28Z" fill="white"/>
</svg>
