<svg width="152" height="24" viewBox="0 0 152 24" fill="none" xmlns="http://www.w3.org/2000/svg">
<path d="M10.0328 3.27141C10.8375 1.5762 13.1625 1.5762 13.9672 3.27141L15.3579 6.20118C15.6774 6.87435 16.2951 7.34094 17.0096 7.44888L20.1193 7.91869C21.9187 8.19053 22.6371 10.4895 21.3351 11.8091L19.0849 14.0896C18.5679 14.6136 18.332 15.3685 18.454 16.1084L18.9852 19.3285C19.2926 21.1918 17.4116 22.6126 15.8022 21.7329L13.0208 20.2126C12.3817 19.8633 11.6183 19.8633 10.9792 20.2126L8.19776 21.7329C6.58839 22.6126 4.70742 21.1918 5.01479 19.3286L5.54599 16.1084C5.66804 15.3685 5.43211 14.6136 4.91508 14.0896L2.66488 11.8091C1.36287 10.4895 2.08133 8.19053 3.88066 7.91869L6.99037 7.44888C7.70489 7.34094 8.32257 6.87435 8.64211 6.20118L10.0328 3.27141Z" fill="#96AE41"/>
<path d="M42.0328 3.27141C42.8375 1.5762 45.1625 1.5762 45.9672 3.27141L47.3579 6.20118C47.6774 6.87435 48.2951 7.34094 49.0096 7.44888L52.1193 7.91869C53.9187 8.19053 54.6371 10.4895 53.3351 11.8091L51.0849 14.0896C50.5679 14.6136 50.332 15.3685 50.454 16.1084L50.9852 19.3285C51.2926 21.1918 49.4116 22.6126 47.8022 21.7329L45.0208 20.2126C44.3817 19.8633 43.6183 19.8633 42.9792 20.2126L40.1978 21.7329C38.5884 22.6126 36.7074 21.1918 37.0148 19.3286L37.546 16.1084C37.668 15.3685 37.4321 14.6136 36.9151 14.0896L34.6649 11.8091C33.3629 10.4895 34.0813 8.19053 35.8807 7.91869L38.9904 7.44888C39.7049 7.34094 40.3226 6.87435 40.6421 6.20118L42.0328 3.27141Z" fill="#96AE41"/>
<path d="M74.0328 3.27141C74.8375 1.5762 77.1625 1.5762 77.9672 3.27141L79.3579 6.20118C79.6774 6.87435 80.2951 7.34094 81.0096 7.44888L84.1193 7.91869C85.9187 8.19053 86.6371 10.4895 85.3351 11.8091L83.0849 14.0896C82.5679 14.6136 82.332 15.3685 82.454 16.1084L82.9852 19.3285C83.2926 21.1918 81.4116 22.6126 79.8022 21.7329L77.0208 20.2126C76.3817 19.8633 75.6183 19.8633 74.9792 20.2126L72.1978 21.7329C70.5884 22.6126 68.7074 21.1918 69.0148 19.3286L69.546 16.1084C69.668 15.3685 69.4321 14.6136 68.9151 14.0896L66.6649 11.8091C65.3629 10.4895 66.0813 8.19053 67.8807 7.91869L70.9904 7.44888C71.7049 7.34094 72.3226 6.87435 72.6421 6.20118L74.0328 3.27141Z" fill="#96AE41"/>
<path d="M106.033 3.27141C106.837 1.5762 109.162 1.5762 109.967 3.27141L111.358 6.20118C111.677 6.87435 112.295 7.34094 113.01 7.44888L116.119 7.91869C117.919 8.19053 118.637 10.4895 117.335 11.8091L115.085 14.0896C114.568 14.6136 114.332 15.3685 114.454 16.1084L114.985 19.3285C115.293 21.1918 113.412 22.6126 111.802 21.7329L109.021 20.2126C108.382 19.8633 107.618 19.8633 106.979 20.2126L104.198 21.7329C102.588 22.6126 100.707 21.1918 101.015 19.3286L101.546 16.1084C101.668 15.3685 101.432 14.6136 100.915 14.0896L98.6649 11.8091C97.3629 10.4895 98.0813 8.19053 99.8807 7.91869L102.99 7.44888C103.705 7.34094 104.323 6.87435 104.642 6.20118L106.033 3.27141Z" fill="#96AE41"/>
<path d="M138.033 3.27141C138.837 1.5762 141.162 1.5762 141.967 3.27141L143.358 6.20118C143.677 6.87435 144.295 7.34094 145.01 7.44888L148.119 7.91869C149.919 8.19053 150.637 10.4895 149.335 11.8091L147.085 14.0896C146.568 14.6136 146.332 15.3685 146.454 16.1084L146.985 19.3285C147.293 21.1918 145.412 22.6126 143.802 21.7329L141.021 20.2126C140.382 19.8633 139.618 19.8633 138.979 20.2126L136.198 21.7329C134.588 22.6126 132.707 21.1918 133.015 19.3286L133.546 16.1084C133.668 15.3685 133.432 14.6136 132.915 14.0896L130.665 11.8091C129.363 10.4895 130.081 8.19053 131.881 7.91869L134.99 7.44888C135.705 7.34094 136.323 6.87435 136.642 6.20118L138.033 3.27141Z" fill="#96AE41"/>
</svg>
