<svg width="18" height="17" viewBox="0 0 18 17" fill="none" xmlns="http://www.w3.org/2000/svg">
<path d="M7.361 1.22617C8.03157 -0.186512 9.96908 -0.186514 10.6396 1.22616L11.7986 3.66764C12.0649 4.22861 12.5796 4.61744 13.175 4.70739L15.7664 5.0989C17.2659 5.32544 17.8646 7.24128 16.7796 8.34089L14.9044 10.2413C14.4736 10.678 14.277 11.3071 14.3787 11.9237L14.8213 14.6071C15.0775 16.1598 13.51 17.3439 12.1689 16.6108L9.85102 15.3438C9.31845 15.0527 8.68221 15.0527 8.14964 15.3438L5.8318 16.6108C4.49065 17.3439 2.92318 16.1598 3.17931 14.6071L3.62198 11.9237C3.72369 11.3071 3.52709 10.678 3.09623 10.2413L1.22105 8.34089C0.136047 7.24128 0.734766 5.32544 2.23421 5.0989L4.82564 4.70739C5.42107 4.61744 5.9358 4.22861 6.20208 3.66764L7.361 1.22617Z" fill="#FEC108"/>
</svg>
