<svg width="100" height="100" viewBox="0 0 100 100" fill="none" xmlns="http://www.w3.org/2000/svg">
<circle cx="50" cy="50" r="50" fill="#96AE41" fill-opacity="0.1"/>
<path fill-rule="evenodd" clip-rule="evenodd" d="M49.25 37.1578C49.0338 37.0865 48.8258 36.9836 48.6336 36.8489C44.3863 33.8726 38.4254 32.5239 33.9887 32.0225C31.7928 31.7744 30 33.608 30 35.8704V58.3999C30 60.6622 31.7928 62.4965 33.9887 62.7446C38.4254 63.246 44.3863 64.5947 48.6336 67.571C48.8258 67.7057 49.0338 67.8086 49.25 67.8799V37.1578ZM50.75 67.8799C50.9662 67.8086 51.1742 67.7057 51.3664 67.571C55.6137 64.5947 61.5746 63.246 66.0113 62.7446C68.2072 62.4965 70 60.6622 70 58.3999V35.8704C70 33.608 68.2072 31.7744 66.0113 32.0225C61.5746 32.5239 55.6137 33.8726 51.3664 36.8489C51.1742 36.9836 50.9662 37.0865 50.75 37.1578V67.8799ZM35.2588 42.3945C35.3222 41.9852 35.7054 41.7047 36.1148 41.7681C38.6833 42.1659 41.5625 42.829 44.2705 43.8762C44.6568 44.0256 44.8489 44.4599 44.6995 44.8463C44.5501 45.2326 44.1158 45.4247 43.7295 45.2753C41.1486 44.2772 38.3798 43.6368 35.8852 43.2504C35.4759 43.187 35.1954 42.8038 35.2588 42.3945ZM36.1148 49.7681C35.7054 49.7047 35.3222 49.9852 35.2588 50.3945C35.1954 50.8038 35.4759 51.187 35.8852 51.2504C37.1439 51.4454 38.4744 51.7053 39.8165 52.0439C40.2182 52.1453 40.6259 51.9018 40.7272 51.5002C40.8285 51.0986 40.5851 50.6908 40.1835 50.5895C38.7908 50.2381 37.414 49.9693 36.1148 49.7681Z" fill="#96AE41"/>
</svg>
