<svg width="100" height="100" viewBox="0 0 100 100" fill="none" xmlns="http://www.w3.org/2000/svg">
<circle cx="50" cy="50" r="50" fill="#96AE41" fill-opacity="0.1"/>
<path fill-rule="evenodd" clip-rule="evenodd" d="M33 32C31.3431 32 30 33.3431 30 35V39.25H36V35C36 33.3431 34.6569 32 33 32ZM30 40.75V62.6667C30 63.5321 30.2807 64.3743 30.8 65.0667L33 68L35.2 65.0667C35.7193 64.3743 36 63.5321 36 62.6667V40.75H30ZM66 32H46C43.7909 32 42 33.7909 42 36V64C42 66.2091 43.7909 68 46 68H53C53.5523 68 54 67.5523 54 67V57C54 56.4477 54.4477 56 55 56H69C69.5523 56 70 55.5523 70 55V36C70 33.7909 68.2091 32 66 32ZM49.25 40C49.25 39.5858 49.5858 39.25 50 39.25H62C62.4142 39.25 62.75 39.5858 62.75 40C62.75 40.4142 62.4142 40.75 62 40.75H50C49.5858 40.75 49.25 40.4142 49.25 40ZM50 47.25C49.5858 47.25 49.25 47.5858 49.25 48C49.25 48.4142 49.5858 48.75 50 48.75H62C62.4142 48.75 62.75 48.4142 62.75 48C62.75 47.5858 62.4142 47.25 62 47.25H50ZM71.1289 60.9878C71.6744 60.3643 71.6113 59.4167 70.9878 58.8712C70.3644 58.3256 69.4167 58.3888 68.8712 59.0123L63.1314 65.5721C62.9552 65.7734 62.6517 65.8004 62.4427 65.6332L58.9371 62.8287C58.2902 62.3112 57.3463 62.4161 56.8288 63.063C56.3112 63.7099 56.4161 64.6538 57.063 65.1713L60.5687 67.9758C62.0312 69.1459 64.1557 68.9571 65.3891 67.5476L71.1289 60.9878Z" fill="#96AE41"/>
</svg>
