<svg width="32" height="32" viewBox="0 0 32 32" fill="none" xmlns="http://www.w3.org/2000/svg">
<path d="M9.33317 9.33333V6.66667C9.33317 5.19391 10.5271 4 11.9998 4H26.6665C28.1393 4 29.3332 5.19391 29.3332 6.66667V18.6667C29.3332 20.1394 28.1393 21.3333 26.6665 21.3333H19.9998M14.6665 10H23.9998M18.6665 15.3333H23.9998M7.44755 22.1144C8.48895 23.1558 10.1774 23.1558 11.2188 22.1144C11.7189 21.6143 12.3972 21.3333 13.1044 21.3333H13.3332C14.8059 21.3333 15.9998 22.5272 15.9998 24V25.3333C15.9998 26.8061 14.8059 28 13.3332 28H5.33317C3.86041 28 2.6665 26.8061 2.6665 25.3333V24C2.6665 22.5272 3.86041 21.3333 5.33317 21.3333H5.56193C6.26918 21.3333 6.94746 21.6143 7.44755 22.1144ZM11.9998 16C11.9998 17.4728 10.8059 18.6667 9.33317 18.6667C7.86041 18.6667 6.6665 17.4728 6.6665 16C6.6665 14.5272 7.86041 13.3333 9.33317 13.3333C10.8059 13.3333 11.9998 14.5272 11.9998 16Z" stroke="#353942" stroke-width="2" stroke-linecap="round"/>
</svg>
