<svg width="24" height="24" viewBox="0 0 24 24" fill="none" xmlns="http://www.w3.org/2000/svg">
<path d="M22 12V6C22 3.79086 20.2091 2 18 2H6C3.79086 2 2 3.79086 2 6V18C2 20.2091 3.79086 22 6 22H22" stroke="#757B7B" stroke-width="1.5" stroke-linecap="round"/>
<path d="M22 12L20 10" stroke="#757B7B" stroke-width="1.5" stroke-linecap="round" stroke-linejoin="round"/>
<path d="M12 6V10.5M10.5 13.5L9 15" stroke="#757B7B" stroke-width="1.5" stroke-linecap="round" stroke-linejoin="round"/>
<path d="M13.5 12C13.5 12.8284 12.8284 13.5 12 13.5C11.1716 13.5 10.5 12.8284 10.5 12C10.5 11.1716 11.1716 10.5 12 10.5C12.8284 10.5 13.5 11.1716 13.5 12Z" stroke="#757B7B" stroke-width="1.5"/>
</svg>
