<svg xmlns="http://www.w3.org/2000/svg" xmlns:xlink="http://www.w3.org/1999/xlink"><symbol viewBox="0 0 279 74" id="_logo" xmlns="http://www.w3.org/2000/svg"><g fill="currentColor" fill-rule="evenodd"><path d="M73.38.463H.368v73.014h73.014V.463zM69.195 4.64v64.658H4.553V4.64h64.641z" fill-rule="nonzero"/><path d="M14.694 51.453v3.268h3.342v3.309c0 1.833-.199 2.79-.716 3.548-.557.757-1.313 1.116-2.466 1.116-1.074 0-1.87-.36-2.387-1.116-.557-.837-.796-1.834-.796-4.226V47.348c0-2.393.199-3.429.796-4.226.477-.717 1.273-1.076 2.307-1.076 1.035 0 1.79.359 2.268 1.076.596.877.795 1.913.795 4.863h4.018c0-3.707-.358-5.74-1.591-7.294-1.193-1.475-2.983-2.312-5.49-2.312-2.546 0-4.336.837-5.49 2.312-1.273 1.554-1.591 3.826-1.591 7.175v9.008c0 3.388.318 5.62 1.59 7.215 1.155 1.435 2.985 2.271 5.57 2.271 2.547 0 4.376-.836 5.57-2.271 1.154-1.514 1.551-3.628 1.551-6.737v-5.899h-7.28zM34.128 38.698V51.43H28.24V38.698h-3.978v27.344h3.978V55.137h5.888v10.905h3.978V38.698zM62.08 57.392c0 2.391-.2 3.388-.796 4.225-.518.678-1.313 1.077-2.387 1.077-1.114 0-1.91-.399-2.427-1.077-.596-.837-.795-1.834-.795-4.225V47.347c0-2.391.199-3.388.795-4.225.517-.677 1.313-1.076 2.427-1.076 1.074 0 1.87.399 2.387 1.076.597.837.795 1.834.795 4.225v10.045zM58.896 38.38c-2.546 0-4.416.877-5.61 2.351-1.273 1.555-1.59 3.787-1.59 7.136v9.008c0 3.389.317 5.62 1.59 7.135 1.194 1.475 3.064 2.352 5.61 2.352 2.546 0 4.415-.877 5.61-2.352 1.232-1.515 1.59-3.746 1.59-7.135v-9.008c0-3.349-.358-5.581-1.59-7.136-1.195-1.474-3.064-2.351-5.61-2.351zM46.912 59.59c2.46-3.411 3.227-4.948 3.227-7.915v-.448c0-3.3-2.015-5.352-5.259-5.352-1.795 0-3.19.622-4.14 1.843-.888 1.083-1.042 2.29-1.06 4.464h3.532c.01-1.258.065-1.87.338-2.331.262-.438.719-.66 1.359-.66 1.142 0 1.697.72 1.697 2.204v.533c0 2.08-.548 3.068-2.893 6.39l-3.672 5.192v2.532h10.321v-3.176h-5.795l2.345-3.276zM243.38 27.615c0 2.413-1.46 3.435-3.041 3.435-.933 0-1.663-.368-2.109-1.063-.446-.695-.648-1.717-.648-3.313v-5.561c0-1.595.202-2.576.648-3.272.446-.736 1.176-1.104 2.109-1.104 1.581 0 3.04 1.022 3.04 3.435v7.443zm.467-14.068v1.881c-1.014-1.35-2.758-2.208-4.582-2.208-1.704 0-3.204.613-4.177 1.922-.851 1.145-1.297 2.863-1.297 5.234v7.034c0 2.414.446 4.09 1.297 5.235.973 1.309 2.473 1.922 4.177 1.922 1.744 0 3.366-.736 4.42-1.962v3.64c0 2.13-.532 3.604-2.828 3.604l-1.309-.004v3.31h1.673c4.015 0 6.316-1.922 6.316-6.747V13.547h-3.69zM87.073 22.86h3.356v3.322c0 1.841-.2 2.802-.72 3.563-.558.76-1.318 1.12-2.476 1.12-1.078 0-1.878-.36-2.397-1.12-.56-.84-.799-1.842-.799-4.243V15.454c0-2.401.2-3.442.799-4.243.48-.72 1.279-1.08 2.317-1.08 1.039 0 1.798.36 2.277 1.08.6.881.8 1.922.8 4.883h4.034c0-3.722-.36-5.764-1.598-7.325-1.198-1.48-2.996-2.321-5.513-2.321-2.557 0-4.355.84-5.513 2.321-1.279 1.561-1.598 3.843-1.598 7.205v9.047c0 3.403.32 5.645 1.598 7.246 1.158 1.44 2.996 2.282 5.593 2.282 2.557 0 4.395-.842 5.593-2.282 1.159-1.521 1.558-3.643 1.558-6.765v-5.925h-7.31v3.283zM100.367 15.454v-1.921H96.73v20.695h3.915v-13.69c0-2.642 1.318-3.763 3.556-3.763h1.917v-3.562h-1.278c-1.798 0-3.476.72-4.474 2.241M116.221 22.18h-5.513v-.681c0-2.522.16-3.482.72-4.203.479-.64 1.198-.96 2.037-.96.879 0 1.558.32 2.037.96.56.72.72 1.681.72 4.203v.68zm-2.757-8.967c-2.236 0-3.915.68-4.993 1.801-1.359 1.44-1.678 3.403-1.678 6.885v3.963c0 3.483.32 5.444 1.678 6.885 1.078 1.121 2.757 1.802 5.034 1.802 2.237 0 3.915-.68 4.994-1.802 1.158-1.2 1.557-2.762 1.597-5.163h-3.835c-.04 1.52-.24 2.241-.679 2.842-.48.6-1.238.92-2.077.92-.88 0-1.598-.32-2.078-.92-.559-.72-.72-1.681-.72-4.204v-1.2h9.43v-3.123c0-3.482-.32-5.444-1.678-6.885-1.08-1.12-2.797-1.801-4.995-1.801zM131.684 22.18h-5.513v-.681c0-2.522.16-3.482.719-4.203.48-.64 1.199-.96 2.037-.96.88 0 1.559.32 2.038.96.56.72.719 1.681.719 4.203v.68zm-2.757-8.967c-2.236 0-3.914.68-4.993 1.801-1.358 1.44-1.678 3.403-1.678 6.885v3.963c0 3.483.32 5.444 1.678 6.885 1.079 1.121 2.757 1.802 5.033 1.802 2.238 0 3.915-.68 4.995-1.802 1.158-1.2 1.557-2.762 1.597-5.163h-3.835c-.04 1.52-.24 2.241-.68 2.842-.478.6-1.237.92-2.077.92-.878 0-1.597-.32-2.077-.92-.559-.72-.72-1.681-.72-4.204v-1.2h9.429v-3.123c0-3.482-.32-5.444-1.677-6.885-1.08-1.12-2.797-1.801-4.995-1.801zM146.005 13.213c-1.757 0-3.396.76-4.474 2.041v-1.721h-3.636v20.695h3.916v-14.13c0-1.401.399-2.242.958-2.723.56-.52 1.279-.72 1.998-.72.958 0 1.598.36 1.997.84.48.561.64 1.402.64 2.643v14.09h3.914v-14.73c0-2.123-.439-3.604-1.318-4.644-.918-1.04-2.317-1.641-3.995-1.641M170.157 6.768v11.648h-5.913V6.768h-3.995v27.46h3.995V22.14h5.913v12.09h3.995V6.767zM183.675 29.585h-.16a1457.129 1457.129 0 01-3.595-16.052h-4.235c1.758 6.965 4.515 17.133 6.032 22.056l-.479 1.561c-.52 1.721-1.148 2.162-3.105 2.162h-.878v3.202h1.638c3.275 0 5.102-1.32 6.46-6.484 1.438-5.364 3.915-15.652 5.513-22.497h-4.115c-.839 4.443-2.357 12.249-3.076 16.052M201.242 27.743c0 2.362-1.438 3.362-2.996 3.362-.918 0-1.638-.36-2.077-1.08-.44-.64-.64-1.641-.64-3.202v-5.885c0-1.561.2-2.522.64-3.202.44-.72 1.16-1.08 2.077-1.08 1.558 0 2.996 1 2.996 3.361v7.726zm0-12.729c-1.038-1.121-2.595-1.802-4.235-1.802-1.677 0-3.155.6-4.114 1.882-.838 1.12-1.279 2.802-1.279 5.124v7.325c0 2.322.44 4.003 1.279 5.124.959 1.28 2.437 1.881 4.114 1.881 1.799 0 3.437-.8 4.475-2.081v1.761h3.676V5.247h-3.916v9.767zM211.558 15.454v-1.921h-3.636v20.695h3.916v-13.69c0-2.642 1.318-3.763 3.555-3.763h1.918v-3.562h-1.278c-1.798 0-3.476.72-4.475 2.241M227.567 26.142c0 2.603-.2 3.523-.799 4.284-.48.64-1.279.92-2.078.92-.839 0-1.598-.28-2.117-.92-.6-.76-.759-1.681-.759-4.284V21.62c0-2.602.16-3.522.76-4.283.518-.64 1.277-.921 2.116-.921.8 0 1.598.28 2.078.921.599.76.799 1.681.799 4.283v4.523zm-2.877-12.929c-2.197 0-3.995.6-5.153 1.841-1.319 1.481-1.639 3.403-1.639 6.725v4.203c0 3.323.32 5.244 1.639 6.725 1.158 1.24 2.956 1.842 5.153 1.842 2.198 0 3.995-.601 5.114-1.842 1.358-1.48 1.677-3.402 1.677-6.725V21.78c0-3.322-.32-5.244-1.677-6.725-1.12-1.24-2.916-1.841-5.114-1.841zM277.474 14.854c-.918-1.04-2.317-1.641-3.994-1.641-1.758 0-3.397.76-4.475 2.041v-1.721h-3.636v20.695h3.915v-14.13c0-1.401.4-2.242.96-2.723.558-.52 1.278-.72 1.997-.72.958 0 1.598.36 1.997.84.48.561.64 1.402.64 2.643v14.09h3.915v-14.73c0-2.123-.44-3.604-1.319-4.644M116.9 59.24c0 2.414-1.459 3.436-3.04 3.436-.933 0-1.663-.368-2.109-1.063-.446-.696-.649-1.718-.649-3.313V52.74c0-1.596.203-2.577.649-3.272.446-.737 1.176-1.105 2.108-1.105 1.582 0 3.042 1.023 3.042 3.436v7.443zm.285-12.186c-1.014-1.35-2.758-2.209-4.583-2.209-1.703 0-3.203.614-4.176 1.923-.852 1.144-1.298 2.862-1.298 5.234v7.034c0 2.413.446 4.09 1.298 5.235.973 1.309 2.473 1.922 4.176 1.922 1.744 0 3.366-.736 4.42-1.963v2.8c0 2.132-.623 3.606-2.92 3.606l-1.307-.004-.001 3.31h1.674c4.014 0 6.407-1.922 6.407-6.747V45.173h-3.69v1.88zM90.47 57.373c0 2.402-.201 3.403-.8 4.244-.52.68-1.318 1.08-2.397 1.08-1.119 0-1.918-.4-2.437-1.08-.6-.84-.8-1.842-.8-4.244V47.286c0-2.402.2-3.402.8-4.243.519-.68 1.318-1.081 2.437-1.081 1.079 0 1.877.4 2.397 1.081.599.84.8 1.841.8 4.243v10.087zM87.272 38.28c-2.557 0-4.435.88-5.633 2.361-1.278 1.561-1.598 3.803-1.598 7.165v9.047c0 3.403.32 5.644 1.598 7.165 1.198 1.481 3.076 2.362 5.633 2.362 2.556 0 4.434-.88 5.633-2.362 1.238-1.52 1.598-3.762 1.598-7.165v-9.047c0-3.362-.36-5.604-1.598-7.165-1.199-1.48-3.077-2.361-5.633-2.361zM100.608 47.286v-1.921h-3.636V66.06h3.915V52.37c0-2.642 1.318-3.763 3.556-3.763h1.917v-3.563h-1.278c-1.798 0-3.476.722-4.474 2.242M132.355 60.096c0 1.96-1.318 3.082-2.916 3.082-1.797 0-2.677-1.241-2.677-3.242v-.4c0-1.161.24-1.882.68-2.363.48-.52 1.238-.68 2.277-.68h2.636v3.603zM130 45.044c-3.556 0-5.793 1.762-6.672 4.964l3.475.88c.4-1.4 1.359-2.481 2.917-2.481.88 0 1.558.32 1.997.84.48.56.64 1.481.64 2.763v1.641h-3.476c-1.878 0-3.317.4-4.315 1.32-.958.881-1.677 2.402-1.677 4.644v.52c0 3.684 2.037 6.245 5.473 6.245 1.838 0 3.276-.76 4.235-2.001v1.681h3.674V51.85c0-2.562-.558-4.083-1.637-5.164-1.08-1.081-2.637-1.642-4.634-1.642zM147.124 45.045c-1.758 0-3.396.76-4.475 2.041v-1.721h-3.635V66.06h3.916V51.93c0-1.401.399-2.242.958-2.723.56-.52 1.279-.72 1.998-.72.958 0 1.598.36 1.997.84.48.561.64 1.402.64 2.643v14.09h3.914V51.33c0-2.123-.439-3.604-1.318-4.644-.918-1.04-2.317-1.641-3.995-1.641M168.054 66.38c3.835 0 6.432-2.2 6.432-5.884v-.12c0-3.083-1.239-4.524-4.235-5.844l-1.838-.881c-1.918-.88-2.876-1.562-2.876-3.162v-.08c0-1.362.958-2.322 2.477-2.322.839 0 1.518.32 1.918.8.399.52.599 1.241.599 2.282h3.755c0-1.641-.28-3.362-1.798-4.643-1.119-.961-2.676-1.481-4.474-1.481-3.516 0-6.153 2.001-6.153 5.483v.12c0 2.843 1.319 4.444 4.155 5.725l1.958.92c2.197 1.002 2.837 1.642 2.837 3.243v.08c0 1.601-1.04 2.682-2.637 2.682-.88 0-1.519-.32-1.998-.801-.56-.6-.719-1.401-.719-2.361h-3.756c0 1.801.24 3.322 1.599 4.603 1.118 1.081 2.756 1.641 4.754 1.641M189.587 66.06V51.85c0-2.562-.559-4.083-1.637-5.164-1.08-1.082-2.637-1.642-4.635-1.642-3.556 0-5.793 1.762-6.672 4.964l3.476.88c.4-1.4 1.358-2.481 2.917-2.481.878 0 1.557.32 1.997.84.48.56.64 1.482.64 2.762v1.642h-3.477c-1.877 0-3.315.4-4.314 1.32-.96.88-1.678 2.402-1.678 4.645v.52c0 3.682 2.038 6.244 5.473 6.244 1.838 0 3.276-.76 4.235-2v1.68h3.675zm-3.915-5.964c0 1.961-1.318 3.082-2.916 3.082-1.798 0-2.677-1.242-2.677-3.242v-.4c0-1.161.24-1.882.68-2.363.479-.52 1.238-.68 2.277-.68h2.636v3.603zM201.08 48.607v-3.242h-3.835v-6.133h-3.916v6.133h-2.636v3.242h2.636v13.13c0 2.802 1.359 4.323 4.076 4.323h3.395v-3.243h-2.157c-1.04 0-1.398-.44-1.398-1.64v-12.57h3.835zM223.437 57.814V53.61c0-3.321-.32-5.243-1.678-6.725-1.119-1.24-2.917-1.84-5.114-1.84s-3.995.6-5.154 1.84c-1.318 1.482-1.638 3.404-1.638 6.725v4.204c0 3.322.32 5.244 1.638 6.725 1.159 1.24 2.957 1.842 5.154 1.842s3.995-.601 5.114-1.842c1.358-1.48 1.678-3.403 1.678-6.725zm-3.916.16c0 2.602-.2 3.523-.798 4.284-.48.64-1.28.92-2.078.92-.839 0-1.598-.28-2.117-.92-.6-.76-.76-1.682-.76-4.284v-4.523c0-2.602.16-3.522.76-4.284.519-.64 1.278-.92 2.117-.92.799 0 1.598.28 2.078.92.599.762.798 1.682.798 4.284v4.523zM238.079 46.686c-.92-1.04-2.317-1.641-3.995-1.641-1.758 0-3.396.76-4.475 2.041v-1.721h-3.635V66.06h3.915V51.93c0-1.401.399-2.242.959-2.723.559-.52 1.278-.72 1.998-.72.958 0 1.597.36 1.996.84.48.561.64 1.402.64 2.643v14.09h3.915V51.33c0-2.123-.44-3.604-1.318-4.644M155.355 66.06h3.915V45.365h-3.915zM155.317 42.594h3.915v-3.362h-3.915zM203.16 66.06h3.915V45.365h-3.915zM203.18 42.594h3.914v-3.362h-3.914zM258.883 22.18h-5.513v-.681c0-2.522.16-3.482.72-4.203.48-.64 1.198-.96 2.036-.96.88 0 1.56.32 2.038.96.56.72.72 1.681.72 4.203v.68zm-2.554-8.967c-2.237 0-3.915.68-4.993 1.801-1.359 1.44-1.679 3.403-1.679 6.885v3.963c0 3.483.32 5.444 1.679 6.885 1.078 1.121 2.756 1.802 5.032 1.802 2.239 0 3.916-.68 4.995-1.802 1.158-1.2 1.558-2.762 1.597-5.163h-3.834c-.041 1.52-.24 2.241-.68 2.842-.479.6-1.238.92-2.078.92-.878 0-1.597-.32-2.076-.92-.56-.72-.72-1.681-.72-4.204v-1.2H263v-3.123c0-3.482-.32-5.444-1.678-6.885-1.08-1.12-2.797-1.801-4.994-1.801z"/></g></symbol><symbol viewBox="0 0 308 101" id="_logo-with-shapes" xmlns="http://www.w3.org/2000/svg"><g fill="none" fill-rule="evenodd"><path d="M74.402 65.537c18.062 0 32.704-14.67 32.704-32.768C107.106 14.67 92.464 0 74.402 0S41.7 14.67 41.7 32.769c0 18.098 14.641 32.768 32.703 32.768" fill="#05CAFF"/><path d="M5.984 18.248C-4.09 34.562.946 55.974 17.234 66.073c10.174 6.308 20.243 7.52 33.92 3.294 8.9-3.985 29.278-3.483 39.4 16.727 2.576 5.674 4.998 8.7 9.193 11.3 8.378 5.194 19.369 2.604 24.55-5.786 5.183-8.39 2.592-19.402-5.785-24.596-4.195-2.602-7.978-3.424-14.195-3.202C82.44 63.068 72.62 46.144 71.53 36.53c-1.145-14.252-7.74-23.287-17.81-29.532-16.289-10.1-37.661-5.062-47.736 11.25z" fill="#00FFB2"/><g fill="#154734"><path d="M102.38 6.063H29.368v73.013h73.014V6.063zm-4.186 4.177v64.658H33.553V10.24h64.641z" fill-rule="nonzero"/><path d="M43.694 57.052v3.269h3.342v3.308c0 1.834-.199 2.79-.716 3.548-.557.757-1.313 1.116-2.466 1.116-1.074 0-1.87-.359-2.387-1.116-.557-.837-.796-1.834-.796-4.225V52.947c0-2.392.199-3.428.796-4.226.477-.717 1.273-1.076 2.307-1.076 1.035 0 1.79.36 2.268 1.076.596.878.795 1.914.795 4.863h4.018c0-3.706-.358-5.74-1.591-7.294-1.193-1.475-2.983-2.312-5.49-2.312-2.546 0-4.336.837-5.49 2.312-1.273 1.555-1.591 3.826-1.591 7.175v9.008c0 3.389.318 5.621 1.59 7.215 1.155 1.435 2.985 2.272 5.57 2.272 2.547 0 4.376-.837 5.57-2.272 1.154-1.514 1.551-3.627 1.551-6.736v-5.9h-7.28zM63.128 44.297V57.03H57.24V44.297h-3.978v27.344h3.978V60.736h5.888v10.905h3.978V44.297zM91.08 62.992c0 2.39-.2 3.388-.796 4.224-.518.679-1.313 1.077-2.387 1.077-1.114 0-1.91-.398-2.427-1.077-.596-.836-.795-1.833-.795-4.224V52.947c0-2.392.199-3.388.795-4.225.517-.678 1.313-1.077 2.427-1.077 1.074 0 1.87.4 2.387 1.077.597.837.795 1.833.795 4.225v10.045zm-3.183-19.014c-2.546 0-4.416.877-5.61 2.352-1.273 1.554-1.59 3.787-1.59 7.135v9.008c0 3.389.317 5.62 1.59 7.135 1.194 1.475 3.064 2.353 5.61 2.353 2.546 0 4.415-.878 5.61-2.353 1.232-1.514 1.59-3.746 1.59-7.135v-9.008c0-3.348-.358-5.58-1.59-7.135-1.195-1.475-3.064-2.352-5.61-2.352zM75.912 65.19c2.46-3.412 3.227-4.949 3.227-7.915v-.448c0-3.301-2.015-5.353-5.259-5.353-1.795 0-3.19.623-4.14 1.844-.888 1.083-1.042 2.29-1.06 4.464h3.532c.01-1.259.065-1.87.338-2.332.262-.438.719-.66 1.359-.66 1.142 0 1.697.721 1.697 2.205v.532c0 2.08-.548 3.068-2.893 6.391l-3.672 5.191v2.532h10.321v-3.176h-5.795l2.345-3.276zM272.38 33.215c0 2.413-1.46 3.435-3.041 3.435-.933 0-1.663-.368-2.109-1.064-.446-.695-.648-1.717-.648-3.312v-5.562c0-1.595.202-2.576.648-3.271.446-.737 1.176-1.105 2.109-1.105 1.581 0 3.04 1.023 3.04 3.436v7.443zm.467-14.069v1.882c-1.014-1.35-2.758-2.209-4.582-2.209-1.704 0-3.204.613-4.177 1.923-.851 1.144-1.297 2.862-1.297 5.234v7.034c0 2.413.446 4.09 1.297 5.235.973 1.308 2.473 1.922 4.177 1.922 1.744 0 3.366-.736 4.42-1.963v3.64c0 2.13-.532 3.604-2.828 3.604l-1.309-.004v3.311h1.673c4.015 0 6.316-1.922 6.316-6.748v-22.86h-3.69zM116.073 28.46h3.356v3.321c0 1.842-.2 2.803-.72 3.563-.558.76-1.318 1.121-2.476 1.121-1.078 0-1.878-.36-2.397-1.12-.56-.841-.799-1.842-.799-4.244V21.053c0-2.401.2-3.442.799-4.242.48-.721 1.279-1.081 2.317-1.081 1.039 0 1.798.36 2.277 1.08.6.881.8 1.922.8 4.884h4.034c0-3.722-.36-5.764-1.598-7.325-1.198-1.481-2.996-2.322-5.513-2.322-2.557 0-4.355.84-5.513 2.322-1.279 1.56-1.598 3.843-1.598 7.205v9.047c0 3.403.32 5.644 1.598 7.245 1.158 1.44 2.996 2.282 5.593 2.282 2.557 0 4.395-.841 5.593-2.282 1.159-1.521 1.558-3.642 1.558-6.765v-5.924h-7.31v3.282zM129.367 21.053v-1.92h-3.636v20.695h3.915v-13.69c0-2.642 1.318-3.763 3.556-3.763h1.917v-3.563h-1.278c-1.798 0-3.476.72-4.474 2.241M145.221 27.78h-5.513v-.682c0-2.521.16-3.482.72-4.203.479-.64 1.198-.96 2.037-.96.879 0 1.558.32 2.037.96.56.72.72 1.682.72 4.203v.681zm-2.757-8.968c-2.236 0-3.915.68-4.993 1.801-1.359 1.441-1.678 3.403-1.678 6.885v3.963c0 3.483.32 5.445 1.678 6.885 1.078 1.122 2.757 1.802 5.034 1.802 2.237 0 3.915-.68 4.994-1.802 1.158-1.2 1.557-2.761 1.597-5.163h-3.835c-.04 1.521-.24 2.242-.679 2.842-.48.6-1.238.92-2.077.92-.88 0-1.598-.32-2.078-.92-.559-.72-.72-1.681-.72-4.203V30.62h9.43v-3.123c0-3.482-.32-5.444-1.678-6.885-1.08-1.12-2.797-1.8-4.994-1.8zM160.684 27.78h-5.513v-.682c0-2.521.16-3.482.719-4.203.48-.64 1.199-.96 2.037-.96.88 0 1.559.32 2.038.96.56.72.719 1.682.719 4.203v.681zm-2.757-8.968c-2.236 0-3.914.68-4.993 1.801-1.358 1.441-1.678 3.403-1.678 6.885v3.963c0 3.483.32 5.445 1.678 6.885 1.079 1.122 2.757 1.802 5.033 1.802 2.238 0 3.915-.68 4.995-1.802 1.158-1.2 1.557-2.761 1.597-5.163h-3.835c-.04 1.521-.24 2.242-.68 2.842-.478.6-1.237.92-2.077.92-.878 0-1.597-.32-2.077-.92-.559-.72-.72-1.681-.72-4.203V30.62h9.429v-3.123c0-3.482-.32-5.444-1.677-6.885-1.08-1.12-2.797-1.8-4.995-1.8zM175.005 18.812c-1.757 0-3.396.76-4.474 2.041v-1.72h-3.636v20.694h3.916v-14.13c0-1.4.399-2.241.958-2.722.56-.52 1.279-.72 1.998-.72.958 0 1.598.36 1.997.84.48.56.64 1.401.64 2.642v14.09h3.914v-14.73c0-2.122-.439-3.603-1.318-4.644-.918-1.04-2.317-1.64-3.995-1.64M199.157 12.367v11.649h-5.913V12.367h-3.995v27.46h3.995V27.74h5.913v12.089h3.995v-27.46zM212.675 35.184h-.16a1457.129 1457.129 0 01-3.595-16.052h-4.235c1.758 6.965 4.515 17.133 6.032 22.057l-.479 1.56c-.52 1.722-1.148 2.163-3.105 2.163h-.878v3.202h1.638c3.275 0 5.102-1.321 6.46-6.485 1.438-5.364 3.915-15.652 5.513-22.497h-4.115c-.839 4.444-2.357 12.25-3.076 16.052M230.242 33.343c0 2.361-1.438 3.362-2.996 3.362-.918 0-1.638-.36-2.077-1.08-.44-.641-.64-1.642-.64-3.203v-5.884c0-1.562.2-2.522.64-3.203.44-.72 1.16-1.08 2.077-1.08 1.558 0 2.996 1 2.996 3.362v7.726zm0-12.73c-1.038-1.12-2.595-1.801-4.235-1.801-1.677 0-3.155.6-4.114 1.882-.838 1.12-1.279 2.801-1.279 5.123v7.326c0 2.321.44 4.003 1.279 5.123.959 1.281 2.437 1.882 4.114 1.882 1.799 0 3.437-.8 4.475-2.082v1.761h3.676v-28.98h-3.916v9.767zM240.558 21.053v-1.92h-3.636v20.695h3.916v-13.69c0-2.642 1.318-3.763 3.555-3.763h1.918v-3.563h-1.278c-1.798 0-3.476.72-4.475 2.241M256.567 31.742c0 2.602-.2 3.523-.799 4.283-.48.64-1.279.92-2.078.92-.839 0-1.598-.28-2.117-.92-.6-.76-.759-1.681-.759-4.283v-4.524c0-2.601.16-3.522.76-4.282.518-.641 1.277-.922 2.116-.922.8 0 1.598.28 2.078.922.599.76.799 1.68.799 4.282v4.524zm-2.877-12.93c-2.197 0-3.995.6-5.153 1.842-1.319 1.48-1.639 3.402-1.639 6.724v4.204c0 3.322.32 5.244 1.639 6.725 1.158 1.24 2.956 1.841 5.153 1.841 2.198 0 3.995-.6 5.114-1.841 1.358-1.481 1.677-3.403 1.677-6.725v-4.204c0-3.322-.32-5.244-1.677-6.724-1.12-1.241-2.916-1.842-5.114-1.842zM306.474 20.453c-.918-1.04-2.317-1.64-3.994-1.64-1.758 0-3.397.76-4.475 2.04v-1.72h-3.636v20.694h3.915v-14.13c0-1.4.4-2.241.96-2.722.558-.52 1.278-.72 1.997-.72.958 0 1.598.36 1.997.84.48.56.64 1.401.64 2.642v14.09h3.915v-14.73c0-2.122-.44-3.603-1.319-4.644M145.9 64.84c0 2.413-1.459 3.435-3.04 3.435-.933 0-1.663-.368-2.109-1.063-.446-.695-.649-1.717-.649-3.312v-5.562c0-1.595.203-2.576.649-3.272.446-.736 1.176-1.104 2.108-1.104 1.582 0 3.042 1.022 3.042 3.435v7.443zm.285-12.187c-1.014-1.349-2.758-2.208-4.583-2.208-1.703 0-3.203.613-4.176 1.922-.852 1.145-1.298 2.863-1.298 5.234v7.035c0 2.413.446 4.09 1.298 5.234.973 1.309 2.473 1.923 4.176 1.923 1.744 0 3.366-.737 4.42-1.963v2.8c0 2.131-.623 3.605-2.92 3.605l-1.307-.004-.001 3.31h1.674c4.014 0 6.407-1.921 6.407-6.747V50.772h-3.69v1.881zM119.47 62.973c0 2.401-.201 3.403-.8 4.243-.52.68-1.318 1.08-2.397 1.08-1.119 0-1.918-.4-2.437-1.08-.6-.84-.8-1.842-.8-4.243V52.885c0-2.401.2-3.402.8-4.242.519-.681 1.318-1.082 2.437-1.082 1.079 0 1.877.4 2.397 1.082.599.84.8 1.84.8 4.242v10.088zm-3.197-19.094c-2.557 0-4.435.88-5.633 2.361-1.278 1.561-1.598 3.803-1.598 7.166v9.047c0 3.402.32 5.644 1.598 7.165 1.198 1.48 3.076 2.362 5.633 2.362 2.556 0 4.434-.881 5.633-2.362 1.238-1.521 1.598-3.763 1.598-7.165v-9.047c0-3.363-.36-5.605-1.598-7.166-1.199-1.48-3.077-2.361-5.633-2.361zM129.608 52.885v-1.92h-3.636V71.66h3.915V57.97c0-2.643 1.318-3.763 3.556-3.763h1.917v-3.563h-1.278c-1.798 0-3.476.721-4.474 2.241M161.355 65.695c0 1.961-1.318 3.082-2.916 3.082-1.797 0-2.677-1.24-2.677-3.242v-.4c0-1.161.24-1.881.68-2.362.48-.52 1.238-.68 2.277-.68h2.636v3.602zM159 50.644c-3.556 0-5.793 1.761-6.672 4.963l3.475.881c.4-1.4 1.359-2.482 2.917-2.482.88 0 1.558.32 1.997.841.48.56.64 1.48.64 2.762v1.641h-3.476c-1.878 0-3.317.4-4.315 1.321-.958.88-1.677 2.402-1.677 4.644v.52c0 3.683 2.037 6.245 5.473 6.245 1.838 0 3.276-.76 4.235-2.002v1.681h3.674V57.45c0-2.562-.558-4.083-1.637-5.164-1.08-1.08-2.637-1.641-4.634-1.641zM176.124 50.644c-1.758 0-3.396.76-4.475 2.041v-1.72h-3.635v20.694h3.916V57.53c0-1.4.399-2.241.958-2.722.56-.52 1.279-.72 1.998-.72.958 0 1.598.36 1.997.84.48.56.64 1.401.64 2.643v14.09h3.914V56.928c0-2.122-.439-3.603-1.318-4.644-.918-1.04-2.317-1.64-3.995-1.64M197.054 71.98c3.835 0 6.432-2.202 6.432-5.884v-.121c0-3.082-1.239-4.524-4.235-5.844l-1.838-.881c-1.918-.88-2.876-1.562-2.876-3.162v-.08c0-1.362.958-2.321 2.477-2.321.839 0 1.518.32 1.918.8.399.52.599 1.24.599 2.281h3.755c0-1.64-.28-3.362-1.798-4.642-1.119-.962-2.676-1.482-4.474-1.482-3.516 0-6.153 2.002-6.153 5.483v.121c0 2.843 1.319 4.444 4.155 5.724l1.958.92c2.197 1.002 2.837 1.643 2.837 3.243v.08c0 1.602-1.04 2.682-2.637 2.682-.88 0-1.519-.32-1.998-.8-.56-.6-.719-1.402-.719-2.362h-3.756c0 1.801.24 3.322 1.599 4.604 1.118 1.08 2.756 1.64 4.754 1.64M218.587 71.66V57.449c0-2.562-.559-4.083-1.637-5.164-1.08-1.081-2.637-1.642-4.635-1.642-3.556 0-5.793 1.763-6.672 4.965l3.476.88c.4-1.4 1.358-2.482 2.917-2.482.878 0 1.557.32 1.997.841.48.56.64 1.481.64 2.762v1.64h-3.477c-1.877 0-3.315.401-4.314 1.322-.96.88-1.678 2.402-1.678 4.644v.52c0 3.683 2.038 6.245 5.473 6.245 1.838 0 3.276-.761 4.235-2.001v1.68h3.675zm-3.915-5.965c0 1.961-1.318 3.082-2.916 3.082-1.798 0-2.677-1.241-2.677-3.242v-.4c0-1.16.24-1.881.68-2.363.479-.52 1.238-.68 2.277-.68h2.636v3.603zM230.08 54.207v-3.243h-3.835v-6.132h-3.916v6.132h-2.636v3.243h2.636v13.13c0 2.802 1.359 4.322 4.076 4.322h3.395v-3.242h-2.157c-1.04 0-1.398-.44-1.398-1.641v-12.57h3.835zM252.437 63.414V59.21c0-3.322-.32-5.244-1.678-6.725-1.119-1.241-2.917-1.84-5.114-1.84s-3.995.599-5.154 1.84c-1.318 1.481-1.638 3.403-1.638 6.725v4.204c0 3.322.32 5.243 1.638 6.724 1.159 1.241 2.957 1.842 5.154 1.842s3.995-.6 5.114-1.842c1.358-1.48 1.678-3.402 1.678-6.724zm-3.916.16c0 2.601-.2 3.523-.798 4.283-.48.64-1.28.92-2.078.92-.839 0-1.598-.28-2.117-.92-.6-.76-.76-1.682-.76-4.283V59.05c0-2.601.16-3.522.76-4.283.519-.641 1.278-.92 2.117-.92.799 0 1.598.279 2.078.92.599.761.798 1.682.798 4.283v4.524zM267.079 52.285c-.92-1.04-2.317-1.64-3.995-1.64-1.758 0-3.396.76-4.475 2.04v-1.72h-3.635v20.694h3.915V57.53c0-1.4.399-2.241.959-2.722.559-.52 1.278-.72 1.998-.72.958 0 1.597.36 1.996.84.48.56.64 1.401.64 2.643v14.09h3.915V56.928c0-2.122-.44-3.603-1.318-4.644M184.355 71.66h3.915V50.964h-3.915zM184.317 48.194h3.915v-3.362h-3.915zM232.16 71.66h3.915V50.964h-3.915zM232.18 48.194h3.914v-3.362h-3.914zM287.883 27.78h-5.513v-.682c0-2.521.16-3.482.72-4.203.48-.64 1.198-.96 2.036-.96.88 0 1.56.32 2.038.96.56.72.72 1.682.72 4.203v.681zm-2.554-8.968c-2.237 0-3.915.68-4.993 1.801-1.359 1.441-1.679 3.403-1.679 6.885v3.963c0 3.483.32 5.445 1.679 6.885 1.078 1.122 2.756 1.802 5.032 1.802 2.239 0 3.916-.68 4.995-1.802 1.158-1.2 1.558-2.761 1.597-5.163h-3.834c-.041 1.521-.24 2.242-.68 2.842-.479.6-1.238.92-2.078.92-.878 0-1.597-.32-2.076-.92-.56-.72-.72-1.681-.72-4.203V30.62H292v-3.123c0-3.482-.32-5.444-1.678-6.885-1.08-1.12-2.797-1.8-4.994-1.8z"/></g></g></symbol><symbol viewBox="0 0 33 22" id="arrow-icon" xmlns="http://www.w3.org/2000/svg"><path d="M22.312.493l9.9 9.9a1 1 0 010 1.414l-9.9 9.9a1 1 0 01-1.414-1.415l8.191-8.193H1.5a1 1 0 110-2h27.589l-8.191-8.192A.999.999 0 1122.312.493z" fill="currentColor" fill-rule="evenodd"/></symbol><symbol viewBox="0 0 20 16" id="burger-icon" xmlns="http://www.w3.org/2000/svg"><path d="M19 14a1 1 0 010 2H1a1 1 0 010-2h18zm0-7a1 1 0 010 2H1a1 1 0 010-2h18zm0-7a1 1 0 010 2H1a1 1 0 010-2h18z" fill="currentColor" fill-rule="evenodd"/></symbol><symbol viewBox="0 0 9 14" id="chevron" xmlns="http://www.w3.org/2000/svg"><path d="M.707 6.364a1 1 0 000 1.414l5.657 5.657a1 1 0 001.414-1.414l-4.95-4.95 4.95-4.95A1 1 0 006.364.707L.707 6.364z" fill="currentColor" fill-rule="evenodd"/></symbol><symbol viewBox="0 0 17 17" id="close-icon" xmlns="http://www.w3.org/2000/svg"><path d="M1.666.286L8.5 7.119 15.334.286a.975.975 0 011.288-.081l.092.08c.381.382.381 1 0 1.381L9.881 8.5l6.833 6.834a.976.976 0 01-1.38 1.38L8.5 9.881l-6.834 6.833a.975.975 0 01-1.288.081l-.092-.08a.977.977 0 010-1.381L7.119 8.5.286 1.666a.976.976 0 011.38-1.38z" fill="currentColor" fill-rule="evenodd"/></symbol><symbol viewBox="0 0 13 14" id="double-chevron" xmlns="http://www.w3.org/2000/svg"><path d="M10.95.293a1 1 0 011.497 1.32l-.083.094-4.95 4.95 4.95 4.95a1 1 0 01-1.32 1.497l-.094-.083-5.657-5.657a1 1 0 01-.083-1.32l.083-.094L10.95.293zm-5 0a1 1 0 011.497 1.32l-.083.094-4.95 4.95 4.95 4.95a1 1 0 01-1.32 1.497l-.094-.083L.293 7.364a1 1 0 01-.083-1.32l.083-.094L5.95.293z" fill="currentColor" fill-rule="evenodd"/></symbol><symbol viewBox="0 0 10 16" id="facebook" xmlns="http://www.w3.org/2000/svg"><path d="M9.067 9l.467-2.895H6.617V4.228c0-.793.407-1.565 1.714-1.565h1.326V.196S8.454 0 7.3 0C4.9 0 3.327 1.387 3.327 3.897v2.208H.657v2.894h2.67V16h3.286V9h2.454z" fill="currentColor" fill-rule="evenodd"/></symbol><symbol viewBox="0 0 16 14" id="linkedin" xmlns="http://www.w3.org/2000/svg"><path d="M2.405 3.251c1.09 0 1.77-.722 1.77-1.625C4.155.702 3.495 0 2.425 0 1.357 0 .657.702.657 1.626c0 .903.679 1.624 1.728 1.624h.02zM.842 13.945h3.127v-9.41H.842v9.41zm7.985 0V8.69c0-.28.02-.562.103-.763.226-.561.74-1.144 1.604-1.144 1.132 0 1.585.863 1.585 2.128v5.034h3.127V8.55c0-2.89-1.543-4.235-3.6-4.235-1.688 0-2.428.943-2.84 1.585h.02V4.536H5.7c.04.883 0 9.409 0 9.409h3.126z" fill="currentColor" fill-rule="evenodd"/></symbol><symbol viewBox="0 0 10 13" id="lock-icon" xmlns="http://www.w3.org/2000/svg"><g stroke="currentColor" fill="none" fill-rule="evenodd"><rect width="9" height="7" x=".5" y="5.501" rx="1"/><path d="M6 .5H4c-.414 0-.79.168-1.06.44A1.49 1.49 0 002.5 2v3.5h5V2c0-.414-.168-.79-.44-1.06A1.484 1.484 0 006 .5z"/></g></symbol><symbol viewBox="0 0 278.4 73.5" id="logo" xmlns="http://www.w3.org/2000/svg"><g fill="currentColor"><path class="st0" d="M4.9 68.3h63.3V4.9H4.9v63.4zM73 73.2H0V0h73v73.2zM243 27.2c0 2.4-1.5 3.4-3 3.4-.8.1-1.6-.3-2.1-1-.4-.7-.6-1.7-.6-3.3v-5.6c0-1.6.2-2.6.6-3.3.4-.7 1.3-1.2 2.1-1.1 1.6 0 3 1 3 3.4v7.5zm.5-14.1V15c-1.1-1.4-2.8-2.2-4.6-2.2-1.6-.1-3.2.6-4.2 1.9-.9 1.1-1.3 2.8-1.3 5.2v7c0 2.4.4 4.1 1.3 5.2 1 1.3 2.6 2 4.2 1.9 1.7 0 3.3-.7 4.4-2v3.6c0 2.1-.5 3.6-2.8 3.6h-1.3v3.3h1.7c4 0 6.3-1.9 6.3-6.7V13.1h-3.7zM86.7 22.4H90v3.3c0 1.8-.2 2.8-.7 3.6-.6.8-1.5 1.2-2.5 1.1-.9.1-1.9-.4-2.4-1.1-.6-.8-.8-1.8-.8-4.2V15c0-2.4.2-3.4.8-4.2.5-.7 1.4-1.1 2.3-1.1.9-.1 1.8.3 2.3 1.1.6.9.8 1.9.8 4.9h4c0-3.7-.4-5.8-1.6-7.3-1.2-1.5-3-2.3-5.5-2.3s-4.4.8-5.5 2.3c-1.3 1.6-1.6 3.8-1.6 7.2v9c0 3.4.3 5.6 1.6 7.2 1.2 1.4 3 2.3 5.6 2.3 2.6 0 4.4-.8 5.6-2.3 1.2-1.4 1.6-3.6 1.6-6.8v-5.9h-7.3v3.3zM100 15v-1.9h-3.6v20.7h3.9V20.1c0-2.6 1.3-3.8 3.6-3.8h1.9v-3.6h-1.3c-1.8 0-3.5.9-4.5 2.3M115.8 21.8h-5.5v-.7c0-2.5.2-3.5.7-4.2.5-.6 1.2-1 2-1s1.6.3 2 1c.6.7.7 1.7.7 4.2v.7zm-2.7-9c-2.2 0-3.9.7-5 1.8-1.4 1.4-1.7 3.4-1.7 6.9v4c0 3.5.3 5.4 1.7 6.9 1.1 1.1 2.8 1.8 5 1.8s3.9-.7 5-1.8c1.2-1.2 1.6-2.8 1.6-5.2h-3.8c0 1.5-.2 2.2-.7 2.8-.5.6-1.3.9-2.1.9s-1.6-.3-2.1-.9c-.6-.7-.7-1.7-.7-4.2v-1.2h9.4v-3.1c0-3.5-.3-5.4-1.7-6.9-1-1.1-2.7-1.8-4.9-1.8M131.3 21.8h-5.5v-.7c0-2.5.2-3.5.7-4.2.5-.6 1.2-1 2-1s1.6.3 2 1c.6.7.7 1.7.7 4.2v.7zm-2.8-9c-2.2 0-3.9.7-5 1.8-1.4 1.4-1.7 3.4-1.7 6.9v4c0 3.5.3 5.4 1.7 6.9 1.1 1.1 2.8 1.8 5 1.8s3.9-.7 5-1.8c1.2-1.2 1.6-2.8 1.6-5.2h-3.8c0 1.5-.2 2.2-.7 2.8-.5.6-1.3.9-2.1.9s-1.6-.3-2.1-.9c-.6-.7-.7-1.7-.7-4.2v-1.2h9.4v-3.1c0-3.5-.3-5.4-1.7-6.9-.9-1.1-2.6-1.8-4.9-1.8M145.6 12.8c-1.7 0-3.4.7-4.5 2v-1.7h-3.6v20.7h3.9V19.7c0-1.4.4-2.2 1-2.7.5-.5 1.3-.7 2-.7.8 0 1.5.3 2 .8.5.6.6 1.4.6 2.6v14.1h3.9V19.1c0-2.1-.4-3.6-1.3-4.7-1-1.1-2.5-1.7-4-1.6M169.8 6.4V18h-5.9V6.4h-4v27.4h4V21.7h5.9v12.1h4V6.4zM183.3 29.2h-.2c-.9-3.8-2.6-11.6-3.6-16h-4.2c1.8 7 4.5 17.1 6 22l-.5 1.6c-.5 1.7-1.1 2.2-3.1 2.2h-.9v3.2h1.6c3.3 0 5.1-1.3 6.5-6.5 1.4-5.4 3.9-15.6 5.5-22.5h-4.1c-.8 4.4-2.3 12.2-3 16M200.9 27.3c0 2.4-1.4 3.4-3 3.4-.8 0-1.6-.4-2.1-1.1-.4-.6-.6-1.6-.6-3.2v-5.9c0-1.6.2-2.5.6-3.2.4-.7 1.2-1.1 2.1-1.1 1.6 0 3 1 3 3.4v7.7zm0-12.7c-1.1-1.2-2.6-1.8-4.2-1.8-1.6-.1-3.1.6-4.1 1.9-.8 1.1-1.3 2.8-1.3 5.1v7.3c0 2.3.4 4 1.3 5.1 1 1.3 2.5 2 4.1 1.9 1.7 0 3.4-.7 4.5-2.1v1.8h3.7V4.9H201v9.7zM211.2 15v-1.9h-3.6v20.7h3.9V20.1c0-2.6 1.3-3.8 3.6-3.8h1.9v-3.6h-1.3c-1.8 0-3.5.9-4.5 2.3M227.2 25.7c0 2.6-.2 3.5-.8 4.3-.5.6-1.3 1-2.1.9-.8 0-1.6-.3-2.1-.9-.6-.8-.8-1.7-.8-4.3v-4.5c0-2.6.2-3.5.8-4.3.5-.6 1.3-.9 2.1-.9s1.6.3 2.1.9c.6.7.8 1.7.8 4.2v4.6zm-2.9-12.9c-2.2 0-4 .6-5.2 1.8-1.3 1.5-1.6 3.4-1.6 6.7v4.2c0 3.3.3 5.2 1.6 6.7 1.2 1.2 3 1.8 5.2 1.8s4-.6 5.1-1.8c1.4-1.5 1.7-3.4 1.7-6.7v-4.2c0-3.3-.3-5.2-1.7-6.7-1.1-1.2-2.9-1.8-5.1-1.8M277.1 14.4c-1-1.1-2.5-1.7-4-1.6-1.7 0-3.4.7-4.5 2v-1.7H265v20.7h3.9V19.7c0-1.4.4-2.2 1-2.7.5-.5 1.3-.7 2-.7.8-.1 1.5.2 2 .8.5.6.6 1.4.6 2.6v14.1h3.9V19.1c0-2.1-.4-3.6-1.3-4.7M116.5 58.8c0 2.4-1.5 3.4-3 3.4-.8.1-1.6-.3-2.1-1s-.7-1.7-.7-3.3v-5.6c0-1.6.2-2.6.7-3.3.4-.7 1.3-1.2 2.1-1.1 1.6 0 3 1 3 3.4v7.5zm.3-12.2c-1.1-1.4-2.8-2.2-4.6-2.2-1.6-.1-3.2.6-4.2 1.9-.8 1.1-1.3 2.9-1.3 5.2v7c0 2.4.4 4.1 1.3 5.2 1 1.3 2.6 2 4.2 1.9 1.7 0 3.3-.7 4.4-2v2.8c0 2.1-.6 3.6-2.9 3.6h-1.3v3.3h1.7c4 0 6.4-1.9 6.4-6.7v-22h-3.7v2zM90.1 56.9c0 2.4-.2 3.4-.8 4.2-.6.7-1.5 1.1-2.4 1.1-.9.1-1.8-.3-2.4-1.1-.6-.8-.8-1.8-.8-4.2V46.8c0-2.4.2-3.4.8-4.2.6-.7 1.5-1.1 2.4-1.1.9-.1 1.8.4 2.4 1.1.6.8.8 1.8.8 4.2v10.1zm-3.2-19.1c-2.6 0-4.4.9-5.6 2.4-1.3 1.6-1.6 3.8-1.6 7.2v9c0 3.4.3 5.6 1.6 7.2 1.2 1.5 3.1 2.4 5.6 2.4s4.4-.9 5.6-2.4c1.2-1.5 1.6-3.8 1.6-7.2v-9c0-3.4-.4-5.6-1.6-7.2-1.2-1.5-3.1-2.4-5.6-2.4M100.2 46.8v-1.9h-3.6v20.7h3.9V51.9c0-2.6 1.3-3.8 3.6-3.8h1.9v-3.6h-1.3c-1.8 0-3.4.9-4.5 2.3M132 59.6c0 2-1.3 3.1-2.9 3.1-1.8 0-2.7-1.2-2.7-3.2v-.4c0-1.2.2-1.9.7-2.4.4-.5 1.2-.7 2.3-.7h2.6v3.6zm-2.4-15c-3.6 0-5.8 1.8-6.7 5l3.5.9c.4-1.4 1.4-2.5 2.9-2.5.8 0 1.5.3 2 .8.5.6.6 1.5.6 2.8v1.6h-3.5c-1.9 0-3.3.4-4.3 1.3s-1.7 2.4-1.7 4.7v.5c0 3.7 2 6.2 5.5 6.2 1.6 0 3.2-.7 4.2-2v1.7h3.7V51.4c0-2.6-.6-4.1-1.6-5.2-1-1.1-2.6-1.6-4.6-1.6M146.7 44.6c-1.7 0-3.4.7-4.5 2v-1.7h-3.6v20.7h3.9V51.5c0-1.4.4-2.2 1-2.7.5-.5 1.3-.7 2-.7.8 0 1.5.3 2 .8.5.6.6 1.4.6 2.6v14.1h3.9V50.9c0-2.1-.4-3.6-1.3-4.7-1-1.1-2.5-1.7-4-1.6M167.7 65.9c3.8 0 6.4-2.2 6.4-5.9v-.1c0-3.1-1.2-4.5-4.2-5.8l-1.8-.9c-1.9-.9-2.9-1.6-2.9-3.2 0-1.4 1-2.3 2.5-2.3.7 0 1.4.3 1.9.8.4.7.7 1.5.6 2.3h3.7c0-1.6-.3-3.4-1.8-4.7-1.3-1-2.9-1.5-4.5-1.5-3.5 0-6.1 2-6.1 5.5v.1c0 2.8 1.3 4.4 4.1 5.7l2 .9c2.2 1 2.8 1.6 2.8 3.2v.1c.1 1.4-.9 2.6-2.3 2.7h-.3c-.7 0-1.5-.3-2-.8-.5-.7-.8-1.5-.7-2.4h-3.8c0 1.8.2 3.3 1.6 4.6 1.1 1.1 2.7 1.7 4.8 1.7M189.2 65.6V51.4c0-2.6-.6-4.1-1.6-5.2-1.1-1.1-2.6-1.6-4.6-1.6-3.6 0-5.8 1.8-6.7 5l3.5.9c.4-1.4 1.4-2.5 2.9-2.5.8 0 1.5.3 2 .8.5.6.6 1.5.6 2.8v1.6h-3.5c-1.9 0-3.3.4-4.3 1.3s-1.7 2.4-1.7 4.7v.5c0 3.7 2 6.2 5.5 6.2 1.7 0 3.2-.7 4.2-2v1.7h3.7zm-3.9-6c0 2-1.3 3.1-2.9 3.1-1.8 0-2.7-1.2-2.7-3.2v-.4c0-1.2.2-1.9.7-2.4.4-.5 1.2-.7 2.3-.7h2.6v3.6zM200.7 48.2V45h-3.8v-6.1H193V45h-2.6v3.2h2.6v13.1c0 2.8 1.4 4.3 4.1 4.3h3.4v-3.2h-2.2c-1 0-1.4-.4-1.4-1.6V48.2h3.8zM223.1 57.4v-4.2c0-3.3-.3-5.2-1.7-6.7-1.1-1.2-2.9-1.8-5.1-1.8-2.2 0-4 .6-5.1 1.8-1.3 1.5-1.6 3.4-1.6 6.7v4.2c0 3.3.3 5.2 1.6 6.7 1.2 1.2 3 1.8 5.1 1.8s4-.6 5.1-1.8c1.3-1.5 1.7-3.4 1.7-6.7m-4 .1c0 2.6-.2 3.5-.8 4.3-.5.6-1.3.9-2.1.9s-1.6-.3-2.1-.9c-.6-.8-.8-1.7-.8-4.3V53c0-2.6.2-3.5.8-4.3.5-.6 1.3-1 2.1-.9.8 0 1.6.3 2.1.9.6.8.8 1.7.8 4.3v4.5zM237.7 46.2c-1-1.1-2.5-1.7-4-1.6-1.7 0-3.4.7-4.5 2v-1.7h-3.6v20.7h3.9V51.5c0-1.4.4-2.2 1-2.7.5-.5 1.3-.7 2-.7.8 0 1.5.3 2 .8.5.6.6 1.4.6 2.6v14.1h3.9V50.9c0-2.1-.4-3.6-1.3-4.7M155 44.9h3.9v20.7H155zM154.9 38.8h3.9v3.4h-3.9zM202.8 44.9h3.9v20.7h-3.9zM202.8 38.8h3.9v3.4h-3.9zM258.5 21.8H253v-.7c0-2.5.2-3.5.7-4.2.5-.6 1.2-1 2-1s1.6.3 2 1c.6.7.7 1.7.7 4.2v.7zm-2.6-9c-2.2 0-3.9.7-5 1.8-1.4 1.4-1.7 3.4-1.7 6.9v4c0 3.5.3 5.4 1.7 6.9 1.1 1.1 2.8 1.8 5 1.8 2.3 0 3.9-.7 5-1.8 1.2-1.2 1.6-2.8 1.6-5.2h-3.8c0 1.5-.2 2.2-.7 2.8-.5.6-1.3.9-2.1.9s-1.6-.3-2.1-.9c-.6-.7-.7-1.7-.7-4.2v-1.2h9.4v-3.1c0-3.5-.3-5.4-1.7-6.9-.9-1.1-2.6-1.8-4.9-1.8"/><path class="st0" d="M17.9 66c-3.3 0-5.8-1-7.4-3-1.7-2.2-2.1-5.3-2.1-9.6V41.1c0-4.2.4-7.5 2.1-9.6 1.6-2 4-3.1 7.3-3.1s5.6 1 7.2 3c1.5 1.9 2.1 4.4 2.1 9.5h-4.9c0-3.8-.3-5.2-1.1-6.5-.7-1-1.8-1.6-3.3-1.6s-2.7.6-3.4 1.6c-.9 1.1-1.1 2.6-1.1 5.9V54c0 3.1.3 4.7 1.1 5.9.8 1.1 1.9 1.6 3.5 1.6s2.8-.5 3.6-1.6 1-2.5 1-5v-4.8H18v-3.9h9.3V54c0 4.4-.6 7.1-2.1 9-1.6 2-4.1 3-7.3 3M42.7 65.5V50.7h-8.6v14.8h-4.8V28.9h4.8v17.3h8.6V28.9h4.9v36.6zM50.7 65.6v-3.2l5.1-7.2c3.3-4.7 4.1-6.1 4.1-9.1v-.7c0-2.3-.9-3.4-2.7-3.4-.9-.1-1.7.3-2.2 1.1-.4.7-.5 1.6-.5 3.1h-4.4c0-2.8.3-4.4 1.4-5.8 1.3-1.6 3.2-2.5 5.6-2.5 4.4 0 7.1 2.8 7.1 7.2v.6c0 4.1-1.1 6.2-4.5 10.9l-3.6 5.1h8.4v3.9H50.7z"/></g></symbol><symbol viewBox="0 0 593.22 189.94" id="logo-with-shapes" xmlns="http://www.w3.org/2000/svg"><path d="M145 122a61 61 0 10-60.87-61A61 61 0 00145 122" fill="#05caff"/><path d="M102.28 10.06a67.094 67.094 0 00-70.51 114.17c19.66 12.19 39.13 14.54 65.56 6.37 18.24-5.07 56.69-5.34 76.14 32.32 5 11 9.66 16.82 17.77 21.84A34.524 34.524 0 00227.5 126c-8.11-5-15.42-6.61-27.43-6.18-42.28-1.44-61.26-34.14-63.37-52.72-2.21-27.54-14.95-45-34.42-57.08" fill="#00ffb2"/><path d="M64.65 144H187V21.22H64.65zm131.77 9.42H55.27V11.81h141.15z" fill="#144733"/><path d="M524.8 64.4c0 4.67-2.82 6.64-5.88 6.64a4.57 4.57 0 01-4.07-2.04c-.86-1.35-1.25-3.32-1.25-6.4V51.84c0-3.08.39-5 1.25-6.32a4.47 4.47 0 014.07-2.13c3.06 0 5.88 2 5.88 6.63zm.9-27.18v3.64a11.19 11.19 0 00-8.85-4.27 9.65 9.65 0 00-8.07 3.72c-1.65 2.21-2.51 5.53-2.51 10.11V64c0 4.66.86 7.9 2.51 10.11a9.65 9.65 0 008.07 3.72 11.29 11.29 0 008.54-3.79v7c0 4.11-1 7-5.47 7h-2.52v6.4h3.24c7.76 0 12.2-3.71 12.2-13V37.22zM222.8 55.22h6.48v6.42c0 3.55-.38 5.41-1.39 6.88a5.38 5.38 0 01-4.78 2.16 5.21 5.21 0 01-4.64-2.16c-1.08-1.62-1.54-3.56-1.54-8.2V40.91c0-4.64.39-6.65 1.54-8.2a5.05 5.05 0 014.53-2.09 4.91 4.91 0 014.4 2.09c1.16 1.7 1.55 3.71 1.55 9.44h7.79C236.69 35 236 31 233.6 28c-2.31-2.86-5.79-4.48-10.65-4.48s-8.41 1.61-10.65 4.48c-2.47 3-3.09 7.43-3.09 13.92v17.47c0 6.58.62 10.91 3.09 14 2.24 2.79 5.79 4.41 10.81 4.41s8.49-1.62 10.8-4.41 3-7 3-13.07V48.87H222.8zM248.48 40.91V37.2h-7v40H249V50.73c0-5.1 2.55-7.27 6.87-7.27h3.71v-6.88h-2.47a10 10 0 00-8.65 4.33M279.11 53.9h-10.65v-1.31c0-4.88.31-6.73 1.39-8.12a4.73 4.73 0 013.94-1.86 4.6 4.6 0 013.93 1.86c1.09 1.39 1.39 3.24 1.39 8.12zm-5.32-17.32c-4.32 0-7.57 1.31-9.65 3.48-2.63 2.78-3.24 6.57-3.24 13.3V61c0 6.73.61 10.52 3.24 13.3 2.08 2.17 5.33 3.48 9.72 3.48s7.57-1.31 9.65-3.48c2.24-2.32 3-5.34 3.09-10h-7.41c-.08 2.94-.46 4.33-1.31 5.49a5 5 0 01-4 1.78 4.94 4.94 0 01-4-1.78c-1.08-1.39-1.39-3.24-1.39-8.12v-2.28h18.22v-6c0-6.73-.62-10.52-3.24-13.3-2.09-2.17-5.41-3.48-9.65-3.48M309 53.9h-10.66v-1.31c0-4.88.31-6.73 1.39-8.12a4.7 4.7 0 013.93-1.86 4.63 4.63 0 013.94 1.86c1.08 1.39 1.39 3.24 1.39 8.12zm-5.33-17.32c-4.32 0-7.56 1.31-9.64 3.48-2.63 2.78-3.25 6.57-3.25 13.3V61c0 6.73.62 10.52 3.25 13.3 2.08 2.17 5.32 3.48 9.72 3.48s7.57-1.31 9.65-3.48c2.24-2.32 3-5.34 3.09-10h-7.41c-.08 2.94-.47 4.33-1.31 5.49a5.06 5.06 0 01-4 1.78 4.91 4.91 0 01-4-1.78c-1.08-1.39-1.39-3.24-1.39-8.12v-2.28h18.22v-6c0-6.73-.62-10.52-3.25-13.3-2.08-2.17-5.4-3.48-9.65-3.48M336.66 36.58a11.31 11.31 0 00-8.66 3.94V37.2h-7v40h7.57V49.88c0-2.71.77-4.33 1.85-5.26a5.51 5.51 0 013.86-1.39 4.78 4.78 0 013.86 1.62c.92 1.09 1.23 2.71 1.23 5.11v27.22h7.57V48.72c0-4.1-.85-7-2.55-9a10 10 0 00-7.72-3.17M383.32 24.13v22.5H371.9v-22.5h-7.72v53.05h7.72V53.83h11.42v23.35h7.72V24.13h-7.72zM409.44 68.21h-.31c-1.69-7.35-5.09-22.43-6.94-31H394c3.39 13.45 8.72 33.1 11.65 42.61l-.93 3c-1 3.32-2.21 4.17-6 4.17H397v6.19h3.16c6.33 0 9.86-2.55 12.48-12.53 2.78-10.36 7.57-30.24 10.66-43.46h-7.95c-1.63 8.58-4.56 23.66-5.95 31M443.38 64.65c0 4.56-2.77 6.5-5.78 6.5a4.42 4.42 0 01-4-2.09c-.85-1.24-1.23-3.17-1.23-6.19V51.5c0-3 .38-4.87 1.23-6.18a4.42 4.42 0 014-2.09c3 0 5.78 1.93 5.78 6.5zm0-24.59a11.19 11.19 0 00-8.18-3.48 9.55 9.55 0 00-7.95 3.63c-1.62 2.17-2.47 5.42-2.47 9.9v14.16c0 4.48.85 7.73 2.47 9.9a9.55 9.55 0 007.95 3.63 11.14 11.14 0 008.65-4v3.4H451v-56h-7.57zM463.32 40.91V37.2h-7v40h7.57V50.73c0-5.1 2.54-7.27 6.87-7.27h3.7v-6.88H472a10 10 0 00-8.64 4.33M494.25 61.56c0 5-.39 6.81-1.55 8.27a4.89 4.89 0 01-4 1.78 5 5 0 01-4.09-1.78c-1.16-1.46-1.47-3.24-1.47-8.27v-8.74c0-5 .31-6.81 1.47-8.28a5.08 5.08 0 014.09-1.78 4.92 4.92 0 014 1.78c1.16 1.47 1.55 3.25 1.55 8.28zm-5.56-25c-4.25 0-7.72 1.16-10 3.56-2.55 2.86-3.16 6.57-3.16 13v8.12c0 6.42.61 10.13 3.16 13 2.24 2.4 5.71 3.56 10 3.56s7.72-1.16 9.88-3.56c2.62-2.86 3.24-6.57 3.24-13v-8.11c0-6.42-.62-10.13-3.24-13-2.16-2.4-5.64-3.56-9.88-3.56M590.67 39.75a10 10 0 00-7.67-3.17 11.3 11.3 0 00-8.65 3.94V37.2h-7v40h7.56V49.88c0-2.71.77-4.33 1.85-5.26a5.56 5.56 0 013.86-1.39 4.77 4.77 0 013.86 1.62c.93 1.09 1.24 2.71 1.24 5.11v27.22h7.56V48.72c0-4.1-.85-7-2.55-9M280.43 125.51c0 4.66-2.82 6.64-5.88 6.64a4.58 4.58 0 01-4.07-2.06c-.87-1.34-1.26-3.32-1.26-6.4V113c0-3.09.39-5 1.26-6.33a4.47 4.47 0 014.07-2.13c3.06 0 5.88 2 5.88 6.64zM281 102a11.23 11.23 0 00-8.86-4.27 9.65 9.65 0 00-8.07 3.72c-1.64 2.21-2.5 5.53-2.5 10.11v13.59c0 4.67.86 7.91 2.5 10.12a9.64 9.64 0 008.07 3.71 11.24 11.24 0 008.54-3.79v5.41c0 4.12-1.2 7-5.64 7h-2.53v6.39h3.24c7.75 0 12.37-3.71 12.37-13V98.33H281zM229.36 121.9c0 4.64-.39 6.58-1.55 8.2a5.52 5.52 0 01-4.63 2.09 5.6 5.6 0 01-4.71-2.09c-1.16-1.62-1.54-3.56-1.54-8.2v-19.49c0-4.64.38-6.57 1.54-8.2a5.6 5.6 0 014.71-2.09 5.52 5.52 0 014.63 2.09c1.16 1.63 1.55 3.56 1.55 8.2zM223.18 85c-4.94 0-8.57 1.7-10.88 4.56-2.47 3-3.09 7.35-3.09 13.85v17.49c0 6.57.62 10.9 3.09 13.84 2.31 2.86 5.94 4.56 10.88 4.56s8.57-1.7 10.89-4.56 3.08-7.27 3.08-13.84v-17.48c0-6.5-.69-10.83-3.08-13.85-2.32-2.86-5.95-4.56-10.89-4.56M249 102.41V98.7h-7v40h7.57v-26.47c0-5.1 2.54-7.27 6.87-7.27h3.7v-6.88h-2.47a10 10 0 00-8.64 4.33M310.29 127.16c0 3.79-2.55 6-5.64 6-3.47 0-5.17-2.39-5.17-6.26v-.77c0-2.25.46-3.64 1.31-4.57s2.4-1.31 4.4-1.31h5.1zm-4.56-29.08c-6.87 0-11.19 3.4-12.89 9.59l6.72 1.7c.77-2.71 2.62-4.79 5.63-4.79a4.85 4.85 0 013.86 1.62c.93 1.08 1.24 2.86 1.24 5.34v3.17h-6.72c-3.63 0-6.4.77-8.33 2.55s-3.25 4.64-3.25 9v1c0 7.11 3.94 12.06 10.58 12.06a10 10 0 008.18-3.86v3.24h7.1v-27.47c0-5-1.08-7.89-3.16-10s-5.1-3.17-9-3.17M338.82 98.08a11.29 11.29 0 00-8.64 3.94V98.7h-7v40h7.57v-27.3c0-2.7.77-4.33 1.85-5.26a5.56 5.56 0 013.86-1.39 4.8 4.8 0 013.86 1.62c.92 1.09 1.23 2.71 1.23 5.11v27.22h7.57v-28.48c0-4.1-.85-7-2.55-9a10 10 0 00-7.72-3.17M379.26 139.3c7.41 0 12.43-4.25 12.43-11.37v-.23c0-6-2.4-8.74-8.18-11.29l-3.56-1.7c-3.7-1.7-5.55-3-5.55-6.11v-.16c0-2.63 1.85-4.48 4.78-4.48a4.74 4.74 0 013.71 1.55 7 7 0 011.16 4.4h7.25c0-3.17-.54-6.49-3.47-9a13.12 13.12 0 00-8.65-2.86c-6.79 0-11.88 3.87-11.88 10.6v.23c0 5.49 2.54 8.58 8 11.06l3.78 1.78c4.25 1.93 5.49 3.17 5.49 6.26v.16a4.85 4.85 0 01-5.1 5.18 5.21 5.21 0 01-3.86-1.55 6.35 6.35 0 01-1.39-4.56H367c0 3.48.46 6.42 3.09 8.89 2.16 2.09 5.32 3.17 9.18 3.17M420.87 138.68v-27.45c0-5-1.08-7.89-3.17-10s-5.09-3.17-8.95-3.17c-6.87 0-11.19 3.4-12.89 9.59l6.71 1.7c.77-2.71 2.63-4.79 5.64-4.79a4.87 4.87 0 013.86 1.62c.92 1.08 1.23 2.86 1.23 5.34v3.17h-6.71c-3.63 0-6.41.77-8.34 2.55s-3.24 4.64-3.24 9v1c0 7.11 3.93 12.06 10.57 12.06a10 10 0 008.19-3.86v3.24zm-7.57-11.52c0 3.79-2.55 6-5.63 6-3.48 0-5.18-2.39-5.18-6.26v-.77c0-2.25.47-3.64 1.32-4.57s2.39-1.31 4.4-1.31h5.09zM443.07 105v-6.3h-7.41V86.85h-7.56V98.7H423v6.3h5.1v25.37c0 5.41 2.62 8.35 7.87 8.35h6.56v-6.26h-4.17c-2 0-2.7-.85-2.7-3.17V105zM486.27 122.75v-8.12c0-6.42-.62-10.13-3.24-13-2.17-2.4-5.64-3.56-9.89-3.56s-7.71 1.16-9.95 3.56c-2.55 2.86-3.17 6.57-3.17 13v8.12c0 6.42.62 10.13 3.17 13 2.24 2.4 5.71 3.56 9.95 3.56s7.72-1.16 9.89-3.56c2.62-2.86 3.24-6.57 3.24-13m-7.57.31c0 5-.38 6.81-1.54 8.28a4.94 4.94 0 01-4 1.78 5.09 5.09 0 01-4.09-1.78c-1.16-1.47-1.46-3.25-1.46-8.28v-8.74c0-5 .3-6.8 1.46-8.27a5.06 5.06 0 014.09-1.78 4.91 4.91 0 014 1.78c1.16 1.47 1.54 3.24 1.54 8.27zM514.56 101.25a10 10 0 00-7.72-3.17 11.31 11.31 0 00-8.65 3.94V98.7h-7v40h7.56v-27.3c0-2.7.77-4.33 1.86-5.26a5.52 5.52 0 013.85-1.39 4.76 4.76 0 013.86 1.63c.93 1.08 1.24 2.7 1.24 5.1v27.22h7.56v-28.48c0-4.1-.85-7-2.54-9M354.73 98.7h7.57v39.99h-7.57zM354.65 86.85h7.56v6.5h-7.56zM447.09 98.7h7.57v39.99h-7.57zM447.13 86.85h7.56v6.5h-7.56zM554.75 53.9H544.1v-1.31c0-4.88.31-6.73 1.39-8.12a4.73 4.73 0 013.94-1.86 4.6 4.6 0 013.93 1.86c1.09 1.39 1.39 3.24 1.39 8.12zm-4.93-17.32c-4.32 0-7.57 1.31-9.65 3.48-2.63 2.78-3.24 6.57-3.24 13.3V61c0 6.73.61 10.52 3.24 13.3 2.08 2.17 5.33 3.48 9.72 3.48s7.57-1.31 9.65-3.48c2.24-2.32 3-5.34 3.09-10h-7.41c-.08 2.94-.46 4.33-1.31 5.49a5 5 0 01-4 1.78 4.94 4.94 0 01-4-1.78c-1.08-1.39-1.39-3.24-1.39-8.12v-2.28h18.22v-6c0-6.73-.62-10.52-3.24-13.3-2.09-2.17-5.41-3.48-9.65-3.48" fill="#154734"/><path d="M89.82 139.42c-6.36 0-11.15-1.94-14.23-5.77-3.38-4.24-4.06-10.28-4.06-18.65V91.27c0-8.15.69-14.43 4.06-18.55 3.06-3.9 7.77-5.88 14-5.88s10.87 2 14 5.88c2.94 3.71 4 8.54 4.06 18.3h-9.4c0-7.27-.53-10.13-2.19-12.57-1.36-2-3.53-3.08-6.45-3.08s-5.2 1.07-6.55 3.09c-1.65 2.21-2.19 5-2.19 11.44v26.36c0 6.09.56 9 2.19 11.44 1.45 2.12 3.72 3.2 6.76 3.2s5.37-1 7-3.18 2-4.75 2-9.68v-9.28H90v-7.48h18v15c0 8.54-1.19 13.75-4 17.4-3.18 3.82-8 5.76-14.23 5.76M137.83 138.59v-28.73h-16.64v28.73h-9.35V67.68h9.35v33.54h16.64V67.68h9.35v70.91h-9.35zM153.31 138.62v-6.11l9.86-13.94c6.46-9.15 8-11.87 8-17.69v-1.45c0-4.36-1.74-6.56-5.19-6.56a4.51 4.51 0 00-4.19 2.07c-.77 1.32-.95 3-1 6h-8.43c.08-5.5.53-8.47 2.74-11.17 2.48-3.18 6.11-4.79 10.8-4.79 8.44 0 13.69 5.34 13.69 14v1.21c0 7.9-2.05 12-8.65 21.15l-7 9.82h16.29v7.46z" fill="#144733"/></symbol><symbol viewBox="0 0 9 9" id="minus-icon" xmlns="http://www.w3.org/2000/svg"><path clip-rule="evenodd" fill="none" d="M0 0h9v9H0z"/><path d="M9 3.5v2H0v-2h9z" fill-rule="evenodd" clip-rule="evenodd" fill="currentColor"/></symbol><symbol viewBox="0 0 32 22" id="page-icon" xmlns="http://www.w3.org/2000/svg"><path d="M21.873.333l9.87 9.87a.998.998 0 010 1.412l-10.059 10.06a.998.998 0 11-1.412-1.412l8.251-8.252-27.51.001a1.013 1.013 0 11.001-2.028h27.644l-8.22-8.217A1.015 1.015 0 0121.873.333z" fill="currentColor" fill-rule="evenodd"/></symbol><symbol viewBox="0 0 9 9" id="plus-icon" xmlns="http://www.w3.org/2000/svg"><path d="M5.25 0v3.749L9 3.75v1.5H5.25V9h-1.5V5.25H0v-1.5h3.75V0h1.5z" fill="currentColor" fill-rule="evenodd"/></symbol><symbol viewBox="0 0 18 18" id="search-icon" xmlns="http://www.w3.org/2000/svg"><path d="M7.123 0a7.123 7.123 0 015.705 11.389l4.886 4.886c.39.39.39 1.024 0 1.415l-.024.024c-.391.39-1.024.39-1.415 0l-4.886-4.886A7.124 7.124 0 117.123 0zm0 1.9a5.223 5.223 0 10-.001 10.449 5.223 5.223 0 00.001-10.45z" fill="currentColor" fill-rule="evenodd"/></symbol><symbol viewBox="0 0 19 14" id="twitter" xmlns="http://www.w3.org/2000/svg"><path d="M14.118 10.726c1.778-1.931 2.707-4.447 2.707-6.783 0-.153 0-.305-.01-.457a7.348 7.348 0 001.842-1.83 7.641 7.641 0 01-2.121.556A3.58 3.58 0 0018.159.256a7.624 7.624 0 01-2.345.859C14.67-.051 12.851-.336 11.377.419c-1.473.755-2.234 2.362-1.856 3.92C6.551 4.197 3.785 2.854 1.91.645c-.98 1.616-.48 3.682 1.143 4.72a3.793 3.793 0 01-1.676-.443v.045c0 1.683 1.24 3.133 2.963 3.466a3.833 3.833 0 01-1.668.06c.484 1.441 1.87 2.428 3.45 2.456a7.625 7.625 0 01-5.466 1.466A10.804 10.804 0 006.317 14c3.396.003 6.023-1.344 7.8-3.274z" fill="currentColor" fill-rule="nonzero"/></symbol><symbol viewBox="0 0 19 13" id="youtube" xmlns="http://www.w3.org/2000/svg"><path fill="currentColor" d="M7.817 9.017V3.665l4.704 2.676-4.705 2.676zM18.28 1.98a2.253 2.253 0 00-1.591-1.6C15.287 0 9.657 0 9.657 0s-5.63 0-7.032.379A2.26 2.26 0 001.033 1.98C.657 3.393.657 6.34.657 6.34s0 2.949.376 4.362a2.26 2.26 0 001.592 1.601c1.403.379 7.032.379 7.032.379s5.629 0 7.032-.379a2.26 2.26 0 001.592-1.601c.376-1.413.376-4.362.376-4.362s0-2.948-.376-4.36z" fill-rule="evenodd"/></symbol></svg>